{"glyphs":{"0":{"ha":963,"x_min":75,"x_max":796,"o":"m 208 450 q 266 738 208 625 q 435 850 324 850 q 604 737 545 850 q 662 450 662 624 q 604 166 662 278 q 435 54 545 54 q 266 165 324 54 q 208 450 208 277 m 796 479 q 706 797 796 673 q 452 921 616 921 q 178 787 281 921 q 75 453 75 652 q 94 285 75 365 q 151 135 113 205 q 259 24 190 65 q 420 -18 328 -18 q 695 125 594 -18 q 796 479 796 267 z "},"1":{"ha":581,"x_min":0,"x_max":438,"o":"m 423 0 l 438 20 l 423 43 q 379 130 392 84 q 366 252 366 175 l 366 856 l 399 876 q 349 924 380 917 l 0 761 q 87 675 35 685 l 241 774 l 241 167 q 226 88 241 109 q 161 56 210 68 l 107 43 l 122 0 l 423 0 z "},"2":{"ha":827,"x_min":47,"x_max":699,"o":"m 656 0 q 699 114 699 34 l 224 114 q 397 262 327 198 q 536 402 467 326 q 640 549 605 479 q 675 685 675 620 q 593 859 675 798 q 368 921 510 921 q 161 863 247 921 q 76 700 76 806 q 115 605 76 643 q 210 567 153 567 q 233 569 227 567 q 239 582 239 571 l 220 616 q 199 690 199 651 q 250 809 199 766 q 368 852 300 852 q 483 808 434 852 q 532 686 532 765 q 496 530 532 604 q 355 342 461 456 q 47 64 248 229 l 80 0 l 656 0 z "},"3":{"ha":827,"x_min":72,"x_max":681,"o":"m 681 232 q 627 385 681 320 q 469 473 572 450 q 655 703 655 544 q 567 864 655 807 q 361 921 479 921 q 174 871 251 921 q 96 731 96 822 q 134 634 96 671 q 231 597 172 597 q 256 613 256 597 q 248 629 256 616 q 229 667 239 643 q 220 722 220 692 q 260 818 220 784 q 359 852 301 852 q 469 811 422 852 q 517 696 517 770 q 513 650 517 671 q 494 602 509 629 q 456 553 480 575 q 386 512 431 532 q 278 480 340 492 q 220 463 232 472 q 208 438 208 454 q 227 416 208 416 q 242 420 229 416 q 278 426 255 423 q 328 429 301 429 q 440 410 395 429 q 507 359 486 391 q 536 299 528 327 q 544 240 544 271 q 490 109 544 155 q 361 62 435 62 q 243 98 292 62 q 195 197 195 134 q 205 250 195 227 q 224 287 214 274 q 233 304 233 300 q 228 317 233 315 q 206 319 222 319 q 110 282 148 319 q 72 186 72 245 q 158 36 72 90 q 363 -18 244 -18 q 595 47 510 -18 q 681 232 681 113 z "},"4":{"ha":845,"x_min":39,"x_max":727,"o":"m 667 0 l 682 20 l 667 43 q 612 203 616 110 l 699 203 q 727 285 727 227 l 610 285 l 610 604 l 472 589 l 456 568 q 484 453 484 524 l 484 285 l 161 285 l 433 883 l 410 903 l 330 903 l 39 203 l 484 203 l 484 167 q 470 87 484 107 q 406 56 456 68 l 353 43 l 366 0 l 667 0 z "},"5":{"ha":827,"x_min":72,"x_max":681,"o":"m 681 243 q 601 441 681 361 q 362 522 521 522 q 206 505 282 522 l 224 789 l 593 789 q 635 903 635 825 l 145 903 l 122 484 l 149 437 q 283 453 235 453 q 397 439 349 453 q 473 403 446 425 q 517 351 500 381 q 539 296 534 321 q 544 243 544 270 q 489 110 544 157 q 361 62 434 62 q 243 98 292 62 q 195 197 195 134 q 205 250 195 227 q 224 287 214 274 q 233 304 233 300 q 228 317 233 315 q 206 319 222 319 q 110 282 148 319 q 72 186 72 245 q 158 36 72 90 q 363 -18 244 -18 q 594 52 507 -18 q 681 243 681 122 z "},"6":{"ha":898,"x_min":72,"x_max":723,"o":"m 294 113 q 276 138 294 113 q 258 245 258 163 q 301 385 258 328 q 422 442 345 442 q 533 390 496 442 q 570 255 570 338 q 526 115 570 168 q 404 62 483 62 q 294 113 330 62 m 723 274 q 657 456 723 385 q 468 528 591 528 q 300 479 366 528 q 209 353 233 431 q 208 411 208 370 q 220 564 208 490 q 260 704 233 637 q 337 810 288 770 q 453 850 387 850 q 547 816 511 850 q 582 723 582 781 q 564 654 582 688 l 545 618 q 571 605 545 605 q 667 646 629 605 q 705 750 705 686 q 636 873 705 826 q 456 921 567 921 q 243 850 332 921 q 113 667 155 780 q 72 412 72 555 q 163 106 72 229 q 422 -18 255 -18 q 644 65 566 -18 q 723 274 723 148 z "},"7":{"ha":689,"x_min":3,"x_max":613,"o":"m 332 0 l 357 20 l 345 43 q 326 119 326 76 q 357 251 326 178 l 613 903 l 3 903 q 46 789 3 823 l 479 789 l 241 175 q 191 91 218 118 q 114 50 164 64 l 85 43 l 100 0 l 332 0 z "},"8":{"ha":856,"x_min":68,"x_max":707,"o":"m 385 537 q 258 616 294 576 q 221 707 221 655 q 266 810 221 766 q 378 854 311 854 q 503 810 458 854 q 548 694 548 766 q 465 500 548 597 l 385 537 m 201 212 q 296 416 201 316 l 430 358 q 536 289 505 324 q 568 191 568 254 q 515 87 568 125 q 378 49 463 49 q 248 94 296 49 q 201 212 201 140 m 707 225 q 529 471 707 378 q 684 693 684 563 q 599 868 684 811 q 378 925 514 925 q 164 850 239 925 q 90 670 90 776 q 125 538 90 591 q 235 445 161 486 q 68 208 68 346 q 153 35 68 91 q 377 -20 239 -20 q 618 46 530 -20 q 707 225 707 113 z "},"9":{"ha":898,"x_min":98,"x_max":723,"o":"m 248 637 q 291 780 248 720 q 414 840 334 840 q 529 779 487 840 q 571 636 571 718 q 526 496 571 556 q 401 437 481 437 q 288 496 328 437 q 248 637 248 556 m 723 429 q 692 676 723 568 q 587 852 661 784 q 404 921 513 921 q 179 827 260 921 q 98 610 98 734 q 163 425 98 502 q 343 347 228 347 q 492 387 429 347 q 589 492 556 426 q 590 425 590 471 q 571 247 590 326 q 500 111 552 168 q 366 54 448 54 q 275 85 311 54 q 240 165 240 115 q 255 227 240 197 q 270 258 270 256 q 243 273 270 273 q 153 241 189 273 q 117 159 117 210 q 187 32 117 81 q 368 -18 258 -18 q 632 107 541 -18 q 723 429 723 232 z "}," ":{"ha":429,"x_min":0,"x_max":0,"o":""},"!":{"ha":342,"x_min":75,"x_max":233,"o":"m 233 64 q 206 119 233 90 q 156 148 179 148 q 105 119 133 148 q 77 64 77 90 q 105 12 77 41 q 156 -18 133 -18 q 205 12 178 -18 q 233 64 233 41 m 186 307 q 233 933 233 795 q 156 966 203 966 q 75 933 104 966 q 122 307 75 795 q 156 250 127 250 q 186 307 179 250 z "},"\"":{"ha":476,"x_min":47,"x_max":384,"o":"m 137 743 q 176 1012 176 907 q 113 1048 155 1048 q 47 1012 71 1048 q 87 743 47 907 q 113 720 91 720 q 137 743 130 720 m 345 743 q 384 1012 384 916 q 319 1048 361 1048 q 255 1012 277 1048 q 294 743 255 907 q 319 720 301 720 q 345 743 340 720 z "},"#":{"ha":967,"x_min":64,"x_max":812,"o":"m 349 534 l 571 534 l 526 365 l 301 365 l 349 534 m 199 0 l 278 283 l 503 283 l 426 0 l 514 0 l 593 283 l 719 283 l 742 365 l 616 365 l 663 534 l 789 534 l 812 616 l 686 616 l 766 903 l 675 903 l 597 616 l 372 616 l 452 903 l 361 903 l 283 616 l 157 616 l 133 534 l 258 534 l 210 365 l 85 365 l 64 283 l 189 283 l 111 0 l 199 0 z "},"$":{"ha":807,"x_min":68,"x_max":639,"o":"m 397 -163 l 397 1 q 574 75 509 11 q 639 233 639 140 q 606 353 639 302 q 526 429 574 403 q 420 481 477 454 q 315 530 363 507 q 235 596 267 553 q 202 699 202 639 q 240 793 202 751 q 349 834 278 834 q 439 804 400 834 q 479 722 479 773 q 469 667 479 692 q 449 629 458 643 q 439 613 439 616 q 446 600 439 602 q 468 597 452 597 q 564 635 525 597 q 602 731 602 674 q 545 844 602 800 q 397 901 487 888 l 397 1099 q 317 1066 342 1099 l 317 903 q 144 824 205 894 q 83 665 83 754 q 127 521 83 579 q 235 431 171 463 q 361 374 298 400 q 469 308 425 347 q 513 212 513 269 q 467 109 513 148 q 361 71 422 71 q 240 109 290 71 q 190 213 190 146 q 199 267 190 243 q 219 304 209 292 q 229 321 229 317 q 224 334 229 332 q 202 336 220 336 q 106 300 144 336 q 68 203 68 263 q 139 63 68 115 q 317 1 210 11 l 317 -191 q 397 -163 376 -191 z "},"%":{"ha":1413,"x_min":64,"x_max":1218,"o":"m 873 267 q 904 429 873 365 q 993 492 935 492 q 1081 429 1051 492 q 1111 267 1111 365 q 1081 104 1111 167 q 993 42 1051 42 q 903 104 933 42 q 873 267 873 167 m 1218 285 q 1161 476 1218 401 q 1001 551 1104 551 q 831 470 894 551 q 768 267 768 389 q 819 66 768 151 q 981 -18 871 -18 q 1154 69 1090 -18 q 1218 285 1218 156 m 168 635 q 199 796 168 732 q 289 860 229 860 q 377 796 347 860 q 407 635 407 732 q 377 472 407 534 q 289 410 347 410 q 199 472 229 410 q 168 635 168 534 m 514 652 q 457 844 514 769 q 297 920 400 920 q 127 838 190 920 q 64 635 64 757 q 115 435 64 518 q 277 351 167 351 q 450 437 387 351 q 514 652 514 524 m 496 0 l 876 903 l 785 903 l 408 0 l 496 0 z "},"&":{"ha":928,"x_min":39,"x_max":841,"o":"m 652 199 q 591 330 652 278 q 841 495 841 347 q 802 589 841 553 q 707 625 762 625 q 652 606 652 625 q 663 591 652 601 q 686 571 673 582 q 709 538 699 560 q 719 488 719 515 q 677 413 719 438 q 574 383 635 388 q 452 376 513 378 q 350 355 392 373 q 308 298 308 338 q 316 271 308 283 q 334 258 324 258 q 351 272 339 258 q 396 302 363 286 q 481 323 429 319 q 503 323 488 323 q 529 324 518 324 q 560 222 560 283 q 506 94 560 140 q 366 49 452 49 q 233 107 283 49 q 182 243 182 165 q 232 385 182 321 q 381 473 282 448 q 397 498 397 473 q 380 526 397 526 q 271 572 315 526 q 227 701 227 617 q 269 815 227 768 q 385 863 311 863 q 469 834 438 863 q 500 758 500 806 q 494 713 500 732 q 481 685 488 694 q 475 674 475 675 q 500 661 475 661 q 581 691 551 661 q 610 770 610 722 q 549 879 610 837 q 399 921 488 921 q 170 854 252 921 q 88 694 88 787 q 267 487 88 530 q 98 393 156 457 q 39 241 39 328 q 125 51 39 119 q 359 -18 212 -18 q 581 48 509 -18 q 652 199 652 114 z "},"'":{"ha":247,"x_min":47,"x_max":176,"o":"m 137 743 q 176 1012 176 907 q 113 1048 155 1048 q 47 1012 71 1048 q 87 743 47 907 q 113 720 91 720 q 137 743 130 720 z "},"(":{"ha":488,"x_min":72,"x_max":404,"o":"m 404 -84 q 262 103 316 -27 q 208 416 208 233 q 262 730 208 600 q 404 918 316 861 l 404 974 q 158 766 244 906 q 72 416 72 625 q 158 66 72 206 q 404 -140 244 -75 l 404 -84 z "},")":{"ha":488,"x_min":39,"x_max":370,"o":"m 370 416 q 285 766 370 625 q 39 974 199 906 l 39 918 q 181 730 127 861 q 235 416 235 600 q 181 103 235 233 q 39 -84 127 -27 l 39 -140 q 370 416 370 -4 z "},"*":{"ha":798,"x_min":88,"x_max":633,"o":"m 556 601 q 470 684 521 635 q 403 747 419 732 q 490 760 420 750 q 614 776 560 769 q 633 826 633 799 q 574 898 633 883 l 385 796 l 426 1006 q 361 1044 404 1044 q 297 1006 319 1044 q 335 796 304 968 q 148 899 294 818 q 104 872 121 892 q 88 823 88 852 q 109 776 88 800 q 227 760 157 769 q 319 747 296 750 q 256 687 307 736 q 165 601 205 637 q 184 543 165 568 q 235 518 202 518 q 267 526 252 518 q 318 631 286 566 q 361 719 350 696 q 400 636 369 700 q 453 525 431 572 q 487 517 472 517 q 536 541 517 517 q 556 601 556 564 z "},"+":{"ha":863,"x_min":123,"x_max":656,"o":"m 437 183 l 437 403 l 656 403 l 656 496 l 437 496 l 437 718 l 343 718 l 343 496 l 123 496 l 123 403 l 343 403 l 343 183 l 437 183 z "},",":{"ha":266,"x_min":8,"x_max":198,"o":"m 95 -103 q 173 -8 148 -46 q 198 65 198 30 q 115 149 198 149 q 46 134 85 149 l 23 126 l 28 96 l 53 80 q 81 35 81 60 q 66 -18 81 15 l 8 -132 l 46 -156 l 95 -103 z "},"-":{"ha":494,"x_min":42,"x_max":406,"o":"m 372 330 q 406 419 406 358 l 73 406 q 42 317 42 378 l 372 330 z "},".":{"ha":266,"x_min":42,"x_max":198,"o":"m 198 64 q 170 119 198 90 q 118 148 141 148 q 68 119 95 148 q 42 64 42 90 q 69 12 42 41 q 118 -18 96 -18 q 170 12 141 -18 q 198 64 198 41 z "},"/":{"ha":515,"x_min":0,"x_max":468,"o":"m 88 -80 l 468 983 l 377 983 l 0 -80 l 88 -80 z "},":":{"ha":266,"x_min":42,"x_max":198,"o":"m 198 64 q 170 119 198 90 q 118 148 141 148 q 68 119 95 148 q 42 64 42 90 q 69 12 42 41 q 118 -18 96 -18 q 170 12 141 -18 q 198 64 198 41 m 198 517 q 170 572 198 543 q 118 601 141 601 q 68 572 95 601 q 42 517 42 543 q 69 465 42 494 q 118 435 96 435 q 170 465 141 435 q 198 517 198 494 z "},";":{"ha":266,"x_min":8,"x_max":198,"o":"m 198 517 q 170 572 198 543 q 118 601 141 601 q 68 572 95 601 q 42 517 42 543 q 69 465 42 494 q 118 435 96 435 q 170 465 141 435 q 198 517 198 494 m 95 -103 q 173 -8 148 -46 q 198 65 198 30 q 115 149 198 149 q 46 134 85 149 l 23 126 l 28 96 l 53 80 q 81 35 81 60 q 66 -18 81 15 l 8 -132 l 46 -156 l 95 -103 z "},"<":{"ha":863,"x_min":123,"x_max":656,"o":"m 656 283 l 232 449 l 656 616 l 656 713 l 123 496 l 123 403 l 656 186 l 656 283 z "},"=":{"ha":863,"x_min":123,"x_max":656,"o":"m 656 538 l 656 632 l 123 632 l 123 538 l 656 538 m 656 266 l 656 361 l 123 361 l 123 266 l 656 266 z "},">":{"ha":863,"x_min":123,"x_max":656,"o":"m 656 403 l 656 496 l 123 713 l 123 616 l 549 449 l 123 283 l 123 186 l 656 403 z "},"?":{"ha":747,"x_min":64,"x_max":597,"o":"m 372 64 q 344 119 372 90 q 293 148 316 148 q 243 119 270 148 q 217 64 217 90 q 244 12 217 41 q 293 -18 271 -18 q 344 12 316 -18 q 372 64 372 41 m 309 271 l 315 296 q 348 358 326 331 q 420 431 370 385 q 597 735 597 604 q 520 896 597 837 q 330 955 444 955 q 138 907 213 955 q 64 781 64 859 q 98 692 64 727 q 187 656 133 656 q 210 671 210 656 q 203 686 210 675 q 189 720 195 697 q 182 774 182 743 q 214 854 182 825 q 300 883 245 883 q 412 844 370 883 q 453 727 453 804 q 405 564 453 648 q 206 351 357 480 l 285 271 l 309 271 z "},"@":{"ha":1238,"x_min":69,"x_max":1054,"o":"m 416 354 q 456 503 416 438 q 568 568 496 568 q 650 540 614 568 l 628 289 q 513 209 572 209 q 444 250 472 209 q 416 354 416 290 m 784 -64 l 753 -9 q 528 -66 661 -66 q 280 39 370 -66 q 190 312 190 145 q 304 643 190 509 q 597 777 419 777 q 841 672 751 777 q 930 401 930 567 q 888 188 930 264 q 800 111 845 111 q 753 138 772 111 q 735 213 735 164 q 762 545 735 229 q 777 581 764 560 l 789 602 l 780 616 q 682 629 760 617 q 570 640 605 640 q 370 554 446 640 q 293 321 293 468 q 337 168 293 222 q 449 114 381 114 q 629 210 549 114 q 671 89 629 132 q 783 46 713 46 q 932 102 868 46 q 1025 237 996 159 q 1054 396 1054 315 q 929 720 1054 590 q 604 850 804 850 q 225 692 381 850 q 69 315 69 534 q 194 -9 69 121 q 521 -138 319 -138 q 784 -64 658 -138 z "},"A":{"ha":887,"x_min":-20,"x_max":875,"o":"m 425 774 l 545 422 l 308 422 l 425 774 m 227 0 l 250 20 l 240 43 q 222 119 222 73 q 250 251 222 165 l 281 343 l 571 343 l 631 167 q 646 107 646 117 q 590 50 646 64 l 560 43 l 574 0 l 859 0 l 875 20 q 805 85 829 56 q 761 175 781 115 l 507 903 l 266 903 l 250 860 l 279 853 q 335 798 335 841 q 321 736 335 780 l 123 167 q 82 87 104 109 q 8 50 60 65 l -20 43 l -4 0 l 227 0 z "},"B":{"ha":818,"x_min":50,"x_max":749,"o":"m 292 231 l 292 792 q 376 852 292 852 q 526 802 472 852 q 579 671 579 751 q 532 538 579 589 q 399 488 484 488 q 357 492 377 488 q 335 495 338 495 q 317 473 317 495 q 336 445 317 454 q 420 429 374 429 q 564 378 510 429 q 618 254 618 327 q 568 117 618 170 q 430 65 518 65 q 387 69 406 65 q 343 87 368 73 q 305 138 319 102 q 292 231 292 175 m 423 0 q 749 248 749 0 q 701 372 749 316 q 571 457 654 429 q 703 674 703 519 q 619 852 703 784 q 362 921 536 921 q 194 904 282 921 q 50 865 106 887 l 65 818 l 138 818 q 165 789 165 818 l 165 167 q 150 87 165 109 q 85 50 134 65 l 56 43 l 72 0 l 423 0 z "},"C":{"ha":776,"x_min":45,"x_max":743,"o":"m 741 141 q 743 152 743 149 q 730 176 743 164 q 703 187 716 187 q 694 182 699 187 q 457 69 618 69 q 260 179 335 69 q 186 450 186 289 q 200 593 186 525 q 243 721 214 661 q 326 817 273 781 q 450 852 380 852 q 566 814 522 852 q 610 719 610 777 q 601 663 610 689 q 581 623 591 637 q 571 605 571 609 q 600 590 571 590 q 694 631 656 590 q 732 736 732 671 q 654 870 732 819 q 450 921 575 921 q 149 789 252 921 q 45 450 45 656 q 87 214 45 317 q 222 47 130 111 q 446 -18 315 -18 q 741 141 629 -18 z "},"D":{"ha":921,"x_min":45,"x_max":878,"o":"m 285 221 l 285 792 q 408 852 285 852 q 596 793 518 852 q 708 647 674 735 q 742 453 742 559 q 420 64 742 64 q 322 97 359 64 q 285 221 285 130 m 460 0 q 770 126 662 0 q 878 450 878 252 q 863 595 878 529 q 812 723 848 662 q 721 827 776 784 q 581 896 666 871 q 385 921 495 921 q 45 865 202 921 l 60 818 l 132 818 q 160 789 160 818 l 160 153 q 140 84 160 106 q 80 50 119 62 l 50 43 l 65 0 l 460 0 z "},"E":{"ha":765,"x_min":56,"x_max":688,"o":"m 688 -18 l 688 198 l 646 212 l 637 183 q 593 94 620 117 q 500 72 567 72 l 365 72 q 300 90 316 72 q 285 167 285 107 l 285 423 l 391 423 q 488 410 460 423 q 529 353 517 396 l 537 321 l 579 336 l 579 552 l 555 566 l 544 552 q 445 495 505 495 l 285 495 l 285 736 q 300 814 285 795 q 365 833 316 833 l 488 833 q 580 810 553 833 q 624 720 606 788 l 631 690 l 674 705 l 674 929 l 655 945 l 631 929 q 488 903 598 903 l 104 903 l 87 883 l 104 860 q 160 651 160 785 l 160 159 q 144 82 160 103 q 83 47 129 61 l 56 41 l 71 0 l 601 0 q 654 -18 637 0 l 663 -31 l 688 -18 z "},"F":{"ha":688,"x_min":56,"x_max":631,"o":"m 349 0 l 363 43 l 334 50 q 269 87 285 65 q 254 167 254 109 l 254 411 l 349 411 q 446 396 416 411 q 487 338 475 381 l 494 309 l 537 324 l 537 540 l 511 555 l 500 540 q 403 481 461 481 l 254 481 l 254 736 q 269 814 254 795 q 334 833 285 833 l 445 833 q 537 810 511 833 q 581 720 563 788 l 590 690 l 631 705 l 631 929 l 612 945 l 590 929 q 445 903 553 903 l 72 903 l 56 883 l 72 860 q 130 651 130 785 l 130 252 q 117 131 130 176 q 72 43 104 85 l 56 20 l 72 0 l 349 0 z "},"G":{"ha":868,"x_min":45,"x_max":842,"o":"m 768 20 l 768 165 q 826 377 768 300 l 842 399 l 826 420 l 562 420 l 547 377 l 574 368 q 640 331 623 354 q 656 251 656 308 l 656 187 q 445 103 572 103 q 253 211 326 103 q 180 479 180 319 q 195 606 180 544 q 241 724 210 667 q 328 817 271 781 q 460 852 385 852 q 590 811 541 852 q 639 705 639 770 q 630 649 639 674 q 612 610 621 624 q 604 591 604 595 q 607 578 604 581 q 629 575 610 575 q 725 617 686 575 q 764 724 764 659 q 679 866 764 811 q 460 921 594 921 q 153 792 260 921 q 45 473 45 663 q 145 148 45 275 q 434 20 245 20 q 656 104 555 20 l 656 -15 q 615 -222 656 -159 q 491 -285 574 -285 q 397 -251 431 -285 q 362 -167 362 -217 q 378 -96 362 -126 q 409 -51 393 -66 q 425 -31 425 -35 q 401 -18 425 -18 q 283 -62 326 -18 q 241 -171 241 -107 q 301 -298 241 -244 q 471 -351 361 -351 q 768 20 768 -351 z "},"H":{"ha":979,"x_min":50,"x_max":924,"o":"m 374 0 l 387 41 l 361 47 q 300 82 315 61 q 285 159 285 103 l 285 420 l 696 420 l 696 167 q 680 87 696 109 q 614 50 663 65 l 587 43 l 602 0 l 910 0 l 924 41 l 898 47 q 835 83 850 61 q 819 159 819 104 l 819 651 q 876 860 819 784 l 895 883 l 876 903 l 602 903 l 587 860 l 614 853 q 680 817 663 840 q 696 736 696 793 l 696 496 l 285 496 l 285 651 q 342 860 285 787 l 358 883 l 342 903 l 65 903 l 50 860 l 80 853 q 144 817 127 840 q 160 736 160 793 l 160 167 q 144 87 160 109 q 80 50 129 65 l 50 43 l 65 0 l 374 0 z "},"I":{"ha":444,"x_min":50,"x_max":387,"o":"m 374 0 l 387 41 l 361 47 q 300 82 315 61 q 285 159 285 103 l 285 651 q 342 860 285 787 l 358 883 l 342 903 l 65 903 l 50 860 l 80 853 q 144 817 127 840 q 160 736 160 793 l 160 167 q 144 87 160 109 q 80 50 129 65 l 50 43 l 65 0 l 374 0 z "},"J":{"ha":590,"x_min":-24,"x_max":540,"o":"m 468 297 l 468 651 q 522 860 468 788 l 540 883 l 522 903 l 248 903 l 233 860 l 262 853 q 327 817 311 840 q 343 736 343 793 l 343 221 q 212 47 343 47 q 128 81 159 47 q 98 165 98 115 q 113 235 98 205 q 143 280 127 264 q 159 301 159 296 q 134 315 159 315 q 18 270 60 315 q -24 163 -24 225 q 35 36 -24 90 q 203 -18 95 -18 q 468 297 468 -18 z "},"K":{"ha":841,"x_min":50,"x_max":818,"o":"m 374 0 l 387 41 l 361 47 q 300 82 315 61 q 285 159 285 103 l 285 651 q 342 860 285 787 l 358 883 l 342 903 l 65 903 l 50 860 l 80 853 q 144 817 127 840 q 160 736 160 793 l 160 167 q 144 87 160 109 q 80 50 129 65 l 50 43 l 65 0 l 374 0 m 818 33 l 798 69 q 749 52 774 52 q 700 90 726 52 l 540 377 q 453 457 509 431 l 680 785 q 777 853 718 840 l 807 860 l 792 903 l 563 903 l 540 883 l 551 860 q 567 804 567 819 q 541 732 567 774 l 369 479 l 340 479 q 315 449 315 479 q 320 435 315 437 q 385 378 365 414 l 536 106 q 608 13 570 43 q 703 -18 646 -18 q 818 33 769 -18 z "},"L":{"ha":690,"x_min":50,"x_max":662,"o":"m 662 -18 l 662 198 l 618 212 l 612 183 q 567 94 594 117 q 475 72 540 72 l 365 72 q 300 90 316 72 q 285 167 285 107 l 285 651 q 342 860 285 787 l 358 883 l 342 903 l 65 903 l 50 860 l 80 853 q 144 817 127 840 q 160 736 160 793 l 160 159 q 144 82 160 103 q 83 47 129 61 l 56 41 l 71 0 l 572 0 q 627 -18 614 0 l 636 -31 l 662 -18 z "},"M":{"ha":1158,"x_min":19,"x_max":1103,"o":"m 269 0 l 289 20 l 273 43 q 228 201 228 107 q 235 324 228 216 l 263 713 l 526 90 l 594 90 l 857 713 l 895 187 q 896 163 895 180 q 897 140 897 145 q 880 82 897 102 q 823 50 864 62 l 795 43 l 810 0 l 1086 0 l 1103 20 q 1015 244 1027 96 l 990 590 q 985 701 985 661 q 1031 860 985 796 l 1044 883 l 1025 903 l 844 903 l 578 270 l 317 903 l 88 903 l 75 860 l 106 853 q 162 824 146 842 q 178 762 178 806 q 172 665 178 703 l 137 167 q 115 87 133 109 q 47 50 98 65 l 19 43 l 33 0 l 269 0 z "},"N":{"ha":979,"x_min":43,"x_max":903,"o":"m 297 0 l 313 20 l 297 43 q 254 130 266 84 q 241 252 241 175 l 241 712 l 720 0 l 848 0 l 863 20 l 848 43 q 829 111 829 71 l 829 651 q 884 860 829 785 l 903 883 l 884 903 l 648 903 l 631 860 l 661 853 q 726 817 709 840 q 742 736 742 793 l 742 190 l 260 903 l 58 903 l 43 860 l 72 853 q 136 817 119 840 q 152 736 152 793 l 152 167 q 136 87 152 109 q 72 50 121 65 l 43 43 l 58 0 l 297 0 z "},"O":{"ha":921,"x_min":45,"x_max":878,"o":"m 180 439 q 258 732 180 614 q 468 850 335 850 q 600 810 544 850 q 686 707 656 770 q 728 577 715 643 q 742 446 742 511 q 665 168 742 279 q 454 56 587 56 q 252 164 323 56 q 180 439 180 273 m 770 113 q 824 179 770 113 q 878 450 878 244 q 770 789 878 656 q 460 921 662 921 q 151 789 258 921 q 45 450 45 656 q 151 113 45 244 q 460 -18 258 -18 q 770 113 662 -18 z "},"P":{"ha":749,"x_min":45,"x_max":724,"o":"m 342 0 l 358 20 l 342 43 q 297 130 309 84 q 285 252 285 175 l 285 792 q 380 852 285 852 q 538 786 481 852 q 594 617 594 720 q 541 454 594 515 q 393 393 488 393 q 353 398 372 393 q 332 403 335 403 q 312 372 312 403 q 345 340 312 351 q 423 328 378 328 q 648 412 571 328 q 724 623 724 496 q 634 838 724 754 q 358 921 544 921 q 45 865 190 921 l 60 818 l 132 818 q 160 789 160 818 l 160 167 q 144 86 160 110 q 80 50 127 62 l 50 43 l 65 0 l 342 0 z "},"Q":{"ha":921,"x_min":45,"x_max":986,"o":"m 411 319 q 295 283 338 319 q 252 184 252 247 q 255 160 252 165 q 180 439 180 262 q 260 736 180 621 q 468 850 340 850 q 665 737 587 850 q 742 446 742 624 q 656 159 742 271 q 411 319 556 319 m 308 167 q 330 225 308 203 q 389 247 353 247 q 489 205 439 247 q 575 88 538 163 q 454 56 521 56 q 348 86 388 56 q 308 167 308 117 m 986 -175 q 974 -163 986 -163 q 950 -171 972 -163 q 905 -179 928 -179 q 773 -81 814 -179 l 709 58 q 878 450 878 184 q 765 794 878 667 q 460 921 652 921 q 157 794 269 921 q 45 450 45 667 q 156 109 45 235 q 460 -18 267 -18 q 613 5 544 -18 l 662 -100 q 868 -279 742 -279 q 951 -250 917 -279 q 986 -175 986 -220 z "},"R":{"ha":804,"x_min":19,"x_max":783,"o":"m 783 33 l 760 69 q 712 52 736 52 q 663 90 681 52 l 547 328 q 495 389 529 363 q 645 479 591 412 q 699 646 699 547 q 602 848 699 776 q 332 921 506 921 q 170 905 259 921 q 19 865 80 888 l 35 818 l 107 818 q 134 789 134 818 l 134 167 q 118 86 134 110 q 54 50 102 62 l 24 43 l 41 0 l 316 0 l 332 20 l 316 43 q 271 133 283 88 q 258 252 258 178 l 258 792 q 355 852 258 852 q 511 794 453 852 q 568 640 568 736 q 514 497 568 549 q 368 445 460 445 q 327 449 345 445 q 308 453 309 453 q 288 425 288 453 q 311 393 288 406 q 370 367 354 378 q 396 332 385 355 l 492 130 q 568 15 530 47 q 665 -18 606 -18 q 783 33 726 -18 z "},"S":{"ha":719,"x_min":56,"x_max":656,"o":"m 656 228 q 609 375 656 315 q 494 469 562 435 q 359 531 427 502 q 244 603 292 560 q 197 705 197 646 q 237 809 197 766 q 353 852 278 852 q 467 814 423 852 q 511 719 511 777 q 502 663 511 689 q 483 623 492 637 q 473 605 473 609 q 499 590 473 590 q 595 631 556 590 q 633 736 633 673 q 555 869 633 818 q 353 921 476 921 q 149 849 221 921 q 76 677 76 777 q 101 566 76 614 q 166 489 126 518 q 254 436 206 460 q 351 391 302 412 q 439 345 399 369 q 504 283 479 320 q 529 195 529 245 q 484 91 529 129 q 368 53 439 53 q 236 94 286 53 q 186 202 186 136 q 196 259 186 233 q 216 299 206 285 q 227 317 227 313 q 199 332 227 332 q 97 291 138 332 q 56 184 56 250 q 143 39 56 95 q 368 -18 231 -18 q 581 49 506 -18 q 656 228 656 115 z "},"T":{"ha":749,"x_min":24,"x_max":724,"o":"m 532 0 l 547 43 l 517 50 q 452 87 468 65 q 435 167 435 109 l 435 736 q 444 814 435 795 q 479 833 453 833 l 537 833 q 629 810 602 833 q 674 720 655 788 l 681 690 l 724 705 l 724 929 l 703 945 l 681 929 q 538 903 648 903 l 210 903 q 68 929 103 903 l 46 945 l 24 929 l 24 705 l 68 690 l 75 720 q 119 810 94 788 q 212 833 145 833 l 269 833 q 304 814 296 833 q 312 736 312 795 l 312 252 q 299 130 312 175 q 255 43 286 84 l 240 20 l 255 0 l 532 0 z "},"U":{"ha":929,"x_min":28,"x_max":868,"o":"m 795 275 l 795 651 q 852 860 795 787 l 868 883 l 852 903 l 613 903 l 597 860 l 627 853 q 691 817 675 840 q 707 736 707 793 l 707 275 q 644 119 707 176 q 487 62 582 62 q 328 119 391 62 q 264 275 264 176 l 264 651 q 320 860 264 785 l 336 883 l 320 903 l 46 903 l 28 860 l 60 853 q 124 817 109 840 q 140 736 140 793 l 140 275 q 231 55 140 127 q 471 -18 323 -18 q 705 56 616 -18 q 795 275 795 129 z "},"V":{"ha":859,"x_min":5,"x_max":840,"o":"m 507 0 l 750 735 q 819 860 773 802 l 840 883 l 822 903 l 583 903 l 568 860 l 597 853 q 655 768 652 841 q 631 652 655 728 l 453 106 l 250 736 q 235 798 235 784 q 293 853 235 841 l 320 860 l 307 903 l 22 903 l 5 883 q 75 819 50 849 q 119 730 99 788 l 365 0 l 507 0 z "},"W":{"ha":1367,"x_min":5,"x_max":1350,"o":"m 507 0 l 690 548 l 875 0 l 1019 0 l 1260 735 q 1331 860 1283 803 l 1350 883 l 1333 903 l 1093 903 l 1080 860 l 1107 853 q 1165 768 1162 841 q 1139 652 1165 726 l 964 106 l 758 736 q 745 798 745 780 q 800 853 745 842 l 830 860 l 815 903 l 533 903 l 515 883 q 586 818 562 849 q 629 730 610 787 l 640 690 l 453 106 l 250 736 q 235 798 235 784 q 293 853 235 841 l 320 860 l 307 903 l 22 903 l 5 883 q 75 819 50 849 q 119 730 99 788 l 365 0 l 507 0 z "},"X":{"ha":854,"x_min":14,"x_max":844,"o":"m 258 0 l 285 20 l 271 43 q 255 99 255 84 q 283 171 255 127 l 415 370 l 552 179 q 581 106 581 134 q 532 50 581 62 l 502 43 l 517 0 l 815 0 l 833 20 q 723 145 776 68 l 495 468 l 718 785 q 814 853 753 840 l 844 860 l 827 903 l 597 903 l 571 883 l 583 860 q 601 804 601 825 q 572 732 601 773 l 445 540 l 315 724 q 288 799 288 762 q 335 853 288 842 l 365 860 l 351 903 l 52 903 l 37 883 q 149 749 92 834 l 365 445 l 140 118 q 42 50 106 66 l 14 43 l 27 0 l 258 0 z "},"Y":{"ha":787,"x_min":5,"x_max":755,"o":"m 549 0 l 564 43 l 537 50 q 471 86 488 62 q 453 167 453 110 l 453 381 l 650 727 q 738 860 689 800 l 755 883 l 741 903 l 500 903 l 487 860 l 514 853 q 567 787 567 840 q 552 735 567 765 l 411 480 l 274 719 q 235 798 235 780 q 293 853 235 841 l 320 860 l 307 903 l 22 903 l 5 883 q 132 724 68 837 l 334 370 l 334 252 q 320 132 334 178 q 274 43 307 87 l 258 20 l 274 0 l 549 0 z "},"Z":{"ha":741,"x_min":24,"x_max":718,"o":"m 692 -18 l 692 198 l 650 212 l 640 183 q 596 94 623 115 q 503 72 570 72 l 221 72 l 718 903 l 258 903 q 114 929 149 903 l 91 945 l 72 929 l 72 705 l 114 690 l 122 720 q 166 810 140 788 q 258 833 193 833 l 525 833 l 24 0 l 605 0 q 656 -18 646 0 l 667 -31 l 692 -18 z "},"[":{"ha":537,"x_min":159,"x_max":453,"o":"m 453 -140 l 453 -80 l 353 -65 q 300 -46 316 -60 q 285 1 285 -33 l 285 833 q 300 879 285 865 q 353 899 316 892 l 453 913 l 453 974 l 159 974 l 159 -140 l 453 -140 z "},"\\":{"ha":515,"x_min":0,"x_max":468,"o":"m 468 -80 l 90 983 l 0 983 l 377 -80 l 468 -80 z "},"]":{"ha":537,"x_min":35,"x_max":330,"o":"m 330 -140 l 330 974 l 35 974 l 35 913 l 136 899 q 188 879 172 892 q 203 833 203 865 l 203 1 q 188 -46 203 -33 q 136 -65 172 -60 l 35 -80 l 35 -140 l 330 -140 z "},"^":{"ha":863,"x_min":121,"x_max":659,"o":"m 224 500 l 388 821 l 557 500 l 659 500 l 445 903 l 335 903 l 121 500 l 224 500 z "},"_":{"ha":494,"x_min":-33,"x_max":479,"o":"m 446 -107 q 479 -18 479 -81 l 0 -18 q -33 -107 -33 -46 l 446 -107 z "},"`":{"ha":400,"x_min":68,"x_max":317,"o":"m 317 760 l 121 956 q 68 876 68 930 q 138 787 68 821 l 281 718 l 317 760 z "},"a":{"ha":758,"x_min":56,"x_max":742,"o":"m 189 312 q 239 503 189 435 q 381 571 289 571 q 503 534 449 571 l 503 194 q 332 80 438 80 q 230 136 271 80 q 189 312 189 191 m 503 115 q 527 14 503 45 q 602 -18 551 -18 q 742 62 669 -18 l 718 95 q 655 72 686 72 q 616 111 616 72 l 616 521 q 632 571 616 543 l 650 594 l 633 610 q 510 627 595 613 q 382 640 425 640 q 144 546 232 640 q 56 289 56 452 q 122 62 56 142 q 283 -18 189 -18 q 503 115 411 -18 z "},"b":{"ha":741,"x_min":31,"x_max":685,"o":"m 685 336 q 610 555 685 471 q 419 640 536 640 q 292 606 349 640 q 279 582 279 597 q 286 564 279 572 q 298 556 292 556 q 323 564 300 556 q 378 571 347 571 q 505 500 457 571 q 552 312 552 429 q 503 123 552 193 q 369 53 453 53 q 239 94 293 53 l 239 944 q 228 974 239 963 q 198 985 217 985 q 114 963 161 985 q 31 909 66 941 l 43 876 l 98 876 q 122 849 122 876 l 122 62 q 359 -18 205 -18 q 592 83 499 -18 q 685 336 685 183 z "},"c":{"ha":639,"x_min":56,"x_max":590,"o":"m 587 87 q 590 98 590 88 q 580 121 590 110 q 559 133 570 133 q 547 130 549 133 q 381 66 471 66 q 239 135 292 66 q 187 320 187 203 q 231 505 187 435 q 347 575 275 575 q 434 546 401 575 q 467 468 467 517 q 458 414 467 437 q 443 379 450 391 q 435 363 435 368 q 458 351 435 351 q 547 385 513 351 q 582 473 582 419 q 520 593 582 547 q 361 640 458 640 q 139 551 222 640 q 56 311 56 461 q 142 75 56 168 q 361 -18 228 -18 q 587 87 495 -18 z "},"d":{"ha":758,"x_min":56,"x_max":742,"o":"m 189 312 q 239 503 189 435 q 381 571 289 571 q 503 534 449 571 l 503 194 q 332 80 438 80 q 230 136 271 80 q 189 312 189 191 m 503 115 q 527 14 503 45 q 602 -18 551 -18 q 742 62 669 -18 l 718 95 q 655 72 686 72 q 616 111 616 72 l 616 944 q 605 974 616 963 q 575 985 594 985 q 493 963 540 985 q 411 909 446 941 l 422 876 l 477 876 q 502 849 502 876 l 502 625 q 382 640 456 640 q 144 546 232 640 q 56 289 56 452 q 122 62 56 142 q 283 -18 189 -18 q 503 115 411 -18 z "},"e":{"ha":665,"x_min":56,"x_max":601,"o":"m 595 95 q 601 107 601 106 q 589 130 601 119 q 567 141 578 141 q 556 137 560 141 q 372 65 483 65 q 233 128 281 65 q 186 304 186 191 q 231 508 186 437 q 358 579 277 579 q 446 543 414 579 q 477 457 477 507 q 435 357 477 399 q 317 315 393 315 q 263 323 288 315 q 236 331 239 331 q 218 302 218 331 q 267 258 218 273 q 357 244 315 244 q 532 308 467 244 q 597 456 597 372 q 541 587 597 533 q 382 640 486 640 q 145 548 235 640 q 56 304 56 456 q 135 71 56 159 q 346 -18 214 -18 q 595 95 499 -18 z "},"f":{"ha":419,"x_min":-132,"x_max":559,"o":"m 250 -16 l 250 547 l 397 547 q 427 625 427 568 l 250 625 l 250 722 q 358 928 250 928 q 419 903 396 928 q 442 838 442 879 q 434 784 442 807 q 418 750 426 761 q 411 735 411 739 q 435 722 411 722 q 524 756 488 722 q 559 844 559 791 q 506 945 559 906 q 370 985 453 985 q 196 890 255 985 q 137 625 137 795 l 56 606 q 31 591 35 601 q 26 547 26 581 l 137 547 l 137 -114 q 112 -212 137 -179 q 49 -245 87 -245 q -1 -223 19 -245 q -20 -163 -20 -201 q -12 -117 -20 -137 q 6 -85 -3 -96 q 15 -72 15 -75 q -8 -58 15 -58 q -96 -91 -61 -58 q -132 -172 -132 -123 q -87 -265 -132 -231 q 23 -300 -43 -300 q 193 -224 136 -300 q 250 -16 250 -148 z "},"g":{"ha":757,"x_min":75,"x_max":667,"o":"m 206 312 q 258 503 206 435 q 401 571 309 571 q 522 534 468 571 l 522 231 q 353 115 458 115 q 248 163 289 115 q 206 312 206 212 m 635 -27 l 635 521 q 652 571 635 548 l 667 594 l 654 610 q 529 627 614 613 q 403 640 444 640 q 163 546 251 640 q 75 289 75 452 q 140 90 75 160 q 301 19 206 19 q 522 152 427 19 l 522 -47 q 486 -220 522 -156 q 372 -285 449 -285 q 292 -251 321 -285 q 263 -167 263 -217 q 278 -96 263 -126 q 309 -51 293 -66 q 324 -31 324 -35 q 301 -18 324 -18 q 182 -62 225 -18 q 140 -171 140 -107 q 196 -298 140 -244 q 357 -351 252 -351 q 561 -267 487 -351 q 635 -27 635 -182 z "},"h":{"ha":803,"x_min":45,"x_max":780,"o":"m 780 60 l 754 91 q 692 65 723 65 q 655 109 655 65 l 655 412 q 617 587 655 533 q 487 640 579 640 q 349 588 415 640 q 250 453 282 536 l 250 944 q 239 974 250 963 q 209 985 228 985 q 128 963 175 985 q 45 909 81 941 l 54 876 l 111 876 q 136 849 136 876 l 136 140 q 125 71 136 91 q 83 46 115 52 l 56 39 l 71 0 l 292 0 l 307 19 l 292 39 q 250 201 250 96 q 300 449 250 354 q 433 544 351 544 q 516 511 491 544 q 541 412 541 479 l 541 114 q 564 11 541 42 q 637 -20 586 -20 q 780 60 707 -20 z "},"i":{"ha":392,"x_min":45,"x_max":374,"o":"m 271 827 q 243 881 271 852 q 191 910 216 910 q 142 881 170 910 q 115 827 115 852 q 143 775 115 804 q 191 746 171 746 q 243 775 216 746 q 271 827 271 804 m 374 62 l 351 95 q 288 68 319 68 q 250 111 250 68 l 250 602 q 239 630 250 620 q 209 640 228 640 q 127 619 174 640 q 45 566 81 598 l 54 534 l 111 534 q 136 505 136 534 l 136 115 q 159 14 136 45 q 233 -18 182 -18 q 374 62 301 -18 z "},"j":{"ha":366,"x_min":-140,"x_max":266,"o":"m 266 827 q 237 881 266 852 q 186 910 209 910 q 137 881 164 910 q 110 827 110 852 q 137 775 110 804 q 186 746 164 746 q 237 775 209 746 q 266 827 266 804 m 244 -66 l 244 602 q 233 630 244 620 q 203 640 222 640 q 121 619 168 640 q 39 566 75 598 l 49 534 l 106 534 q 130 505 130 534 l 130 -164 q 105 -262 130 -228 q 42 -296 80 -296 q -7 -273 12 -296 q -27 -212 -27 -251 q -19 -165 -27 -186 q -2 -135 -11 -145 q 7 -122 7 -125 q -16 -109 7 -109 q -105 -141 -71 -109 q -140 -222 -140 -174 q -96 -316 -140 -281 q 16 -351 -52 -351 q 186 -275 129 -351 q 244 -66 244 -198 z "},"k":{"ha":734,"x_min":45,"x_max":709,"o":"m 709 62 l 682 95 q 616 62 654 62 q 563 98 582 62 l 467 285 q 603 351 553 294 q 652 477 652 407 q 607 593 652 547 q 479 640 562 640 q 346 588 410 640 q 250 453 282 536 l 250 944 q 239 974 250 963 q 209 985 228 985 q 128 963 175 985 q 45 909 81 941 l 54 876 l 111 876 q 136 849 136 876 l 136 140 q 125 71 136 91 q 83 46 115 52 l 56 39 l 71 0 l 292 0 l 307 19 l 292 39 q 250 201 250 92 q 304 458 250 361 q 453 556 359 556 q 516 530 494 556 q 538 467 538 505 q 500 376 538 416 q 393 335 461 335 q 340 341 363 335 q 313 347 316 347 q 294 323 294 347 q 317 297 294 302 l 330 293 l 423 115 q 456 57 445 75 q 485 18 467 39 q 524 -10 503 -3 q 574 -18 544 -18 q 709 62 651 -18 z "},"l":{"ha":378,"x_min":31,"x_max":361,"o":"m 361 62 l 336 95 q 274 68 308 68 q 236 111 236 68 l 239 944 q 228 974 239 963 q 198 985 217 985 q 114 963 161 985 q 31 909 66 941 l 43 876 l 98 876 q 122 849 122 876 l 122 115 q 145 14 122 45 q 221 -18 168 -18 q 361 62 290 -18 z "},"m":{"ha":1183,"x_min":50,"x_max":1158,"o":"m 1158 62 l 1134 95 q 1070 68 1103 68 q 1035 111 1035 68 l 1035 415 q 996 586 1035 532 q 873 640 958 640 q 742 588 806 640 q 646 453 678 536 q 601 595 640 551 q 484 640 562 640 q 352 588 415 640 q 256 453 289 536 l 256 590 q 245 618 256 608 q 217 629 235 629 q 134 608 182 629 q 50 555 87 587 l 62 521 l 117 521 q 141 494 141 521 l 141 140 q 131 71 141 91 q 88 46 121 52 l 64 39 l 76 0 l 297 0 l 312 19 l 297 39 q 256 201 256 96 q 307 449 256 354 q 438 544 357 544 q 533 415 533 544 l 533 0 l 685 0 l 700 19 q 656 98 667 58 q 646 201 646 137 l 646 217 q 699 454 648 363 q 827 544 749 544 q 921 415 921 544 l 921 115 q 943 13 921 43 q 1019 -18 966 -18 q 1158 62 1085 -18 z "},"n":{"ha":808,"x_min":50,"x_max":785,"o":"m 785 62 l 761 95 q 699 68 730 68 q 661 111 661 68 l 661 415 q 620 586 661 532 q 492 640 579 640 q 355 588 420 640 q 256 453 289 536 l 256 590 q 245 618 256 608 q 217 629 235 629 q 134 608 182 629 q 50 555 87 587 l 62 521 l 117 521 q 141 494 141 521 l 141 140 q 131 71 141 91 q 88 46 121 52 l 64 39 l 76 0 l 297 0 l 312 19 l 297 39 q 256 201 256 96 q 307 449 256 354 q 438 544 357 544 q 547 415 547 544 l 547 115 q 569 13 547 43 q 643 -18 591 -18 q 785 62 715 -18 z "},"o":{"ha":727,"x_min":56,"x_max":671,"o":"m 234 121 q 211 156 234 121 q 187 311 187 191 q 237 503 187 430 q 368 575 286 575 q 470 528 429 575 q 525 425 511 481 q 538 309 538 369 q 489 121 538 193 q 361 50 439 50 q 234 121 281 50 m 588 72 q 630 117 588 72 q 671 312 671 161 q 588 551 671 463 q 363 640 505 640 q 139 552 222 640 q 56 312 56 464 q 139 72 56 161 q 363 -18 222 -18 q 588 72 505 -18 z "},"p":{"ha":749,"x_min":39,"x_max":692,"o":"m 309 -334 l 321 -296 l 296 -290 q 253 -264 263 -283 q 243 -195 243 -244 l 243 510 q 384 559 305 559 q 511 490 463 559 q 559 312 559 422 q 511 124 559 198 q 385 50 463 50 q 326 60 353 50 q 297 71 298 71 q 278 39 278 71 q 290 16 278 23 q 415 -18 342 -18 q 613 83 534 -18 q 692 336 692 184 q 616 555 692 471 q 425 640 541 640 q 243 563 323 640 l 243 568 q 212 627 243 627 q 115 610 171 627 q 39 575 58 593 l 39 536 l 104 521 q 130 479 130 514 l 130 -133 q 88 -296 130 -237 l 73 -316 l 88 -334 l 309 -334 z "},"q":{"ha":741,"x_min":56,"x_max":662,"o":"m 189 312 q 239 503 189 435 q 381 571 289 571 q 503 534 449 571 l 503 194 q 332 80 438 80 q 230 136 271 80 q 189 312 189 191 m 648 -334 l 662 -316 l 650 -296 q 618 -148 618 -251 l 618 521 q 635 571 618 538 l 651 594 l 636 610 q 512 627 600 613 q 382 640 425 640 q 144 546 232 640 q 56 289 56 452 q 122 62 56 142 q 283 -18 189 -18 q 503 115 411 -18 l 503 -183 q 492 -243 503 -224 q 452 -274 481 -262 l 412 -293 l 412 -334 l 648 -334 z "},"r":{"ha":549,"x_min":50,"x_max":549,"o":"m 297 0 l 312 19 l 297 39 q 256 197 256 95 q 271 362 256 290 q 307 473 285 434 q 352 530 330 511 q 396 549 374 549 q 426 536 415 549 q 437 500 437 522 q 420 444 437 472 q 403 414 403 415 q 427 401 403 401 q 515 433 480 401 q 549 513 549 465 q 515 606 549 572 q 429 640 481 640 q 331 589 376 640 q 264 453 286 537 l 256 453 l 256 590 q 245 618 256 608 q 217 629 235 629 q 134 608 182 629 q 50 555 87 587 l 62 521 l 117 521 q 141 494 141 521 l 141 140 q 131 71 141 91 q 88 46 121 52 l 64 39 l 76 0 l 297 0 z "},"s":{"ha":605,"x_min":68,"x_max":537,"o":"m 537 172 q 524 227 537 201 q 496 269 511 252 q 448 304 480 285 q 397 332 416 323 q 340 357 378 340 q 230 413 269 384 q 191 490 191 442 q 221 555 191 530 q 302 581 251 581 q 375 558 343 581 q 407 490 407 536 q 397 446 407 467 q 387 420 387 425 q 414 403 387 403 q 490 434 460 403 q 519 513 519 465 q 461 606 519 572 q 312 640 403 640 q 148 593 213 640 q 83 472 83 547 q 100 396 83 430 q 151 337 117 362 q 213 298 186 312 q 285 266 240 285 q 353 234 328 247 q 400 197 378 221 q 422 145 422 174 q 389 73 422 100 q 302 45 355 45 q 220 72 256 45 q 183 152 183 99 q 191 199 183 176 q 199 224 199 221 q 174 239 199 239 q 98 210 127 239 q 68 140 68 182 q 130 26 68 69 q 288 -18 193 -18 q 469 34 400 -18 q 537 172 537 85 z "},"t":{"ha":427,"x_min":14,"x_max":403,"o":"m 396 76 l 372 110 q 288 69 327 69 q 251 85 262 69 q 240 140 240 100 l 240 547 l 374 547 q 403 625 403 568 l 240 625 l 240 795 q 193 790 203 795 q 180 765 183 785 q 138 662 167 701 q 45 606 110 623 q 19 591 24 601 q 14 547 14 581 l 123 547 l 123 104 q 153 15 123 47 q 233 -18 182 -18 q 318 8 273 -18 q 396 76 363 34 z "},"u":{"ha":795,"x_min":39,"x_max":770,"o":"m 536 104 q 558 12 536 41 q 631 -18 581 -18 q 770 62 705 -18 l 746 95 q 684 72 718 72 q 650 111 650 72 l 650 640 l 495 625 l 479 606 l 495 587 q 534 486 524 537 q 544 342 544 434 q 496 140 544 213 q 365 66 449 66 q 244 221 244 66 l 244 602 q 233 630 244 620 q 203 640 222 640 q 117 619 164 640 q 39 566 71 598 l 49 534 l 106 534 q 130 505 130 534 l 130 190 q 180 37 130 91 q 321 -18 231 -18 q 448 16 391 -18 q 536 104 506 49 z "},"v":{"ha":694,"x_min":0,"x_max":614,"o":"m 614 507 q 608 640 614 566 l 457 624 l 444 608 l 454 589 q 511 369 511 500 q 471 153 511 243 q 353 64 431 64 q 289 98 312 64 q 255 208 266 132 l 199 602 q 159 640 193 640 q 79 619 123 640 q 0 566 34 598 l 12 534 l 66 534 q 83 528 79 534 q 91 505 88 522 l 132 240 q 196 39 152 95 q 336 -18 240 -18 q 533 121 452 -18 q 614 507 614 260 z "},"w":{"ha":1023,"x_min":0,"x_max":947,"o":"m 522 140 q 587 18 545 54 q 700 -18 628 -18 q 875 121 803 -18 q 947 507 947 260 q 941 640 947 551 l 793 625 l 780 609 l 792 590 q 848 370 848 498 q 809 156 848 248 q 709 64 770 64 q 643 97 666 64 q 609 208 620 130 l 582 385 q 590 507 590 444 q 582 640 590 572 l 435 625 l 420 609 l 433 590 q 488 370 488 500 q 451 156 488 248 q 353 64 414 64 q 289 98 312 64 q 255 208 266 132 l 199 602 q 159 640 193 640 q 79 619 123 640 q 0 566 34 598 l 12 534 l 66 534 q 83 528 79 534 q 91 505 88 522 l 132 240 q 196 39 152 95 q 336 -18 240 -18 q 522 140 454 -18 z "},"x":{"ha":694,"x_min":24,"x_max":671,"o":"m 671 41 l 642 77 q 595 62 618 62 q 543 98 563 62 l 403 335 q 662 600 467 404 l 650 625 l 453 625 l 437 606 l 464 587 q 487 547 487 564 q 376 382 487 507 l 275 555 q 141 640 229 640 q 24 583 77 640 l 53 547 q 100 563 83 563 q 153 528 132 563 l 292 292 q 28 26 175 168 l 45 0 l 240 0 l 254 19 l 231 39 q 206 80 206 60 q 317 244 206 119 l 420 71 q 555 -18 468 -18 q 671 41 614 -18 z "},"y":{"ha":765,"x_min":39,"x_max":646,"o":"m 646 -27 l 646 642 l 492 627 l 477 608 l 492 589 q 533 496 525 547 q 541 343 541 446 q 494 167 541 229 q 362 104 446 104 q 244 256 244 104 l 244 604 q 233 631 244 621 q 203 642 222 642 q 117 621 164 642 q 39 567 71 600 l 49 536 l 106 536 q 130 506 130 536 l 130 228 q 180 74 130 129 q 319 19 229 19 q 447 51 389 19 q 534 138 505 83 l 534 -47 q 497 -220 534 -156 q 382 -285 460 -285 q 302 -251 332 -285 q 273 -167 273 -217 q 288 -96 273 -126 q 318 -51 302 -66 q 334 -31 334 -35 q 311 -18 334 -18 q 193 -62 236 -18 q 151 -171 151 -107 q 208 -297 151 -243 q 366 -351 264 -351 q 571 -267 496 -351 q 646 -27 646 -182 z "},"z":{"ha":602,"x_min":42,"x_max":562,"o":"m 543 -15 l 543 179 l 503 191 l 488 126 q 462 83 483 95 q 393 72 441 72 l 197 72 l 528 551 l 562 571 q 537 625 562 605 l 224 625 q 72 656 118 625 l 58 639 l 58 446 l 98 433 l 113 499 q 138 542 119 532 q 206 552 157 552 l 393 552 l 42 39 l 54 0 l 377 0 q 528 -28 480 0 l 543 -15 z "},"{":{"ha":439,"x_min":0,"x_max":363,"o":"m 363 -84 q 267 9 298 -69 q 235 201 235 87 q 98 416 235 389 q 235 631 235 446 q 267 825 235 746 q 363 918 298 903 l 355 974 q 159 865 221 958 q 96 631 96 772 q 75 492 96 533 q 0 439 54 450 l 0 392 q 75 340 54 381 q 96 201 96 298 q 121 40 96 110 q 205 -79 145 -30 q 355 -140 264 -129 l 363 -84 z "},"|":{"ha":487,"x_min":159,"x_max":285,"o":"m 285 -104 l 285 936 l 159 936 l 159 -104 l 285 -104 z "},"}":{"ha":439,"x_min":33,"x_max":397,"o":"m 300 201 q 321 340 300 298 q 397 392 343 381 l 397 439 q 321 492 343 450 q 300 631 300 533 q 238 865 300 772 q 42 974 176 958 l 33 918 q 130 825 98 903 q 161 631 161 746 q 298 416 161 446 q 161 201 161 389 q 130 9 161 87 q 33 -84 98 -69 l 42 -140 q 192 -79 133 -129 q 275 40 251 -30 q 300 201 300 110 z "},"~":{"ha":863,"x_min":123,"x_max":656,"o":"m 529 446 q 656 406 597 446 l 656 500 q 536 541 606 541 q 393 500 481 541 q 251 460 304 460 q 123 500 186 460 l 123 406 q 247 365 174 365 q 389 406 301 365 q 529 446 477 446 z "}," ":{"ha":429,"x_min":0,"x_max":0,"o":""},"¡":{"ha":308,"x_min":75,"x_max":233,"o":"m 231 562 q 203 613 231 585 q 153 642 176 642 q 102 613 130 642 q 75 562 75 585 q 102 507 75 536 q 153 477 130 477 q 203 507 176 477 q 231 562 231 536 m 233 -309 q 186 319 233 -170 q 153 376 179 376 q 122 319 127 376 q 75 -309 75 -170 q 153 -340 104 -340 q 233 -309 203 -340 z "},"¢":{"ha":675,"x_min":54,"x_max":581,"o":"m 378 -73 l 378 126 q 568 228 491 138 q 571 240 571 231 q 562 263 571 252 q 541 274 552 274 q 529 270 533 274 q 365 206 453 206 q 233 273 282 206 q 184 453 184 340 q 229 644 184 571 q 345 718 273 718 q 431 688 399 718 q 464 608 464 658 q 456 554 464 578 q 440 519 448 530 q 433 503 433 507 q 456 491 433 491 q 546 526 511 491 q 581 614 581 560 q 524 731 581 684 q 378 783 467 779 l 378 1009 q 300 978 324 1009 l 300 777 q 120 669 186 757 q 54 450 54 582 q 121 231 54 319 q 300 126 189 142 l 300 -106 q 378 -73 357 -106 z "},"£":{"ha":749,"x_min":39,"x_max":699,"o":"m 656 0 q 699 114 699 34 l 199 114 q 290 380 290 232 l 526 380 q 556 458 556 404 l 283 458 q 258 624 258 572 q 429 852 258 852 q 520 821 481 852 q 559 739 559 791 q 549 685 559 709 q 530 647 540 661 q 521 631 521 633 q 526 617 521 620 q 547 614 532 614 q 643 653 604 614 q 682 749 682 692 q 608 876 682 830 q 429 921 533 921 q 199 844 274 921 q 123 642 123 768 q 160 458 123 591 l 66 458 q 39 380 39 438 l 179 380 q 184 311 184 334 q 146 172 184 243 q 39 54 107 100 l 71 0 l 656 0 z "},"¤":{"ha":800,"x_min":39,"x_max":762,"o":"m 264 452 q 303 602 264 547 q 406 656 342 656 q 498 604 464 656 q 532 458 532 552 q 492 309 532 363 q 389 255 453 255 q 298 307 331 255 q 264 452 264 358 m 239 236 q 397 187 305 187 q 563 240 498 187 l 686 114 q 762 149 724 114 l 614 298 q 656 454 656 373 q 614 613 656 538 l 742 742 q 707 817 742 785 l 563 673 q 397 724 491 724 q 236 674 305 724 l 114 798 q 39 764 69 798 l 183 616 q 140 454 140 543 q 183 293 140 366 l 60 168 q 95 94 60 126 l 239 236 z "},"¥":{"ha":787,"x_min":18,"x_max":768,"o":"m 562 0 l 575 43 l 548 50 q 482 86 499 62 q 465 167 465 110 l 465 293 l 699 293 q 728 372 728 316 l 465 372 l 465 381 l 529 496 l 699 496 q 728 575 728 519 l 574 575 l 661 727 q 749 860 700 800 l 768 883 l 751 903 l 513 903 l 498 860 l 525 853 q 563 830 547 848 q 579 787 579 812 q 564 735 579 765 l 423 480 l 286 719 q 247 798 247 780 q 304 853 247 842 l 332 860 l 317 903 l 33 903 l 18 883 q 81 821 56 854 q 142 724 106 788 l 228 575 l 113 575 q 83 496 83 555 l 273 496 l 343 372 l 113 372 q 83 293 83 351 l 345 293 l 345 252 q 331 131 345 176 q 286 43 317 85 l 270 20 l 286 0 l 562 0 z "},"¦":{"ha":441,"x_min":159,"x_max":285,"o":"m 285 570 l 285 936 l 159 936 l 159 570 l 285 570 m 285 -104 l 285 264 l 159 264 l 159 -104 l 285 -104 z "},"§":{"ha":552,"x_min":43,"x_max":510,"o":"m 403 279 q 292 515 403 382 q 201 644 227 594 q 175 741 175 694 q 210 830 175 798 q 297 863 244 863 q 365 838 338 863 q 392 774 392 812 q 385 720 392 743 q 370 686 377 697 q 362 671 362 675 q 385 656 362 656 q 474 692 438 656 q 510 781 510 727 q 457 881 510 842 q 321 920 404 920 q 146 852 202 920 q 90 690 90 785 q 199 448 90 581 l 392 217 q 403 279 403 258 m 464 -94 q 354 149 464 18 l 160 382 q 151 317 151 353 q 262 81 151 216 q 353 -45 327 5 q 378 -141 378 -95 q 343 -233 378 -199 q 255 -266 308 -266 q 187 -241 214 -266 q 160 -176 160 -217 q 168 -123 160 -146 q 182 -87 175 -99 q 190 -72 190 -76 q 165 -60 190 -60 q 78 -94 113 -60 q 43 -182 43 -129 q 96 -283 43 -244 q 231 -321 148 -321 q 407 -254 350 -321 q 464 -94 464 -186 z "},"¨":{"ha":529,"x_min":68,"x_max":464,"o":"m 225 827 q 196 881 225 852 q 144 910 167 910 q 94 881 121 910 q 68 827 68 852 q 95 775 68 804 q 144 746 122 746 q 196 775 167 746 q 225 827 225 804 m 464 827 q 435 881 464 852 q 382 910 406 910 q 333 881 359 910 q 307 827 307 852 q 334 775 307 804 q 382 746 361 746 q 435 775 406 746 q 464 827 464 804 z "},"©":{"ha":978,"x_min":126,"x_max":853,"o":"m 159 627 q 256 861 159 764 q 490 958 353 958 q 723 861 627 958 q 819 627 819 764 q 723 393 819 490 q 490 296 627 296 q 256 393 353 296 q 159 627 159 491 m 661 471 l 628 498 q 499 430 585 430 q 397 487 435 430 q 359 631 359 544 q 392 777 359 716 q 495 838 425 838 q 590 788 551 838 l 606 723 q 650 741 639 723 l 650 876 l 617 876 l 606 854 q 495 884 559 884 q 329 812 387 884 q 271 631 271 741 q 329 448 271 519 q 495 376 387 376 q 661 471 598 376 m 747 370 q 800 424 747 370 q 853 627 853 477 q 747 883 853 776 q 490 990 640 990 q 233 883 340 990 q 126 627 126 776 q 233 370 126 477 q 490 263 340 263 q 747 370 640 263 z "},"ª":{"ha":500,"x_min":56,"x_max":488,"o":"m 159 581 q 258 656 159 656 q 308 652 298 656 q 281 559 307 595 q 217 522 256 522 q 159 581 159 522 m 309 521 q 381 453 317 453 q 488 514 427 453 l 465 547 q 420 529 435 529 q 403 549 403 529 l 403 758 q 366 881 403 842 q 247 920 328 920 q 130 884 179 920 q 80 800 80 849 q 94 765 80 779 q 129 751 109 751 q 179 772 159 751 q 247 867 179 867 q 308 774 308 867 l 308 701 q 240 707 282 707 q 105 670 155 707 q 56 568 56 633 q 91 486 56 518 q 179 453 126 453 q 309 521 266 453 z "},"«":{"ha":636,"x_min":64,"x_max":572,"o":"m 311 148 q 138 353 282 199 q 311 555 283 505 q 202 612 270 606 q 91 423 118 473 q 64 353 64 373 q 191 109 64 319 q 202 90 198 96 q 311 148 271 98 m 572 148 q 403 353 541 206 q 572 555 543 498 q 467 612 533 606 q 353 422 380 471 q 326 353 326 373 q 446 123 326 320 q 467 90 460 102 q 572 148 534 99 z "},"¬":{"ha":781,"x_min":123,"x_max":656,"o":"m 656 210 l 656 496 l 123 496 l 123 403 l 571 403 l 571 210 l 656 210 z "},"®":{"ha":978,"x_min":126,"x_max":853,"o":"m 429 806 q 464 826 429 826 q 567 738 567 826 q 543 664 567 693 q 468 635 518 635 l 429 635 l 429 806 m 452 384 q 471 426 471 397 l 429 438 l 429 590 l 467 590 q 510 563 498 590 l 568 450 q 572 441 570 446 q 576 434 575 437 q 578 429 578 431 q 571 406 578 426 l 566 396 l 578 384 l 686 384 q 703 422 703 395 l 665 435 l 589 578 q 582 587 586 582 q 572 599 578 593 q 563 608 566 605 q 631 663 608 627 q 654 742 654 700 q 608 839 654 802 q 464 876 563 876 l 324 876 q 307 836 307 865 l 347 819 l 347 450 q 335 430 347 437 l 307 414 l 307 384 l 452 384 m 159 627 q 256 861 159 764 q 490 958 353 958 q 723 861 627 958 q 819 627 819 764 q 723 393 819 490 q 490 296 627 296 q 256 393 353 296 q 159 627 159 491 m 747 370 q 800 424 747 370 q 853 627 853 477 q 747 883 853 776 q 490 990 640 990 q 233 883 340 990 q 126 627 126 776 q 233 370 126 477 q 490 263 340 263 q 747 370 640 263 z "},"¯":{"ha":511,"x_min":71,"x_max":442,"o":"m 410 776 q 442 876 442 804 l 104 876 q 71 776 71 848 l 410 776 z "},"°":{"ha":547,"x_min":50,"x_max":496,"o":"m 157 682 q 191 812 157 765 q 279 860 225 860 q 359 817 330 860 q 388 690 388 773 q 354 561 388 609 q 267 513 320 513 q 186 557 216 513 q 157 682 157 601 m 436 517 q 466 549 436 517 q 496 686 496 581 q 436 856 496 792 q 273 920 376 920 q 111 856 171 920 q 50 686 50 792 q 111 517 50 581 q 273 453 171 453 q 436 517 376 453 z "},"±":{"ha":781,"x_min":123,"x_max":656,"o":"m 656 0 l 656 94 l 123 94 l 123 0 l 656 0 m 437 183 l 437 403 l 656 403 l 656 496 l 437 496 l 437 718 l 343 718 l 343 496 l 123 496 l 123 403 l 343 403 l 343 183 l 437 183 z "},"²":{"ha":487,"x_min":35,"x_max":446,"o":"m 414 362 q 446 448 446 389 l 179 448 q 365 624 298 545 q 431 773 431 703 q 380 882 431 844 q 239 921 328 921 q 107 884 161 921 q 53 783 53 848 q 79 720 53 745 q 145 696 106 696 q 175 709 175 696 q 163 738 175 715 q 152 777 152 761 q 177 839 152 817 q 236 861 202 861 q 294 839 270 861 q 319 774 319 817 q 263 627 319 703 q 35 410 208 551 l 58 362 l 414 362 z "},"³":{"ha":487,"x_min":49,"x_max":435,"o":"m 435 507 q 406 595 435 556 q 324 654 377 635 q 420 784 420 696 q 364 885 420 849 q 233 921 308 921 q 113 889 163 921 q 64 799 64 857 q 90 739 64 762 q 157 715 117 715 q 184 731 184 715 q 178 745 180 741 q 164 795 164 772 q 184 845 164 827 q 232 863 203 863 q 288 842 264 863 q 312 783 312 821 q 182 663 312 688 q 139 651 146 658 q 132 629 132 644 q 156 609 132 609 q 165 610 164 609 q 217 616 203 616 q 287 597 260 616 q 319 557 313 578 q 326 513 326 537 q 298 441 326 467 q 233 416 271 416 q 174 436 199 416 q 149 488 149 456 q 164 537 149 507 q 172 551 168 551 q 166 566 172 563 q 141 568 160 568 q 75 544 102 568 q 49 481 49 519 q 103 387 49 420 q 233 354 157 354 q 381 394 327 354 q 435 507 435 434 z "},"´":{"ha":362,"x_min":80,"x_max":328,"o":"m 258 787 q 328 876 328 821 q 274 956 328 929 l 80 760 l 115 718 l 258 787 z "},"µ":{"ha":773,"x_min":27,"x_max":642,"o":"m 233 24 q 343 -18 277 -18 q 450 17 399 -18 q 529 104 502 52 q 628 -18 529 -18 l 642 0 l 642 627 l 513 610 l 496 594 l 513 571 q 529 514 529 547 l 529 275 q 481 125 529 184 q 361 66 434 66 q 233 221 233 66 l 233 568 q 203 627 233 627 q 106 610 164 627 q 27 575 49 593 l 27 536 l 94 521 q 121 479 121 514 l 121 -142 q 104 -206 121 -183 l 88 -231 l 104 -247 l 233 -263 l 233 24 z "},"¶":{"ha":776,"x_min":84,"x_max":650,"o":"m 308 450 q 182 715 182 597 q 221 815 182 779 q 313 852 260 852 q 454 791 407 852 q 500 625 500 730 l 500 227 l 308 450 m 616 -24 l 616 800 q 632 850 616 821 l 650 872 l 633 887 q 509 905 606 890 q 351 921 412 921 q 159 854 233 921 q 84 681 84 788 q 217 382 84 537 l 416 149 q 534 -73 534 14 q 499 -165 534 -132 q 411 -198 464 -198 q 342 -174 369 -198 q 315 -109 315 -149 q 322 -55 315 -79 q 337 -20 330 -31 q 345 -4 345 -8 q 320 8 345 8 q 233 -26 267 8 q 198 -114 198 -60 q 250 -215 198 -176 q 385 -254 302 -254 q 560 -186 505 -254 q 616 -24 616 -118 z "},"·":{"ha":240,"x_min":42,"x_max":198,"o":"m 198 404 q 170 459 198 430 q 118 488 141 488 q 68 459 95 488 q 42 404 42 430 q 69 352 42 381 q 118 323 96 323 q 170 352 141 323 q 198 404 198 381 z "},"¸":{"ha":439,"x_min":69,"x_max":377,"o":"m 377 -225 q 336 -120 377 -157 q 235 -83 294 -83 q 187 -88 209 -83 l 286 39 l 235 39 l 107 -129 l 132 -151 q 199 -130 167 -130 q 262 -157 240 -130 q 285 -224 285 -184 q 263 -289 285 -260 q 205 -317 241 -317 q 169 -304 184 -317 q 153 -269 153 -290 q 163 -231 153 -247 q 172 -213 172 -216 q 149 -201 172 -201 q 93 -221 117 -201 q 69 -274 69 -241 q 110 -345 69 -319 q 206 -370 151 -370 q 328 -328 279 -370 q 377 -225 377 -286 z "},"¹":{"ha":401,"x_min":18,"x_max":308,"o":"m 292 370 l 308 391 l 293 410 q 262 529 262 444 l 262 872 l 285 884 q 239 925 264 918 l 18 823 q 88 760 43 769 l 163 807 l 163 477 q 155 437 163 448 q 123 422 148 427 l 81 410 l 96 370 l 292 370 z "},"º":{"ha":547,"x_min":50,"x_max":496,"o":"m 157 686 q 186 815 157 768 q 266 863 216 863 q 354 812 320 863 q 388 680 388 761 q 359 557 388 602 q 279 513 330 513 q 191 560 225 513 q 157 686 157 608 m 436 517 q 466 549 436 517 q 496 686 496 581 q 436 856 496 792 q 273 920 376 920 q 111 856 171 920 q 50 686 50 792 q 111 517 50 581 q 273 453 171 453 q 436 517 376 453 z "},"»":{"ha":636,"x_min":64,"x_max":572,"o":"m 311 353 q 283 423 311 373 q 172 612 256 473 q 64 555 104 606 q 235 353 90 505 q 64 148 91 199 q 172 90 103 98 q 307 328 293 290 q 311 353 311 342 m 572 353 q 434 612 572 387 q 326 555 366 606 q 498 353 353 505 q 326 148 354 199 q 434 90 365 99 q 545 277 517 225 q 572 353 572 328 z "},"¼":{"ha":1280,"x_min":98,"x_max":1152,"o":"m 1111 0 l 1126 20 l 1112 39 q 1082 119 1088 65 l 1126 119 q 1152 183 1152 140 l 1082 183 l 1082 372 l 979 361 l 963 343 q 981 275 981 319 l 981 183 l 822 183 l 979 529 l 956 548 l 894 548 l 715 119 l 981 119 l 981 107 q 974 66 981 77 q 944 50 967 56 l 901 39 l 917 0 l 1111 0 m 372 370 l 388 391 l 374 410 q 342 529 342 446 l 342 872 l 365 884 q 319 925 345 918 l 98 823 q 168 760 123 769 l 244 807 l 244 477 q 237 437 244 448 q 205 422 229 427 l 161 410 l 178 370 l 372 370 m 457 0 l 837 903 l 746 903 l 369 0 l 457 0 z "},"½":{"ha":1280,"x_min":98,"x_max":1142,"o":"m 1109 0 q 1142 85 1142 27 l 875 85 q 1061 262 994 183 q 1127 411 1127 340 q 1075 520 1127 481 q 933 559 1023 559 q 803 522 857 559 q 749 420 749 486 q 775 358 749 382 q 841 334 802 334 q 871 347 871 334 q 859 376 871 353 q 848 415 848 399 q 873 477 848 454 q 932 499 898 499 q 990 477 966 499 q 1015 412 1015 454 q 958 264 1015 340 q 730 47 902 189 l 753 0 l 1109 0 m 372 370 l 388 391 l 374 410 q 342 529 342 446 l 342 872 l 365 884 q 319 925 345 918 l 98 823 q 168 760 123 769 l 244 807 l 244 477 q 237 437 244 448 q 205 422 229 427 l 161 410 l 178 370 l 372 370 m 433 0 l 812 903 l 722 903 l 345 0 l 433 0 z "},"¾":{"ha":1280,"x_min":90,"x_max":1152,"o":"m 1111 0 l 1126 20 l 1112 39 q 1082 119 1088 65 l 1126 119 q 1152 183 1152 140 l 1082 183 l 1082 372 l 979 361 l 963 343 q 981 275 981 319 l 981 183 l 822 183 l 979 529 l 956 548 l 894 548 l 715 119 l 981 119 l 981 107 q 974 66 981 77 q 944 50 967 56 l 901 39 l 917 0 l 1111 0 m 476 507 q 447 595 476 556 q 365 654 418 635 q 460 784 460 696 q 404 885 460 849 q 274 921 349 921 q 154 889 203 921 q 104 799 104 857 q 131 739 104 762 q 198 715 157 715 q 225 731 225 715 q 218 745 221 741 q 205 795 205 772 q 224 845 205 827 q 273 863 244 863 q 329 842 305 863 q 353 783 353 821 q 222 663 353 688 q 180 651 187 658 q 172 629 172 644 q 197 609 172 609 q 206 610 205 609 q 256 616 244 616 q 342 584 319 616 q 366 513 366 552 q 339 441 366 467 q 274 416 312 416 q 214 436 240 416 q 189 488 189 456 q 205 537 189 505 q 212 551 209 551 q 206 566 212 563 q 182 568 201 568 q 116 544 142 568 q 90 481 90 519 q 144 387 90 420 q 274 354 198 354 q 422 394 368 354 q 476 507 476 434 m 496 0 l 876 903 l 785 903 l 408 0 l 496 0 z "},"¿":{"ha":675,"x_min":80,"x_max":613,"o":"m 460 562 q 433 613 460 585 q 384 642 406 642 q 332 613 361 642 q 304 562 304 585 q 332 507 304 536 q 384 477 359 477 q 433 507 407 477 q 460 562 460 536 m 613 -156 q 578 -66 613 -102 q 490 -31 544 -31 q 467 -46 467 -31 q 473 -62 467 -50 q 488 -96 480 -73 q 495 -151 495 -119 q 463 -229 495 -201 q 377 -258 431 -258 q 265 -218 307 -258 q 224 -103 224 -179 q 272 60 224 -24 q 471 274 320 145 l 392 354 l 368 354 l 362 330 q 329 267 351 294 q 256 194 307 240 q 80 -110 80 22 q 157 -271 80 -212 q 347 -331 233 -331 q 538 -282 464 -331 q 613 -156 613 -233 z "},"À":{"ha":887,"x_min":-20,"x_max":875,"o":"m 568 1038 l 372 1236 q 319 1154 319 1210 q 389 1065 319 1099 l 533 996 l 568 1038 m 425 774 l 545 422 l 308 422 l 425 774 m 227 0 l 250 20 l 240 43 q 222 119 222 73 q 250 251 222 165 l 281 343 l 571 343 l 631 167 q 646 107 646 117 q 590 50 646 64 l 560 43 l 574 0 l 859 0 l 875 20 q 805 85 829 56 q 761 175 781 115 l 507 903 l 266 903 l 250 860 l 279 853 q 335 798 335 841 q 321 736 335 780 l 123 167 q 82 87 104 109 q 8 50 60 65 l -20 43 l -4 0 l 227 0 z "},"Á":{"ha":887,"x_min":-20,"x_max":875,"o":"m 499 1065 q 568 1154 568 1099 q 515 1236 568 1210 l 320 1038 l 357 996 l 499 1065 m 425 774 l 545 422 l 308 422 l 425 774 m 227 0 l 250 20 l 240 43 q 222 119 222 73 q 250 251 222 165 l 281 343 l 571 343 l 631 167 q 646 107 646 117 q 590 50 646 64 l 560 43 l 574 0 l 859 0 l 875 20 q 805 85 829 56 q 761 175 781 115 l 507 903 l 266 903 l 250 860 l 279 853 q 335 798 335 841 q 321 736 335 780 l 123 167 q 82 87 104 109 q 8 50 60 65 l -20 43 l -4 0 l 227 0 z "},"Â":{"ha":887,"x_min":-20,"x_max":875,"o":"m 444 1099 l 575 996 l 616 1029 q 530 1156 576 1099 q 460 1227 483 1214 l 427 1227 q 356 1156 401 1213 q 271 1029 311 1099 l 313 996 l 444 1099 m 425 774 l 545 422 l 308 422 l 425 774 m 227 0 l 250 20 l 240 43 q 222 119 222 73 q 250 251 222 165 l 281 343 l 571 343 l 631 167 q 646 107 646 117 q 590 50 646 64 l 560 43 l 574 0 l 859 0 l 875 20 q 805 85 829 56 q 761 175 781 115 l 507 903 l 266 903 l 250 860 l 279 853 q 335 798 335 841 q 321 736 335 780 l 123 167 q 82 87 104 109 q 8 50 60 65 l -20 43 l -4 0 l 227 0 z "},"Ã":{"ha":887,"x_min":-20,"x_max":875,"o":"m 366 1070 q 420 1048 384 1070 q 487 1027 456 1027 q 565 1060 522 1027 q 647 1149 608 1093 l 605 1190 q 518 1138 552 1138 q 465 1160 500 1138 q 400 1183 429 1183 q 239 1062 328 1183 l 283 1021 q 366 1070 328 1070 m 425 774 l 545 422 l 308 422 l 425 774 m 227 0 l 250 20 l 240 43 q 222 119 222 73 q 250 251 222 165 l 281 343 l 571 343 l 631 167 q 646 107 646 117 q 590 50 646 64 l 560 43 l 574 0 l 859 0 l 875 20 q 805 85 829 56 q 761 175 781 115 l 507 903 l 266 903 l 250 860 l 279 853 q 335 798 335 841 q 321 736 335 780 l 123 167 q 82 87 104 109 q 8 50 60 65 l -20 43 l -4 0 l 227 0 z "},"Ä":{"ha":887,"x_min":-20,"x_max":875,"o":"m 642 1105 q 613 1160 642 1130 q 562 1190 585 1190 q 511 1160 538 1190 q 484 1105 484 1130 q 512 1053 484 1082 q 562 1024 540 1024 q 613 1053 585 1024 q 642 1105 642 1082 m 404 1105 q 375 1160 404 1130 q 323 1190 346 1190 q 274 1160 301 1190 q 247 1105 247 1130 q 274 1053 247 1082 q 323 1024 301 1024 q 375 1053 346 1024 q 404 1105 404 1082 m 425 774 l 545 422 l 308 422 l 425 774 m 227 0 l 250 20 l 240 43 q 222 119 222 73 q 250 251 222 165 l 281 343 l 571 343 l 631 167 q 646 107 646 117 q 590 50 646 64 l 560 43 l 574 0 l 859 0 l 875 20 q 805 85 829 56 q 761 175 781 115 l 507 903 l 266 903 l 250 860 l 279 853 q 335 798 335 841 q 321 736 335 780 l 123 167 q 82 87 104 109 q 8 50 60 65 l -20 43 l -4 0 l 227 0 z "},"Å":{"ha":887,"x_min":-20,"x_max":875,"o":"m 388 1105 q 403 1159 388 1138 q 442 1180 418 1180 q 482 1159 468 1180 q 496 1105 496 1138 q 482 1054 496 1074 q 442 1034 468 1034 q 403 1055 418 1034 q 388 1105 388 1076 m 587 1105 q 549 1203 587 1165 q 442 1241 511 1241 q 338 1203 376 1241 q 300 1105 300 1165 q 338 1010 300 1047 q 442 972 376 972 q 549 1010 511 972 q 587 1105 587 1047 m 425 774 l 545 422 l 308 422 l 425 774 m 227 0 l 250 20 l 240 43 q 222 119 222 73 q 250 251 222 165 l 281 343 l 571 343 l 631 167 q 646 107 646 117 q 590 50 646 64 l 560 43 l 574 0 l 859 0 l 875 20 q 805 85 829 56 q 761 175 781 115 l 507 903 l 266 903 l 250 860 l 279 853 q 335 798 335 841 q 321 736 335 780 l 123 167 q 82 87 104 109 q 8 50 60 65 l -20 43 l -4 0 l 227 0 z "},"Æ":{"ha":1213,"x_min":-18,"x_max":1133,"o":"m 606 837 l 606 456 l 396 456 l 606 837 m 1133 -18 l 1133 198 l 1090 212 l 1084 183 q 1038 94 1065 115 q 945 72 1012 72 l 810 72 q 745 90 761 72 q 730 167 730 107 l 730 385 l 837 385 q 935 371 906 385 q 974 313 963 357 l 981 285 l 1024 300 l 1024 514 l 998 529 l 989 514 q 888 456 948 456 l 730 456 l 730 736 q 745 814 730 795 q 810 833 761 833 l 932 833 q 1025 810 998 833 q 1069 720 1051 788 l 1077 690 l 1120 705 l 1120 929 l 1100 945 l 1077 929 q 933 903 1044 903 l 547 903 l 110 118 q 12 50 80 68 l -18 43 l -3 0 l 229 0 l 252 20 l 241 43 q 225 99 225 84 q 251 194 225 145 l 357 385 l 606 385 l 606 159 q 591 82 606 103 q 529 47 575 61 l 502 41 l 515 0 l 1046 0 q 1099 -18 1088 0 l 1108 -31 l 1133 -18 z "},"Ç":{"ha":776,"x_min":45,"x_max":743,"o":"m 544 -225 q 503 -120 544 -157 q 403 -83 463 -83 q 355 -88 377 -83 l 410 -16 q 427 -17 415 -16 q 446 -18 439 -18 q 741 141 629 -18 q 743 152 743 149 q 730 176 743 164 q 703 187 716 187 q 694 182 699 187 q 457 69 618 69 q 260 179 335 69 q 186 450 186 289 q 200 593 186 525 q 243 721 214 661 q 326 817 273 781 q 450 852 380 852 q 566 814 522 852 q 610 719 610 777 q 601 663 610 689 q 581 623 591 637 q 571 605 571 609 q 600 590 571 590 q 694 631 656 590 q 732 736 732 671 q 654 870 732 819 q 450 921 575 921 q 149 789 252 921 q 45 450 45 656 q 126 144 45 270 q 363 -9 208 18 l 274 -129 l 298 -151 q 366 -130 334 -130 q 429 -157 407 -130 q 452 -224 452 -184 q 430 -289 452 -260 q 372 -317 408 -317 q 336 -304 351 -317 q 320 -269 320 -290 q 330 -231 320 -247 q 339 -213 339 -216 q 316 -201 339 -201 q 260 -221 283 -201 q 236 -274 236 -241 q 277 -345 236 -319 q 374 -370 319 -370 q 495 -328 446 -370 q 544 -225 544 -286 z "},"È":{"ha":765,"x_min":56,"x_max":688,"o":"m 514 1038 l 317 1236 q 264 1154 264 1210 q 335 1065 264 1099 l 477 996 l 514 1038 m 688 -18 l 688 198 l 646 212 l 637 183 q 593 94 620 117 q 500 72 567 72 l 365 72 q 300 90 316 72 q 285 167 285 107 l 285 423 l 391 423 q 488 410 460 423 q 529 353 517 396 l 537 321 l 579 336 l 579 552 l 555 566 l 544 552 q 445 495 505 495 l 285 495 l 285 736 q 300 814 285 795 q 365 833 316 833 l 488 833 q 580 810 553 833 q 624 720 606 788 l 631 690 l 674 705 l 674 929 l 655 945 l 631 929 q 488 903 598 903 l 104 903 l 87 883 l 104 860 q 160 651 160 785 l 160 159 q 144 82 160 103 q 83 47 129 61 l 56 41 l 71 0 l 601 0 q 654 -18 637 0 l 663 -31 l 688 -18 z "},"É":{"ha":765,"x_min":56,"x_max":688,"o":"m 481 1065 q 551 1154 551 1099 q 498 1236 551 1210 l 302 1038 l 339 996 l 481 1065 m 688 -18 l 688 198 l 646 212 l 637 183 q 593 94 620 117 q 500 72 567 72 l 365 72 q 300 90 316 72 q 285 167 285 107 l 285 423 l 391 423 q 488 410 460 423 q 529 353 517 396 l 537 321 l 579 336 l 579 552 l 555 566 l 544 552 q 445 495 505 495 l 285 495 l 285 736 q 300 814 285 795 q 365 833 316 833 l 488 833 q 580 810 553 833 q 624 720 606 788 l 631 690 l 674 705 l 674 929 l 655 945 l 631 929 q 488 903 598 903 l 104 903 l 87 883 l 104 860 q 160 651 160 785 l 160 159 q 144 82 160 103 q 83 47 129 61 l 56 41 l 71 0 l 601 0 q 654 -18 637 0 l 663 -31 l 688 -18 z "},"Ê":{"ha":765,"x_min":56,"x_max":688,"o":"m 401 1099 l 534 996 l 574 1029 q 488 1157 534 1100 q 419 1227 442 1214 l 385 1227 q 314 1156 359 1213 q 229 1029 269 1099 l 271 996 l 401 1099 m 688 -18 l 688 198 l 646 212 l 637 183 q 593 94 620 117 q 500 72 567 72 l 365 72 q 300 90 316 72 q 285 167 285 107 l 285 423 l 391 423 q 488 410 460 423 q 529 353 517 396 l 537 321 l 579 336 l 579 552 l 555 566 l 544 552 q 445 495 505 495 l 285 495 l 285 736 q 300 814 285 795 q 365 833 316 833 l 488 833 q 580 810 553 833 q 624 720 606 788 l 631 690 l 674 705 l 674 929 l 655 945 l 631 929 q 488 903 598 903 l 104 903 l 87 883 l 104 860 q 160 651 160 785 l 160 159 q 144 82 160 103 q 83 47 129 61 l 56 41 l 71 0 l 601 0 q 654 -18 637 0 l 663 -31 l 688 -18 z "},"Ë":{"ha":765,"x_min":56,"x_max":688,"o":"m 600 1105 q 570 1160 600 1130 q 518 1190 541 1190 q 469 1160 496 1190 q 442 1105 442 1130 q 469 1053 442 1082 q 518 1024 496 1024 q 570 1053 541 1024 q 600 1105 600 1082 m 361 1105 q 332 1160 361 1130 q 279 1190 302 1190 q 231 1160 258 1190 q 203 1105 203 1130 q 231 1053 203 1082 q 279 1024 258 1024 q 332 1053 302 1024 q 361 1105 361 1082 m 688 -18 l 688 198 l 646 212 l 637 183 q 593 94 620 117 q 500 72 567 72 l 365 72 q 300 90 316 72 q 285 167 285 107 l 285 423 l 391 423 q 488 410 460 423 q 529 353 517 396 l 537 321 l 579 336 l 579 552 l 555 566 l 544 552 q 445 495 505 495 l 285 495 l 285 736 q 300 814 285 795 q 365 833 316 833 l 488 833 q 580 810 553 833 q 624 720 606 788 l 631 690 l 674 705 l 674 929 l 655 945 l 631 929 q 488 903 598 903 l 104 903 l 87 883 l 104 860 q 160 651 160 785 l 160 159 q 144 82 160 103 q 83 47 129 61 l 56 41 l 71 0 l 601 0 q 654 -18 637 0 l 663 -31 l 688 -18 z "},"Ì":{"ha":444,"x_min":50,"x_max":387,"o":"m 346 1038 l 151 1236 q 96 1154 96 1208 q 167 1065 96 1099 l 311 996 l 346 1038 m 374 0 l 387 41 l 361 47 q 300 82 315 61 q 285 159 285 103 l 285 651 q 342 860 285 787 l 358 883 l 342 903 l 65 903 l 50 860 l 80 853 q 144 817 127 840 q 160 736 160 793 l 160 167 q 144 87 160 109 q 80 50 129 65 l 50 43 l 65 0 l 374 0 z "},"Í":{"ha":444,"x_min":50,"x_max":387,"o":"m 288 1065 q 357 1154 357 1099 q 302 1236 357 1208 l 109 1038 l 144 996 l 288 1065 m 374 0 l 387 41 l 361 47 q 300 82 315 61 q 285 159 285 103 l 285 651 q 342 860 285 787 l 358 883 l 342 903 l 65 903 l 50 860 l 80 853 q 144 817 127 840 q 160 736 160 793 l 160 167 q 144 87 160 109 q 80 50 129 65 l 50 43 l 65 0 l 374 0 z "},"Î":{"ha":444,"x_min":50,"x_max":396,"o":"m 222 1099 l 355 996 l 396 1029 q 310 1156 357 1099 q 240 1227 263 1214 l 206 1227 q 135 1156 180 1213 q 50 1029 90 1099 l 92 996 l 222 1099 m 374 0 l 387 41 l 361 47 q 300 82 315 61 q 285 159 285 103 l 285 651 q 342 860 285 787 l 358 883 l 342 903 l 65 903 l 50 860 l 80 853 q 144 817 127 840 q 160 736 160 793 l 160 167 q 144 87 160 109 q 80 50 129 65 l 50 43 l 65 0 l 374 0 z "},"Ï":{"ha":444,"x_min":24,"x_max":420,"o":"m 420 1105 q 391 1160 420 1130 q 339 1190 362 1190 q 290 1160 317 1190 q 263 1105 263 1130 q 290 1053 263 1082 q 339 1024 317 1024 q 391 1053 362 1024 q 420 1105 420 1082 m 182 1105 q 153 1160 182 1130 q 100 1190 123 1190 q 52 1160 79 1190 q 24 1105 24 1130 q 52 1053 24 1082 q 100 1024 79 1024 q 153 1053 123 1024 q 182 1105 182 1082 m 374 0 l 387 41 l 361 47 q 300 82 315 61 q 285 159 285 103 l 285 651 q 342 860 285 787 l 358 883 l 342 903 l 65 903 l 50 860 l 80 853 q 144 817 127 840 q 160 736 160 793 l 160 167 q 144 87 160 109 q 80 50 129 65 l 50 43 l 65 0 l 374 0 z "},"Ð":{"ha":921,"x_min":14,"x_max":878,"o":"m 285 221 l 285 419 l 500 419 q 529 496 529 442 l 285 496 l 285 792 q 408 852 285 852 q 596 793 518 852 q 708 647 674 735 q 742 453 742 559 q 420 64 742 64 q 322 97 359 64 q 285 221 285 130 m 460 0 q 770 126 662 0 q 878 450 878 252 q 863 595 878 529 q 812 723 848 662 q 721 827 776 784 q 581 896 666 871 q 385 921 495 921 q 45 865 202 921 l 60 818 l 132 818 q 160 789 160 818 l 160 496 l 42 496 q 14 419 14 476 l 160 419 l 160 153 q 140 84 160 106 q 80 50 119 62 l 50 43 l 65 0 l 460 0 z "},"Ñ":{"ha":979,"x_min":43,"x_max":903,"o":"m 425 1070 q 477 1048 442 1070 q 544 1027 513 1027 q 622 1060 579 1027 q 704 1149 665 1093 l 662 1190 q 575 1138 609 1138 q 522 1160 557 1138 q 457 1183 486 1183 q 296 1062 385 1183 l 340 1021 q 425 1070 385 1070 m 297 0 l 313 20 l 297 43 q 254 130 266 84 q 241 252 241 175 l 241 712 l 720 0 l 848 0 l 863 20 l 848 43 q 829 111 829 71 l 829 651 q 884 860 829 785 l 903 883 l 884 903 l 648 903 l 631 860 l 661 853 q 726 817 709 840 q 742 736 742 793 l 742 190 l 260 903 l 58 903 l 43 860 l 72 853 q 136 817 119 840 q 152 736 152 793 l 152 167 q 136 87 152 109 q 72 50 121 65 l 43 43 l 58 0 l 297 0 z "},"Ò":{"ha":921,"x_min":45,"x_max":878,"o":"m 585 1038 l 388 1236 q 335 1154 335 1210 q 406 1065 335 1099 l 548 996 l 585 1038 m 180 439 q 258 732 180 614 q 468 850 335 850 q 600 810 544 850 q 686 707 656 770 q 728 577 715 643 q 742 446 742 511 q 665 168 742 279 q 454 56 587 56 q 252 164 323 56 q 180 439 180 273 m 770 113 q 824 179 770 113 q 878 450 878 244 q 770 789 878 656 q 460 921 662 921 q 151 789 258 921 q 45 450 45 656 q 151 113 45 244 q 460 -18 258 -18 q 770 113 662 -18 z "},"Ó":{"ha":921,"x_min":45,"x_max":878,"o":"m 515 1065 q 585 1154 585 1099 q 532 1236 585 1210 l 336 1038 l 372 996 l 515 1065 m 180 439 q 258 732 180 614 q 468 850 335 850 q 600 810 544 850 q 686 707 656 770 q 728 577 715 643 q 742 446 742 511 q 665 168 742 279 q 454 56 587 56 q 252 164 323 56 q 180 439 180 273 m 770 113 q 824 179 770 113 q 878 450 878 244 q 770 789 878 656 q 460 921 662 921 q 151 789 258 921 q 45 450 45 656 q 151 113 45 244 q 460 -18 258 -18 q 770 113 662 -18 z "},"Ô":{"ha":921,"x_min":45,"x_max":878,"o":"m 460 1099 l 593 996 l 633 1029 q 547 1156 594 1099 q 477 1227 500 1214 l 445 1227 q 374 1156 419 1213 q 289 1029 328 1099 l 331 996 l 460 1099 m 180 439 q 258 732 180 614 q 468 850 335 850 q 600 810 544 850 q 686 707 656 770 q 728 577 715 643 q 742 446 742 511 q 665 168 742 279 q 454 56 587 56 q 252 164 323 56 q 180 439 180 273 m 770 113 q 824 179 770 113 q 878 450 878 244 q 770 789 878 656 q 460 921 662 921 q 151 789 258 921 q 45 450 45 656 q 151 113 45 244 q 460 -18 258 -18 q 770 113 662 -18 z "},"Õ":{"ha":921,"x_min":45,"x_max":878,"o":"m 385 1070 q 438 1048 403 1070 q 505 1027 473 1027 q 583 1060 540 1027 q 665 1149 625 1093 l 624 1190 q 537 1138 571 1138 q 484 1160 519 1138 q 419 1183 448 1183 q 256 1062 346 1183 l 301 1021 q 385 1070 346 1070 m 180 439 q 258 732 180 614 q 468 850 335 850 q 600 810 544 850 q 686 707 656 770 q 728 577 715 643 q 742 446 742 511 q 665 168 742 279 q 454 56 587 56 q 252 164 323 56 q 180 439 180 273 m 770 113 q 824 179 770 113 q 878 450 878 244 q 770 789 878 656 q 460 921 662 921 q 151 789 258 921 q 45 450 45 656 q 151 113 45 244 q 460 -18 258 -18 q 770 113 662 -18 z "},"Ö":{"ha":921,"x_min":45,"x_max":878,"o":"m 659 1105 q 631 1160 659 1130 q 579 1190 602 1190 q 529 1160 556 1190 q 502 1105 502 1130 q 530 1053 502 1082 q 579 1024 557 1024 q 631 1053 602 1024 q 659 1105 659 1082 m 422 1105 q 393 1160 422 1130 q 340 1190 363 1190 q 292 1160 319 1190 q 264 1105 264 1130 q 292 1053 264 1082 q 340 1024 319 1024 q 393 1053 363 1024 q 422 1105 422 1082 m 180 439 q 258 732 180 614 q 468 850 335 850 q 600 810 544 850 q 686 707 656 770 q 728 577 715 643 q 742 446 742 511 q 665 168 742 279 q 454 56 587 56 q 252 164 323 56 q 180 439 180 273 m 770 113 q 824 179 770 113 q 878 450 878 244 q 770 789 878 656 q 460 921 662 921 q 151 789 258 921 q 45 450 45 656 q 151 113 45 244 q 460 -18 258 -18 q 770 113 662 -18 z "},"×":{"ha":863,"x_min":140,"x_max":639,"o":"m 389 381 l 571 199 l 639 267 l 457 449 l 639 631 l 571 699 l 389 517 l 208 699 l 140 631 l 321 449 l 140 267 l 208 199 l 389 381 z "},"Ø":{"ha":921,"x_min":45,"x_max":878,"o":"m 369 71 l 627 788 q 714 635 686 730 q 742 446 742 541 q 665 168 742 279 q 454 56 587 56 q 369 71 410 56 m 180 439 q 258 732 180 614 q 468 850 335 850 q 551 836 506 850 l 296 113 q 180 439 180 214 m 316 -80 l 343 -3 q 460 -18 408 -18 q 770 113 662 -18 q 878 450 878 244 q 822 709 878 597 q 658 876 766 822 l 696 983 l 605 983 l 578 906 q 460 921 510 921 q 151 789 258 921 q 45 450 45 656 q 100 190 45 302 q 264 24 156 77 l 228 -80 l 316 -80 z "},"Ù":{"ha":929,"x_min":28,"x_max":868,"o":"m 589 1038 l 392 1236 q 339 1154 339 1210 q 410 1065 339 1099 l 552 996 l 589 1038 m 795 275 l 795 651 q 852 860 795 787 l 868 883 l 852 903 l 613 903 l 597 860 l 627 853 q 691 817 675 840 q 707 736 707 793 l 707 275 q 644 119 707 176 q 487 62 582 62 q 328 119 391 62 q 264 275 264 176 l 264 651 q 320 860 264 785 l 336 883 l 320 903 l 46 903 l 28 860 l 60 853 q 124 817 109 840 q 140 736 140 793 l 140 275 q 231 55 140 127 q 471 -18 323 -18 q 705 56 616 -18 q 795 275 795 129 z "},"Ú":{"ha":929,"x_min":28,"x_max":868,"o":"m 564 1065 q 633 1154 633 1099 q 581 1236 633 1210 l 385 1038 l 422 996 l 564 1065 m 795 275 l 795 651 q 852 860 795 787 l 868 883 l 852 903 l 613 903 l 597 860 l 627 853 q 691 817 675 840 q 707 736 707 793 l 707 275 q 644 119 707 176 q 487 62 582 62 q 328 119 391 62 q 264 275 264 176 l 264 651 q 320 860 264 785 l 336 883 l 320 903 l 46 903 l 28 860 l 60 853 q 124 817 109 840 q 140 736 140 793 l 140 275 q 231 55 140 127 q 471 -18 323 -18 q 705 56 616 -18 q 795 275 795 129 z "},"Û":{"ha":929,"x_min":28,"x_max":868,"o":"m 484 1099 l 617 996 l 658 1029 q 572 1156 618 1099 q 502 1227 525 1214 l 469 1227 q 398 1156 444 1213 q 313 1029 353 1099 l 355 996 l 484 1099 m 795 275 l 795 651 q 852 860 795 787 l 868 883 l 852 903 l 613 903 l 597 860 l 627 853 q 691 817 675 840 q 707 736 707 793 l 707 275 q 644 119 707 176 q 487 62 582 62 q 328 119 391 62 q 264 275 264 176 l 264 651 q 320 860 264 785 l 336 883 l 320 903 l 46 903 l 28 860 l 60 853 q 124 817 109 840 q 140 736 140 793 l 140 275 q 231 55 140 127 q 471 -18 323 -18 q 705 56 616 -18 q 795 275 795 129 z "},"Ü":{"ha":929,"x_min":28,"x_max":868,"o":"m 680 1105 q 651 1160 680 1130 q 600 1190 623 1190 q 549 1160 576 1190 q 522 1105 522 1130 q 550 1053 522 1082 q 600 1024 578 1024 q 651 1053 623 1024 q 680 1105 680 1082 m 442 1105 q 413 1160 442 1130 q 361 1190 384 1190 q 312 1160 339 1190 q 285 1105 285 1130 q 312 1053 285 1082 q 361 1024 339 1024 q 413 1053 384 1024 q 442 1105 442 1082 m 795 275 l 795 651 q 852 860 795 787 l 868 883 l 852 903 l 613 903 l 597 860 l 627 853 q 691 817 675 840 q 707 736 707 793 l 707 275 q 644 119 707 176 q 487 62 582 62 q 328 119 391 62 q 264 275 264 176 l 264 651 q 320 860 264 785 l 336 883 l 320 903 l 46 903 l 28 860 l 60 853 q 124 817 109 840 q 140 736 140 793 l 140 275 q 231 55 140 127 q 471 -18 323 -18 q 705 56 616 -18 q 795 275 795 129 z "},"Ý":{"ha":787,"x_min":5,"x_max":755,"o":"m 507 1065 q 578 1154 578 1099 q 524 1236 578 1208 l 330 1038 l 365 996 l 507 1065 m 549 0 l 564 43 l 537 50 q 471 86 488 62 q 453 167 453 110 l 453 381 l 650 727 q 738 860 689 800 l 755 883 l 741 903 l 500 903 l 487 860 l 514 853 q 567 787 567 840 q 552 735 567 765 l 411 480 l 274 719 q 235 798 235 780 q 293 853 235 841 l 320 860 l 307 903 l 22 903 l 5 883 q 132 724 68 837 l 334 370 l 334 252 q 320 132 334 178 q 274 43 307 87 l 258 20 l 274 0 l 549 0 z "},"Þ":{"ha":749,"x_min":50,"x_max":724,"o":"m 374 0 l 387 41 l 361 47 q 300 82 315 61 q 285 159 285 103 l 285 627 q 393 690 285 690 q 542 624 490 690 q 594 453 594 557 q 541 290 594 350 q 393 229 488 229 q 353 234 372 229 q 332 239 335 239 q 312 206 312 239 q 345 175 312 186 q 423 164 377 164 q 648 247 571 164 q 724 456 724 330 q 640 669 724 582 q 429 755 556 755 q 289 731 354 755 q 342 860 298 803 l 358 883 l 342 903 l 65 903 l 50 860 l 80 853 q 144 817 127 840 q 160 736 160 793 l 160 167 q 144 87 160 109 q 80 50 129 65 l 50 43 l 65 0 l 374 0 z "},"ß":{"ha":799,"x_min":16,"x_max":776,"o":"m 776 182 q 616 392 776 311 l 528 437 q 460 534 460 473 q 486 604 460 567 q 544 669 513 640 q 602 739 575 697 q 628 822 628 781 q 575 943 628 901 q 439 985 522 985 q 212 899 298 985 q 126 662 126 814 l 126 167 q 111 87 126 109 q 46 50 95 65 l 16 43 l 31 0 l 308 0 l 323 20 l 308 43 q 262 131 275 85 q 250 252 250 176 l 250 682 q 289 854 250 789 q 411 920 328 920 q 484 897 454 920 q 513 822 513 873 q 487 731 513 779 q 431 649 461 684 q 374 572 400 614 q 349 496 349 529 q 372 412 349 445 q 446 347 395 378 l 541 300 q 665 148 665 233 q 629 71 665 96 q 548 46 594 46 q 454 58 495 46 q 411 71 412 71 q 391 39 391 71 q 403 14 391 22 q 547 -18 465 -18 q 711 41 646 -18 q 776 182 776 99 z "},"à":{"ha":758,"x_min":56,"x_max":742,"o":"m 505 760 l 309 956 q 255 876 255 929 q 326 787 255 821 l 469 718 l 505 760 m 189 312 q 239 503 189 435 q 381 571 289 571 q 503 534 449 571 l 503 194 q 332 80 438 80 q 230 136 271 80 q 189 312 189 191 m 503 115 q 527 14 503 45 q 602 -18 551 -18 q 742 62 669 -18 l 718 95 q 655 72 686 72 q 616 111 616 72 l 616 521 q 632 571 616 543 l 650 594 l 633 610 q 510 627 595 613 q 382 640 425 640 q 144 546 232 640 q 56 289 56 452 q 122 62 56 142 q 283 -18 189 -18 q 503 115 411 -18 z "},"á":{"ha":758,"x_min":56,"x_max":742,"o":"m 434 787 q 503 876 503 821 q 450 956 503 930 l 255 760 l 292 718 l 434 787 m 189 312 q 239 503 189 435 q 381 571 289 571 q 503 534 449 571 l 503 194 q 332 80 438 80 q 230 136 271 80 q 189 312 189 191 m 503 115 q 527 14 503 45 q 602 -18 551 -18 q 742 62 669 -18 l 718 95 q 655 72 686 72 q 616 111 616 72 l 616 521 q 632 571 616 543 l 650 594 l 633 610 q 510 627 595 613 q 382 640 425 640 q 144 546 232 640 q 56 289 56 452 q 122 62 56 142 q 283 -18 189 -18 q 503 115 411 -18 z "},"â":{"ha":758,"x_min":56,"x_max":742,"o":"m 380 819 l 513 718 l 552 750 q 467 878 513 821 q 397 949 420 936 l 363 949 q 292 877 338 935 q 208 750 247 819 l 250 718 l 380 819 m 189 312 q 239 503 189 435 q 381 571 289 571 q 503 534 449 571 l 503 194 q 332 80 438 80 q 230 136 271 80 q 189 312 189 191 m 503 115 q 527 14 503 45 q 602 -18 551 -18 q 742 62 669 -18 l 718 95 q 655 72 686 72 q 616 111 616 72 l 616 521 q 632 571 616 543 l 650 594 l 633 610 q 510 627 595 613 q 382 640 425 640 q 144 546 232 640 q 56 289 56 452 q 122 62 56 142 q 283 -18 189 -18 q 503 115 411 -18 z "},"ã":{"ha":758,"x_min":56,"x_max":742,"o":"m 302 792 q 356 770 320 792 q 423 749 392 749 q 501 782 458 749 q 583 871 544 815 l 541 910 q 454 860 490 860 q 401 882 437 860 q 336 905 365 905 q 175 784 264 905 l 220 743 q 302 792 264 792 m 189 312 q 239 503 189 435 q 381 571 289 571 q 503 534 449 571 l 503 194 q 332 80 438 80 q 230 136 271 80 q 189 312 189 191 m 503 115 q 527 14 503 45 q 602 -18 551 -18 q 742 62 669 -18 l 718 95 q 655 72 686 72 q 616 111 616 72 l 616 521 q 632 571 616 543 l 650 594 l 633 610 q 510 627 595 613 q 382 640 425 640 q 144 546 232 640 q 56 289 56 452 q 122 62 56 142 q 283 -18 189 -18 q 503 115 411 -18 z "},"ä":{"ha":758,"x_min":56,"x_max":742,"o":"m 578 827 q 549 881 578 852 q 496 910 519 910 q 447 881 473 910 q 420 827 420 852 q 448 775 420 804 q 496 746 475 746 q 549 775 519 746 q 578 827 578 804 m 339 827 q 310 881 339 852 q 258 910 281 910 q 208 881 235 910 q 182 827 182 852 q 209 775 182 804 q 258 746 236 746 q 310 775 281 746 q 339 827 339 804 m 189 312 q 239 503 189 435 q 381 571 289 571 q 503 534 449 571 l 503 194 q 332 80 438 80 q 230 136 271 80 q 189 312 189 191 m 503 115 q 527 14 503 45 q 602 -18 551 -18 q 742 62 669 -18 l 718 95 q 655 72 686 72 q 616 111 616 72 l 616 521 q 632 571 616 543 l 650 594 l 633 610 q 510 627 595 613 q 382 640 425 640 q 144 546 232 640 q 56 289 56 452 q 122 62 56 142 q 283 -18 189 -18 q 503 115 411 -18 z "},"å":{"ha":758,"x_min":56,"x_max":742,"o":"m 324 827 q 339 881 324 860 q 378 902 354 902 q 418 881 404 902 q 433 827 433 860 q 418 775 433 796 q 378 754 404 754 q 339 776 354 754 q 324 827 324 798 m 524 827 q 486 925 524 887 q 378 963 448 963 q 274 925 312 963 q 236 827 236 887 q 274 732 236 769 q 378 694 312 694 q 486 732 448 694 q 524 827 524 769 m 189 312 q 239 503 189 435 q 381 571 289 571 q 503 534 449 571 l 503 194 q 332 80 438 80 q 230 136 271 80 q 189 312 189 191 m 503 115 q 527 14 503 45 q 602 -18 551 -18 q 742 62 669 -18 l 718 95 q 655 72 686 72 q 616 111 616 72 l 616 521 q 632 571 616 543 l 650 594 l 633 610 q 510 627 595 613 q 382 640 425 640 q 144 546 232 640 q 56 289 56 452 q 122 62 56 142 q 283 -18 189 -18 q 503 115 411 -18 z "},"æ":{"ha":1089,"x_min":56,"x_max":1023,"o":"m 515 133 q 617 22 552 62 q 768 -18 682 -18 q 1019 95 922 -18 q 1023 107 1023 99 q 1012 130 1023 119 q 990 141 1001 141 q 978 137 982 141 q 795 65 905 65 q 657 128 705 65 q 609 304 609 191 q 654 507 609 435 q 781 579 700 579 q 869 543 838 579 q 901 457 901 507 q 859 357 901 399 q 741 315 817 315 q 686 323 711 315 q 659 331 662 331 q 646 322 652 331 q 639 302 639 313 q 688 258 639 273 q 780 244 738 244 q 956 308 891 244 q 1020 456 1020 372 q 964 586 1020 532 q 806 640 907 640 q 549 528 637 640 q 319 640 469 640 q 193 619 252 640 q 103 575 133 598 q 73 538 73 552 q 85 514 73 526 q 107 502 96 502 q 130 516 111 502 q 191 545 149 530 q 293 559 232 559 q 431 496 384 559 q 479 319 479 433 q 431 120 479 190 q 296 50 382 50 q 208 84 239 50 q 176 165 176 118 q 218 271 176 227 q 335 315 260 315 q 399 307 370 315 q 429 298 427 298 q 441 307 435 298 q 448 326 448 315 q 393 370 448 354 q 297 385 339 385 q 121 319 186 385 q 56 167 56 252 q 112 37 56 91 q 270 -18 168 -18 q 420 22 357 -18 q 515 133 483 62 z "},"ç":{"ha":639,"x_min":56,"x_max":590,"o":"m 461 -225 q 420 -120 461 -157 q 320 -83 380 -83 q 273 -88 294 -83 l 328 -16 q 345 -17 334 -16 q 361 -18 355 -18 q 587 87 495 -18 q 590 98 590 88 q 580 121 590 110 q 559 133 570 133 q 547 130 549 133 q 381 66 471 66 q 239 135 292 66 q 187 320 187 203 q 231 505 187 435 q 347 575 275 575 q 434 546 401 575 q 467 468 467 517 q 458 414 467 437 q 443 379 450 391 q 435 363 435 368 q 458 351 435 351 q 547 385 513 351 q 582 473 582 419 q 520 593 582 547 q 361 640 458 640 q 139 551 222 640 q 56 311 56 461 q 119 104 56 190 q 285 -7 182 18 l 191 -129 l 217 -151 q 285 -130 252 -130 q 347 -157 326 -130 q 369 -224 369 -184 q 348 -290 369 -262 q 290 -317 327 -317 q 254 -304 270 -317 q 239 -269 239 -290 q 248 -231 239 -247 q 256 -213 256 -216 q 233 -201 256 -201 q 178 -221 201 -201 q 155 -274 155 -241 q 195 -345 155 -319 q 292 -370 236 -370 q 412 -328 363 -370 q 461 -225 461 -286 z "},"è":{"ha":665,"x_min":56,"x_max":601,"o":"m 457 760 l 262 956 q 208 876 208 929 q 278 787 208 821 l 422 718 l 457 760 m 595 95 q 601 107 601 106 q 589 130 601 119 q 567 141 578 141 q 556 137 560 141 q 372 65 483 65 q 233 128 281 65 q 186 304 186 191 q 231 508 186 437 q 358 579 277 579 q 446 543 414 579 q 477 457 477 507 q 435 357 477 399 q 317 315 393 315 q 263 323 288 315 q 236 331 239 331 q 218 302 218 331 q 267 258 218 273 q 357 244 315 244 q 532 308 467 244 q 597 456 597 372 q 541 587 597 533 q 382 640 486 640 q 145 548 235 640 q 56 304 56 456 q 135 71 56 159 q 346 -18 214 -18 q 595 95 499 -18 z "},"é":{"ha":665,"x_min":56,"x_max":601,"o":"m 387 787 q 456 876 456 821 q 403 956 456 930 l 208 760 l 244 718 l 387 787 m 595 95 q 601 107 601 106 q 589 130 601 119 q 567 141 578 141 q 556 137 560 141 q 372 65 483 65 q 233 128 281 65 q 186 304 186 191 q 231 508 186 437 q 358 579 277 579 q 446 543 414 579 q 477 457 477 507 q 435 357 477 399 q 317 315 393 315 q 263 323 288 315 q 236 331 239 331 q 218 302 218 331 q 267 258 218 273 q 357 244 315 244 q 532 308 467 244 q 597 456 597 372 q 541 587 597 533 q 382 640 486 640 q 145 548 235 640 q 56 304 56 456 q 135 71 56 159 q 346 -18 214 -18 q 595 95 499 -18 z "},"ê":{"ha":665,"x_min":56,"x_max":601,"o":"m 334 819 l 467 718 l 506 750 q 420 878 467 821 q 351 949 374 936 l 317 949 q 246 877 292 935 q 161 750 201 819 l 203 718 l 334 819 m 595 95 q 601 107 601 106 q 589 130 601 119 q 567 141 578 141 q 556 137 560 141 q 372 65 483 65 q 233 128 281 65 q 186 304 186 191 q 231 508 186 437 q 358 579 277 579 q 446 543 414 579 q 477 457 477 507 q 435 357 477 399 q 317 315 393 315 q 263 323 288 315 q 236 331 239 331 q 218 302 218 331 q 267 258 218 273 q 357 244 315 244 q 532 308 467 244 q 597 456 597 372 q 541 587 597 533 q 382 640 486 640 q 145 548 235 640 q 56 304 56 456 q 135 71 56 159 q 346 -18 214 -18 q 595 95 499 -18 z "},"ë":{"ha":665,"x_min":56,"x_max":601,"o":"m 532 827 q 503 881 532 852 q 450 910 473 910 q 401 881 427 910 q 374 827 374 852 q 401 775 374 804 q 450 746 429 746 q 503 775 473 746 q 532 827 532 804 m 293 827 q 264 881 293 852 q 212 910 235 910 q 162 881 189 910 q 136 827 136 852 q 163 775 136 804 q 212 746 190 746 q 264 775 235 746 q 293 827 293 804 m 595 95 q 601 107 601 106 q 589 130 601 119 q 567 141 578 141 q 556 137 560 141 q 372 65 483 65 q 233 128 281 65 q 186 304 186 191 q 231 508 186 437 q 358 579 277 579 q 446 543 414 579 q 477 457 477 507 q 435 357 477 399 q 317 315 393 315 q 263 323 288 315 q 236 331 239 331 q 218 302 218 331 q 267 258 218 273 q 357 244 315 244 q 532 308 467 244 q 597 456 597 372 q 541 587 597 533 q 382 640 486 640 q 145 548 235 640 q 56 304 56 456 q 135 71 56 159 q 346 -18 214 -18 q 595 95 499 -18 z "},"ì":{"ha":392,"x_min":45,"x_max":374,"o":"m 321 760 l 126 956 q 72 876 72 929 q 142 787 72 821 l 286 718 l 321 760 m 374 62 l 351 95 q 288 68 319 68 q 250 111 250 68 l 250 602 q 239 630 250 620 q 209 640 228 640 q 127 619 174 640 q 45 566 81 598 l 54 534 l 111 534 q 136 505 136 534 l 136 115 q 159 14 136 45 q 233 -18 182 -18 q 374 62 301 -18 z "},"í":{"ha":392,"x_min":45,"x_max":374,"o":"m 251 787 q 320 876 320 821 q 267 956 320 930 l 72 760 l 109 718 l 251 787 m 374 62 l 351 95 q 288 68 319 68 q 250 111 250 68 l 250 602 q 239 630 250 620 q 209 640 228 640 q 127 619 174 640 q 45 566 81 598 l 54 534 l 111 534 q 136 505 136 534 l 136 115 q 159 14 136 45 q 233 -18 182 -18 q 374 62 301 -18 z "},"î":{"ha":392,"x_min":24,"x_max":374,"o":"m 197 819 l 330 718 l 369 750 q 283 878 330 819 q 213 949 236 936 l 180 949 q 109 877 155 935 q 24 750 64 819 l 66 718 l 197 819 m 374 62 l 351 95 q 288 68 319 68 q 250 111 250 68 l 250 602 q 239 630 250 620 q 209 640 228 640 q 127 619 174 640 q 45 566 81 598 l 54 534 l 111 534 q 136 505 136 534 l 136 115 q 159 14 136 45 q 233 -18 182 -18 q 374 62 301 -18 z "},"ï":{"ha":392,"x_min":0,"x_max":396,"o":"m 396 827 q 367 881 396 852 q 315 910 338 910 q 265 881 292 910 q 239 827 239 852 q 266 775 239 804 q 315 746 293 746 q 367 775 338 746 q 396 827 396 804 m 157 827 q 128 881 157 852 q 76 910 99 910 q 26 881 53 910 q 0 827 0 852 q 27 775 0 804 q 76 746 54 746 q 128 775 99 746 q 157 827 157 804 m 374 62 l 351 95 q 288 68 319 68 q 250 111 250 68 l 250 602 q 239 630 250 620 q 209 640 228 640 q 127 619 174 640 q 45 566 81 598 l 54 534 l 111 534 q 136 505 136 534 l 136 115 q 159 14 136 45 q 233 -18 182 -18 q 374 62 301 -18 z "},"ð":{"ha":734,"x_min":54,"x_max":703,"o":"m 184 300 q 233 483 184 415 q 363 551 281 551 q 507 478 452 551 q 563 289 563 406 q 515 114 563 178 q 382 50 467 50 q 240 119 296 50 q 184 300 184 187 m 681 300 q 654 547 681 410 q 571 792 627 685 l 675 842 q 697 873 692 850 q 703 947 703 895 l 532 860 q 298 994 438 994 q 147 947 201 994 q 94 837 94 901 q 131 742 94 781 q 233 703 168 703 q 254 718 254 703 q 240 734 254 722 q 213 773 227 747 q 199 836 199 799 q 226 907 199 878 q 297 936 252 936 q 449 818 381 936 l 385 787 q 358 685 358 774 l 483 747 q 543 541 519 656 q 368 616 476 616 q 138 531 222 616 q 54 300 54 446 q 138 68 54 153 q 368 -18 222 -18 q 595 68 510 -18 q 681 300 681 155 z "},"ñ":{"ha":808,"x_min":50,"x_max":785,"o":"m 328 792 q 381 770 346 792 q 448 749 416 749 q 526 782 483 749 q 608 871 568 815 l 566 910 q 479 860 514 860 q 425 882 461 860 q 361 905 389 905 q 199 784 289 905 l 244 743 q 328 792 289 792 m 785 62 l 761 95 q 699 68 730 68 q 661 111 661 68 l 661 415 q 620 586 661 532 q 492 640 579 640 q 355 588 420 640 q 256 453 289 536 l 256 590 q 245 618 256 608 q 217 629 235 629 q 134 608 182 629 q 50 555 87 587 l 62 521 l 117 521 q 141 494 141 521 l 141 140 q 131 71 141 91 q 88 46 121 52 l 64 39 l 76 0 l 297 0 l 312 19 l 297 39 q 256 201 256 96 q 307 449 256 354 q 438 544 357 544 q 547 415 547 544 l 547 115 q 569 13 547 43 q 643 -18 591 -18 q 785 62 715 -18 z "},"ò":{"ha":727,"x_min":56,"x_max":671,"o":"m 481 760 l 286 956 q 232 876 232 929 q 302 787 232 821 l 446 718 l 481 760 m 234 121 q 211 156 234 121 q 187 311 187 191 q 237 503 187 430 q 368 575 286 575 q 470 528 429 575 q 525 425 511 481 q 538 309 538 369 q 489 121 538 193 q 361 50 439 50 q 234 121 281 50 m 588 72 q 630 117 588 72 q 671 312 671 161 q 588 551 671 463 q 363 640 505 640 q 139 552 222 640 q 56 312 56 464 q 139 72 56 161 q 363 -18 222 -18 q 588 72 505 -18 z "},"ó":{"ha":727,"x_min":56,"x_max":671,"o":"m 445 787 q 514 876 514 821 q 460 956 514 929 l 266 760 l 301 718 l 445 787 m 234 121 q 211 156 234 121 q 187 311 187 191 q 237 503 187 430 q 368 575 286 575 q 470 528 429 575 q 525 425 511 481 q 538 309 538 369 q 489 121 538 193 q 361 50 439 50 q 234 121 281 50 m 588 72 q 630 117 588 72 q 671 312 671 161 q 588 551 671 463 q 363 640 505 640 q 139 552 222 640 q 56 312 56 464 q 139 72 56 161 q 363 -18 222 -18 q 588 72 505 -18 z "},"ô":{"ha":727,"x_min":56,"x_max":671,"o":"m 366 819 l 499 718 l 540 750 q 454 878 500 819 q 384 949 407 936 l 351 949 q 280 877 326 935 q 195 750 235 819 l 236 718 l 366 819 m 234 121 q 211 156 234 121 q 187 311 187 191 q 237 503 187 430 q 368 575 286 575 q 470 528 429 575 q 525 425 511 481 q 538 309 538 369 q 489 121 538 193 q 361 50 439 50 q 234 121 281 50 m 588 72 q 630 117 588 72 q 671 312 671 161 q 588 551 671 463 q 363 640 505 640 q 139 552 222 640 q 56 312 56 464 q 139 72 56 161 q 363 -18 222 -18 q 588 72 505 -18 z "},"õ":{"ha":727,"x_min":56,"x_max":671,"o":"m 292 792 q 345 770 309 792 q 411 749 380 749 q 489 782 446 749 q 571 871 532 815 l 529 910 q 444 860 477 860 q 389 882 426 860 q 324 905 353 905 q 163 784 252 905 l 208 743 q 292 792 252 792 m 234 121 q 211 156 234 121 q 187 311 187 191 q 237 503 187 430 q 368 575 286 575 q 470 528 429 575 q 525 425 511 481 q 538 309 538 369 q 489 121 538 193 q 361 50 439 50 q 234 121 281 50 m 588 72 q 630 117 588 72 q 671 312 671 161 q 588 551 671 463 q 363 640 505 640 q 139 552 222 640 q 56 312 56 464 q 139 72 56 161 q 363 -18 222 -18 q 588 72 505 -18 z "},"ö":{"ha":727,"x_min":56,"x_max":671,"o":"m 566 827 q 536 881 566 852 q 484 910 507 910 q 435 881 461 910 q 408 827 408 852 q 435 775 408 804 q 484 746 463 746 q 536 775 507 746 q 566 827 566 804 m 328 827 q 299 881 328 852 q 247 910 270 910 q 197 881 224 910 q 171 827 171 852 q 198 775 171 804 q 247 746 225 746 q 299 775 270 746 q 328 827 328 804 m 234 121 q 211 156 234 121 q 187 311 187 191 q 237 503 187 430 q 368 575 286 575 q 470 528 429 575 q 525 425 511 481 q 538 309 538 369 q 489 121 538 193 q 361 50 439 50 q 234 121 281 50 m 588 72 q 630 117 588 72 q 671 312 671 161 q 588 551 671 463 q 363 640 505 640 q 139 552 222 640 q 56 312 56 464 q 139 72 56 161 q 363 -18 222 -18 q 588 72 505 -18 z "},"÷":{"ha":863,"x_min":123,"x_max":656,"o":"m 468 658 q 439 713 468 684 q 388 742 411 742 q 338 713 365 742 q 312 658 312 684 q 339 606 312 635 q 388 578 366 578 q 439 606 411 578 q 468 658 468 635 m 468 239 q 439 293 468 264 q 388 321 411 321 q 338 293 365 321 q 312 239 312 264 q 339 186 312 216 q 388 157 366 157 q 439 186 411 157 q 468 239 468 216 m 656 403 l 656 496 l 123 496 l 123 403 l 656 403 z "},"ø":{"ha":727,"x_min":56,"x_max":671,"o":"m 311 60 l 475 524 q 538 309 538 445 q 489 121 538 193 q 361 50 439 50 q 311 60 339 50 m 187 311 q 237 503 187 430 q 368 575 286 575 q 423 564 397 575 l 255 94 q 187 311 187 164 m 258 -85 l 286 -8 q 363 -18 328 -18 q 588 72 505 -18 q 671 312 671 161 q 628 496 671 419 q 506 610 585 574 l 543 712 l 475 712 l 446 631 q 363 640 401 640 q 139 552 222 640 q 56 312 56 464 q 100 124 56 203 q 225 9 145 45 l 191 -85 l 258 -85 z "},"ù":{"ha":773,"x_min":39,"x_max":770,"o":"m 499 760 l 302 956 q 250 876 250 930 q 320 787 250 821 l 464 718 l 499 760 m 536 104 q 558 12 536 41 q 631 -18 581 -18 q 770 62 705 -18 l 746 95 q 684 72 718 72 q 650 111 650 72 l 650 640 l 495 625 l 479 606 l 495 587 q 534 486 524 537 q 544 342 544 434 q 496 140 544 213 q 365 66 449 66 q 244 221 244 66 l 244 602 q 233 630 244 620 q 203 640 222 640 q 117 619 164 640 q 39 566 71 598 l 49 534 l 106 534 q 130 505 130 534 l 130 190 q 180 37 130 91 q 321 -18 231 -18 q 448 16 391 -18 q 536 104 506 49 z "},"ú":{"ha":773,"x_min":39,"x_max":770,"o":"m 476 787 q 545 876 545 821 q 492 956 545 930 l 297 760 l 334 718 l 476 787 m 536 104 q 558 12 536 41 q 631 -18 581 -18 q 770 62 705 -18 l 746 95 q 684 72 718 72 q 650 111 650 72 l 650 640 l 495 625 l 479 606 l 495 587 q 534 486 524 537 q 544 342 544 434 q 496 140 544 213 q 365 66 449 66 q 244 221 244 66 l 244 602 q 233 630 244 620 q 203 640 222 640 q 117 619 164 640 q 39 566 71 598 l 49 534 l 106 534 q 130 505 130 534 l 130 190 q 180 37 130 91 q 321 -18 231 -18 q 448 16 391 -18 q 536 104 506 49 z "},"û":{"ha":773,"x_min":39,"x_max":770,"o":"m 385 819 l 518 718 l 559 750 q 473 878 519 819 q 403 949 426 936 l 369 949 q 298 877 343 935 q 213 750 252 819 l 255 718 l 385 819 m 536 104 q 558 12 536 41 q 631 -18 581 -18 q 770 62 705 -18 l 746 95 q 684 72 718 72 q 650 111 650 72 l 650 640 l 495 625 l 479 606 l 495 587 q 534 486 524 537 q 544 342 544 434 q 496 140 544 213 q 365 66 449 66 q 244 221 244 66 l 244 602 q 233 630 244 620 q 203 640 222 640 q 117 619 164 640 q 39 566 71 598 l 49 534 l 106 534 q 130 505 130 534 l 130 190 q 180 37 130 91 q 321 -18 231 -18 q 448 16 391 -18 q 536 104 506 49 z "},"ü":{"ha":773,"x_min":39,"x_max":770,"o":"m 585 827 q 555 881 585 852 q 503 910 526 910 q 454 881 480 910 q 427 827 427 852 q 454 775 427 804 q 503 746 481 746 q 555 775 526 746 q 585 827 585 804 m 346 827 q 317 881 346 852 q 266 910 289 910 q 216 881 243 910 q 189 827 189 852 q 216 775 189 804 q 266 746 244 746 q 317 775 289 746 q 346 827 346 804 m 536 104 q 558 12 536 41 q 631 -18 581 -18 q 770 62 705 -18 l 746 95 q 684 72 718 72 q 650 111 650 72 l 650 640 l 495 625 l 479 606 l 495 587 q 534 486 524 537 q 544 342 544 434 q 496 140 544 213 q 365 66 449 66 q 244 221 244 66 l 244 602 q 233 630 244 620 q 203 640 222 640 q 117 619 164 640 q 39 566 71 598 l 49 534 l 106 534 q 130 505 130 534 l 130 190 q 180 37 130 91 q 321 -18 231 -18 q 448 16 391 -18 q 536 104 506 49 z "},"ý":{"ha":765,"x_min":39,"x_max":646,"o":"m 476 787 q 545 876 545 821 q 492 956 545 930 l 297 760 l 334 718 l 476 787 m 646 -27 l 646 642 l 492 627 l 477 608 l 492 589 q 533 496 525 547 q 541 343 541 446 q 494 167 541 229 q 362 104 446 104 q 244 256 244 104 l 244 604 q 233 631 244 621 q 203 642 222 642 q 117 621 164 642 q 39 567 71 600 l 49 536 l 106 536 q 130 506 130 536 l 130 228 q 180 74 130 129 q 319 19 229 19 q 447 51 389 19 q 534 138 505 83 l 534 -47 q 497 -220 534 -156 q 382 -285 460 -285 q 302 -251 332 -285 q 273 -167 273 -217 q 288 -96 273 -126 q 318 -51 302 -66 q 334 -31 334 -35 q 311 -18 334 -18 q 193 -62 236 -18 q 151 -171 151 -107 q 208 -297 151 -243 q 366 -351 264 -351 q 571 -267 496 -351 q 646 -27 646 -182 z "},"þ":{"ha":749,"x_min":39,"x_max":692,"o":"m 309 -334 l 321 -296 l 296 -290 q 253 -264 263 -283 q 243 -195 243 -244 l 243 510 q 384 559 305 559 q 511 490 463 559 q 559 312 559 422 q 511 124 559 198 q 385 50 463 50 q 326 60 353 50 q 297 71 298 71 q 278 39 278 71 q 290 16 278 23 q 415 -18 342 -18 q 613 83 534 -18 q 692 336 692 184 q 616 555 692 471 q 425 640 541 640 q 243 563 323 640 l 243 926 q 212 985 243 985 q 115 968 171 985 q 39 933 58 951 l 39 891 l 104 878 q 130 837 130 872 l 130 -133 q 88 -296 130 -237 l 73 -316 l 88 -334 l 309 -334 z "},"ÿ":{"ha":765,"x_min":39,"x_max":646,"o":"m 582 827 q 553 881 582 852 q 500 910 524 910 q 451 881 477 910 q 425 827 425 852 q 452 775 425 804 q 500 746 479 746 q 553 775 524 746 q 582 827 582 804 m 343 827 q 315 881 343 852 q 263 910 286 910 q 213 881 240 910 q 186 827 186 852 q 214 775 186 804 q 263 746 241 746 q 315 775 286 746 q 343 827 343 804 m 646 -27 l 646 642 l 492 627 l 477 608 l 492 589 q 533 496 525 547 q 541 343 541 446 q 494 167 541 229 q 362 104 446 104 q 244 256 244 104 l 244 604 q 233 631 244 621 q 203 642 222 642 q 117 621 164 642 q 39 567 71 600 l 49 536 l 106 536 q 130 506 130 536 l 130 228 q 180 74 130 129 q 319 19 229 19 q 447 51 389 19 q 534 138 505 83 l 534 -47 q 497 -220 534 -156 q 382 -285 460 -285 q 302 -251 332 -285 q 273 -167 273 -217 q 288 -96 273 -126 q 318 -51 302 -66 q 334 -31 334 -35 q 311 -18 334 -18 q 193 -62 236 -18 q 151 -171 151 -107 q 208 -297 151 -243 q 366 -351 264 -351 q 571 -267 496 -351 q 646 -27 646 -182 z "},"Ā":{"ha":887,"x_min":-20,"x_max":875,"o":"m 575 1055 q 609 1156 609 1082 l 270 1156 q 236 1055 236 1123 l 575 1055 m 425 774 l 545 422 l 308 422 l 425 774 m 227 0 l 250 20 l 240 43 q 222 119 222 73 q 250 251 222 165 l 281 343 l 571 343 l 631 167 q 646 107 646 117 q 590 50 646 64 l 560 43 l 574 0 l 859 0 l 875 20 q 805 85 829 56 q 761 175 781 115 l 507 903 l 266 903 l 250 860 l 279 853 q 335 798 335 841 q 321 736 335 780 l 123 167 q 82 87 104 109 q 8 50 60 65 l -20 43 l -4 0 l 227 0 z "},"ā":{"ha":758,"x_min":56,"x_max":742,"o":"m 545 776 q 578 876 578 804 l 240 876 q 206 776 206 848 l 545 776 m 189 312 q 239 503 189 435 q 381 571 289 571 q 503 534 449 571 l 503 194 q 332 80 438 80 q 230 136 271 80 q 189 312 189 191 m 503 115 q 527 14 503 45 q 602 -18 551 -18 q 742 62 669 -18 l 718 95 q 655 72 686 72 q 616 111 616 72 l 616 521 q 632 571 616 543 l 650 594 l 633 610 q 510 627 595 613 q 382 640 425 640 q 144 546 232 640 q 56 289 56 452 q 122 62 56 142 q 283 -18 189 -18 q 503 115 411 -18 z "},"Ă":{"ha":887,"x_min":-20,"x_max":875,"o":"m 581 1183 l 511 1183 q 487 1125 511 1146 q 426 1104 463 1104 q 361 1125 387 1104 q 336 1183 336 1146 l 267 1183 q 311 1053 267 1097 q 426 1008 355 1008 q 537 1053 494 1008 q 581 1183 581 1097 m 425 774 l 545 422 l 308 422 l 425 774 m 227 0 l 250 20 l 240 43 q 222 119 222 73 q 250 251 222 165 l 281 343 l 571 343 l 631 167 q 646 107 646 117 q 590 50 646 64 l 560 43 l 574 0 l 859 0 l 875 20 q 805 85 829 56 q 761 175 781 115 l 507 903 l 266 903 l 250 860 l 279 853 q 335 798 335 841 q 321 736 335 780 l 123 167 q 82 87 104 109 q 8 50 60 65 l -20 43 l -4 0 l 227 0 z "},"ă":{"ha":758,"x_min":56,"x_max":742,"o":"m 543 906 l 473 906 q 448 848 473 869 q 387 826 423 826 q 323 848 349 826 q 298 906 298 869 l 229 906 q 273 775 229 821 q 387 730 316 730 q 499 775 456 730 q 543 906 543 821 m 189 312 q 239 503 189 435 q 381 571 289 571 q 503 534 449 571 l 503 194 q 332 80 438 80 q 230 136 271 80 q 189 312 189 191 m 503 115 q 527 14 503 45 q 602 -18 551 -18 q 742 62 669 -18 l 718 95 q 655 72 686 72 q 616 111 616 72 l 616 521 q 632 571 616 543 l 650 594 l 633 610 q 510 627 595 613 q 382 640 425 640 q 144 546 232 640 q 56 289 56 452 q 122 62 56 142 q 283 -18 189 -18 q 503 115 411 -18 z "},"Ą":{"ha":887,"x_min":-20,"x_max":875,"o":"m 425 774 l 545 422 l 308 422 l 425 774 m 875 -222 l 833 -184 q 686 -264 765 -264 q 614 -190 614 -264 q 766 0 614 -102 l 859 0 l 875 20 q 805 85 829 56 q 761 175 781 115 l 507 903 l 266 903 l 250 860 l 279 853 q 335 798 335 841 q 321 736 335 780 l 123 167 q 82 87 104 109 q 8 50 60 65 l -20 43 l -4 0 l 227 0 l 250 20 l 240 43 q 222 119 222 73 q 250 251 222 165 l 281 343 l 571 343 l 631 167 q 646 107 646 117 q 590 50 646 64 l 560 43 l 574 0 l 671 0 q 550 -110 587 -60 q 513 -218 513 -160 q 552 -315 513 -279 q 652 -351 591 -351 q 875 -222 772 -351 z "},"ą":{"ha":758,"x_min":56,"x_max":772,"o":"m 189 312 q 239 503 189 435 q 381 571 289 571 q 503 534 449 571 l 503 194 q 332 80 438 80 q 230 136 271 80 q 189 312 189 191 m 772 -222 l 730 -184 q 585 -264 662 -264 q 513 -190 513 -264 q 663 0 513 -100 q 742 62 707 23 l 718 95 q 655 72 686 72 q 616 111 616 72 l 616 521 q 632 571 616 543 l 650 594 l 633 610 q 510 627 595 613 q 382 640 425 640 q 144 546 232 640 q 56 289 56 452 q 122 62 56 142 q 283 -18 189 -18 q 503 115 411 -18 q 556 -9 503 12 q 445 -114 480 -65 q 410 -218 410 -163 q 449 -315 410 -279 q 549 -351 488 -351 q 772 -222 669 -351 z "},"Ć":{"ha":776,"x_min":45,"x_max":743,"o":"m 507 1063 q 579 1156 579 1099 q 525 1234 579 1207 l 330 1038 l 365 994 l 507 1063 m 741 141 q 743 152 743 149 q 730 176 743 164 q 703 187 716 187 q 694 182 699 187 q 457 69 618 69 q 260 179 335 69 q 186 450 186 289 q 200 593 186 525 q 243 721 214 661 q 326 817 273 781 q 450 852 380 852 q 566 814 522 852 q 610 719 610 777 q 601 663 610 689 q 581 623 591 637 q 571 605 571 609 q 600 590 571 590 q 694 631 656 590 q 732 736 732 671 q 654 870 732 819 q 450 921 575 921 q 149 789 252 921 q 45 450 45 656 q 87 214 45 317 q 222 47 130 111 q 446 -18 315 -18 q 741 141 629 -18 z "},"ć":{"ha":639,"x_min":56,"x_max":590,"o":"m 439 787 q 510 876 510 821 q 456 956 510 929 l 262 760 l 297 718 l 439 787 m 587 87 q 590 98 590 88 q 580 121 590 110 q 559 133 570 133 q 547 130 549 133 q 381 66 471 66 q 239 135 292 66 q 187 320 187 203 q 231 505 187 435 q 347 575 275 575 q 434 546 401 575 q 467 468 467 517 q 458 414 467 437 q 443 379 450 391 q 435 363 435 368 q 458 351 435 351 q 547 385 513 351 q 582 473 582 419 q 520 593 582 547 q 361 640 458 640 q 139 551 222 640 q 56 311 56 461 q 142 75 56 168 q 361 -18 228 -18 q 587 87 495 -18 z "},"Ĉ":{"ha":776,"x_min":45,"x_max":743,"o":"m 449 1099 l 581 994 l 620 1031 q 535 1156 582 1099 q 465 1227 488 1214 l 431 1227 q 360 1156 406 1213 q 275 1031 315 1099 l 317 994 l 449 1099 m 741 141 q 743 152 743 149 q 730 176 743 164 q 703 187 716 187 q 694 182 699 187 q 457 69 618 69 q 260 179 335 69 q 186 450 186 289 q 200 593 186 525 q 243 721 214 661 q 326 817 273 781 q 450 852 380 852 q 566 814 522 852 q 610 719 610 777 q 601 663 610 689 q 581 623 591 637 q 571 605 571 609 q 600 590 571 590 q 694 631 656 590 q 732 736 732 671 q 654 870 732 819 q 450 921 575 921 q 149 789 252 921 q 45 450 45 656 q 87 214 45 317 q 222 47 130 111 q 446 -18 315 -18 q 741 141 629 -18 z "},"ĉ":{"ha":639,"x_min":56,"x_max":590,"o":"m 361 819 l 494 718 l 534 750 q 448 878 495 819 q 378 949 401 936 l 345 949 q 273 877 319 935 q 189 750 228 819 l 231 718 l 361 819 m 587 87 q 590 98 590 88 q 580 121 590 110 q 559 133 570 133 q 547 130 549 133 q 381 66 471 66 q 239 135 292 66 q 187 320 187 203 q 231 505 187 435 q 347 575 275 575 q 434 546 401 575 q 467 468 467 517 q 458 414 467 437 q 443 379 450 391 q 435 363 435 368 q 458 351 435 351 q 547 385 513 351 q 582 473 582 419 q 520 593 582 547 q 361 640 458 640 q 139 551 222 640 q 56 311 56 461 q 142 75 56 168 q 361 -18 228 -18 q 587 87 495 -18 z "},"Ċ":{"ha":776,"x_min":45,"x_max":743,"o":"m 538 1105 q 507 1168 538 1135 q 449 1202 476 1202 q 391 1168 422 1202 q 359 1105 359 1135 q 391 1044 359 1077 q 449 1012 422 1012 q 507 1044 476 1012 q 538 1105 538 1077 m 741 141 q 743 152 743 149 q 730 176 743 164 q 703 187 716 187 q 694 182 699 187 q 457 69 618 69 q 260 179 335 69 q 186 450 186 289 q 200 593 186 525 q 243 721 214 661 q 326 817 273 781 q 450 852 380 852 q 566 814 522 852 q 610 719 610 777 q 601 663 610 689 q 581 623 591 637 q 571 605 571 609 q 600 590 571 590 q 694 631 656 590 q 732 736 732 671 q 654 870 732 819 q 450 921 575 921 q 149 789 252 921 q 45 450 45 656 q 87 214 45 317 q 222 47 130 111 q 446 -18 315 -18 q 741 141 629 -18 z "},"ċ":{"ha":639,"x_min":56,"x_max":590,"o":"m 452 827 q 420 890 452 857 q 361 924 389 924 q 303 890 334 924 q 273 827 273 857 q 304 766 273 800 q 361 732 336 732 q 420 766 389 732 q 452 827 452 799 m 587 87 q 590 98 590 88 q 580 121 590 110 q 559 133 570 133 q 547 130 549 133 q 381 66 471 66 q 239 135 292 66 q 187 320 187 203 q 231 505 187 435 q 347 575 275 575 q 434 546 401 575 q 467 468 467 517 q 458 414 467 437 q 443 379 450 391 q 435 363 435 368 q 458 351 435 351 q 547 385 513 351 q 582 473 582 419 q 520 593 582 547 q 361 640 458 640 q 139 551 222 640 q 56 311 56 461 q 142 75 56 168 q 361 -18 228 -18 q 587 87 495 -18 z "},"Č":{"ha":776,"x_min":45,"x_max":743,"o":"m 465 1004 q 536 1077 490 1019 q 620 1204 582 1135 l 581 1240 l 449 1133 l 317 1240 l 275 1204 q 360 1078 315 1135 q 431 1004 406 1020 l 465 1004 m 741 141 q 743 152 743 149 q 730 176 743 164 q 703 187 716 187 q 694 182 699 187 q 457 69 618 69 q 260 179 335 69 q 186 450 186 289 q 200 593 186 525 q 243 721 214 661 q 326 817 273 781 q 450 852 380 852 q 566 814 522 852 q 610 719 610 777 q 601 663 610 689 q 581 623 591 637 q 571 605 571 609 q 600 590 571 590 q 694 631 656 590 q 732 736 732 671 q 654 870 732 819 q 450 921 575 921 q 149 789 252 921 q 45 450 45 656 q 87 214 45 317 q 222 47 130 111 q 446 -18 315 -18 q 741 141 629 -18 z "},"č":{"ha":639,"x_min":56,"x_max":590,"o":"m 378 727 q 448 799 401 741 q 534 926 495 857 l 494 963 l 361 856 l 231 963 l 189 926 q 273 800 228 857 q 345 727 319 742 l 378 727 m 587 87 q 590 98 590 88 q 580 121 590 110 q 559 133 570 133 q 547 130 549 133 q 381 66 471 66 q 239 135 292 66 q 187 320 187 203 q 231 505 187 435 q 347 575 275 575 q 434 546 401 575 q 467 468 467 517 q 458 414 467 437 q 443 379 450 391 q 435 363 435 368 q 458 351 435 351 q 547 385 513 351 q 582 473 582 419 q 520 593 582 547 q 361 640 458 640 q 139 551 222 640 q 56 311 56 461 q 142 75 56 168 q 361 -18 228 -18 q 587 87 495 -18 z "},"Ď":{"ha":921,"x_min":45,"x_max":878,"o":"m 477 1004 q 549 1077 502 1019 q 633 1204 595 1135 l 593 1240 l 461 1133 l 331 1240 l 289 1204 q 374 1078 328 1135 q 445 1004 419 1020 l 477 1004 m 285 221 l 285 792 q 408 852 285 852 q 596 793 518 852 q 708 647 674 735 q 742 453 742 559 q 420 64 742 64 q 322 97 359 64 q 285 221 285 130 m 460 0 q 770 126 662 0 q 878 450 878 252 q 863 595 878 529 q 812 723 848 662 q 721 827 776 784 q 581 896 666 871 q 385 921 495 921 q 45 865 202 921 l 60 818 l 132 818 q 160 789 160 818 l 160 153 q 140 84 160 106 q 80 50 119 62 l 50 43 l 65 0 l 460 0 z "},"ď":{"ha":822,"x_min":56,"x_max":854,"o":"m 751 804 q 829 899 804 863 q 854 971 854 936 q 772 1055 854 1055 q 703 1040 742 1055 l 680 1032 l 685 1002 l 709 986 q 738 941 738 966 q 723 888 738 921 l 665 774 l 703 750 l 751 804 m 189 312 q 239 503 189 435 q 381 571 289 571 q 503 534 449 571 l 503 194 q 332 80 438 80 q 230 136 271 80 q 189 312 189 191 m 503 115 q 527 14 503 45 q 602 -18 551 -18 q 742 62 669 -18 l 718 95 q 655 72 686 72 q 616 111 616 72 l 616 944 q 605 974 616 963 q 575 985 594 985 q 493 963 540 985 q 411 909 446 941 l 422 876 l 477 876 q 502 849 502 876 l 502 625 q 382 640 456 640 q 144 546 232 640 q 56 289 56 452 q 122 62 56 142 q 283 -18 189 -18 q 503 115 411 -18 z "},"Đ":{"ha":921,"x_min":14,"x_max":878,"o":"m 285 221 l 285 419 l 500 419 q 529 496 529 442 l 285 496 l 285 792 q 408 852 285 852 q 596 793 518 852 q 708 647 674 735 q 742 453 742 559 q 420 64 742 64 q 322 97 359 64 q 285 221 285 130 m 460 0 q 770 126 662 0 q 878 450 878 252 q 863 595 878 529 q 812 723 848 662 q 721 827 776 784 q 581 896 666 871 q 385 921 495 921 q 45 865 202 921 l 60 818 l 132 818 q 160 789 160 818 l 160 496 l 42 496 q 14 419 14 476 l 160 419 l 160 153 q 140 84 160 106 q 80 50 119 62 l 50 43 l 65 0 l 460 0 z "},"đ":{"ha":758,"x_min":56,"x_max":742,"o":"m 189 312 q 239 503 189 435 q 381 571 289 571 q 503 534 449 571 l 503 194 q 332 80 438 80 q 230 136 271 80 q 189 312 189 191 m 503 115 q 527 14 503 45 q 602 -18 551 -18 q 742 62 669 -18 l 718 95 q 655 72 686 72 q 616 111 616 72 l 616 736 l 708 736 q 735 807 735 758 l 616 807 l 616 944 q 605 974 616 963 q 575 985 594 985 q 493 963 540 985 q 411 909 446 941 l 422 876 l 477 876 q 502 849 502 876 l 502 807 l 296 807 q 270 736 270 788 l 502 736 l 502 625 q 382 640 456 640 q 144 546 232 640 q 56 289 56 452 q 122 62 56 142 q 283 -18 189 -18 q 503 115 411 -18 z "},"Ē":{"ha":765,"x_min":56,"x_max":688,"o":"m 551 1055 q 585 1156 585 1082 l 245 1156 q 212 1055 212 1123 l 551 1055 m 688 -18 l 688 198 l 646 212 l 637 183 q 593 94 620 117 q 500 72 567 72 l 365 72 q 300 90 316 72 q 285 167 285 107 l 285 423 l 391 423 q 488 410 460 423 q 529 353 517 396 l 537 321 l 579 336 l 579 552 l 555 566 l 544 552 q 445 495 505 495 l 285 495 l 285 736 q 300 814 285 795 q 365 833 316 833 l 488 833 q 580 810 553 833 q 624 720 606 788 l 631 690 l 674 705 l 674 929 l 655 945 l 631 929 q 488 903 598 903 l 104 903 l 87 883 l 104 860 q 160 651 160 785 l 160 159 q 144 82 160 103 q 83 47 129 61 l 56 41 l 71 0 l 601 0 q 654 -18 637 0 l 663 -31 l 688 -18 z "},"ē":{"ha":665,"x_min":56,"x_max":601,"o":"m 511 776 q 543 876 543 803 l 205 876 q 172 776 172 849 l 511 776 m 595 95 q 601 107 601 106 q 589 130 601 119 q 567 141 578 141 q 556 137 560 141 q 372 65 483 65 q 233 128 281 65 q 186 304 186 191 q 231 508 186 437 q 358 579 277 579 q 446 543 414 579 q 477 457 477 507 q 435 357 477 399 q 317 315 393 315 q 263 323 288 315 q 236 331 239 331 q 218 302 218 331 q 267 258 218 273 q 357 244 315 244 q 532 308 467 244 q 597 456 597 372 q 541 587 597 533 q 382 640 486 640 q 145 548 235 640 q 56 304 56 456 q 135 71 56 159 q 346 -18 214 -18 q 595 95 499 -18 z "},"Ĕ":{"ha":765,"x_min":56,"x_max":688,"o":"m 555 1183 l 484 1183 q 460 1125 484 1146 q 400 1104 437 1104 q 336 1125 361 1104 q 311 1183 311 1146 l 241 1183 q 286 1053 241 1097 q 400 1008 330 1008 q 511 1053 468 1008 q 555 1183 555 1097 m 688 -18 l 688 198 l 646 212 l 637 183 q 593 94 620 117 q 500 72 567 72 l 365 72 q 300 90 316 72 q 285 167 285 107 l 285 423 l 391 423 q 488 410 460 423 q 529 353 517 396 l 537 321 l 579 336 l 579 552 l 555 566 l 544 552 q 445 495 505 495 l 285 495 l 285 736 q 300 814 285 795 q 365 833 316 833 l 488 833 q 580 810 553 833 q 624 720 606 788 l 631 690 l 674 705 l 674 929 l 655 945 l 631 929 q 488 903 598 903 l 104 903 l 87 883 l 104 860 q 160 651 160 785 l 160 159 q 144 82 160 103 q 83 47 129 61 l 56 41 l 71 0 l 601 0 q 654 -18 637 0 l 663 -31 l 688 -18 z "},"ĕ":{"ha":665,"x_min":56,"x_max":601,"o":"m 513 906 l 444 906 q 418 848 444 869 q 357 826 393 826 q 294 848 319 826 q 269 906 269 869 l 199 906 q 243 775 199 821 q 357 730 286 730 q 469 775 426 730 q 513 906 513 821 m 595 95 q 601 107 601 106 q 589 130 601 119 q 567 141 578 141 q 556 137 560 141 q 372 65 483 65 q 233 128 281 65 q 186 304 186 191 q 231 508 186 437 q 358 579 277 579 q 446 543 414 579 q 477 457 477 507 q 435 357 477 399 q 317 315 393 315 q 263 323 288 315 q 236 331 239 331 q 218 302 218 331 q 267 258 218 273 q 357 244 315 244 q 532 308 467 244 q 597 456 597 372 q 541 587 597 533 q 382 640 486 640 q 145 548 235 640 q 56 304 56 456 q 135 71 56 159 q 346 -18 214 -18 q 595 95 499 -18 z "},"Ė":{"ha":765,"x_min":56,"x_max":688,"o":"m 490 1105 q 458 1168 490 1135 q 400 1202 427 1202 q 342 1168 373 1202 q 311 1105 311 1135 q 342 1044 311 1077 q 400 1012 373 1012 q 458 1044 427 1012 q 490 1105 490 1077 m 688 -18 l 688 198 l 646 212 l 637 183 q 593 94 620 117 q 500 72 567 72 l 365 72 q 300 90 316 72 q 285 167 285 107 l 285 423 l 391 423 q 488 410 460 423 q 529 353 517 396 l 537 321 l 579 336 l 579 552 l 555 566 l 544 552 q 445 495 505 495 l 285 495 l 285 736 q 300 814 285 795 q 365 833 316 833 l 488 833 q 580 810 553 833 q 624 720 606 788 l 631 690 l 674 705 l 674 929 l 655 945 l 631 929 q 488 903 598 903 l 104 903 l 87 883 l 104 860 q 160 651 160 785 l 160 159 q 144 82 160 103 q 83 47 129 61 l 56 41 l 71 0 l 601 0 q 654 -18 637 0 l 663 -31 l 688 -18 z "},"ė":{"ha":665,"x_min":56,"x_max":601,"o":"m 442 827 q 411 890 442 857 q 351 924 380 924 q 294 890 324 924 q 263 827 263 857 q 295 766 263 800 q 351 732 327 732 q 411 766 380 732 q 442 827 442 799 m 595 95 q 601 107 601 106 q 589 130 601 119 q 567 141 578 141 q 556 137 560 141 q 372 65 483 65 q 233 128 281 65 q 186 304 186 191 q 231 508 186 437 q 358 579 277 579 q 446 543 414 579 q 477 457 477 507 q 435 357 477 399 q 317 315 393 315 q 263 323 288 315 q 236 331 239 331 q 218 302 218 331 q 267 258 218 273 q 357 244 315 244 q 532 308 467 244 q 597 456 597 372 q 541 587 597 533 q 382 640 486 640 q 145 548 235 640 q 56 304 56 456 q 135 71 56 159 q 346 -18 214 -18 q 595 95 499 -18 z "},"Ę":{"ha":765,"x_min":56,"x_max":723,"o":"m 723 -222 l 681 -184 q 536 -264 613 -264 q 464 -190 464 -264 q 614 0 464 -100 q 654 -18 637 -1 l 663 -31 l 688 -18 l 688 198 l 646 212 l 637 183 q 593 94 620 117 q 500 72 567 72 l 365 72 q 300 90 316 72 q 285 167 285 107 l 285 423 l 391 423 q 488 410 460 423 q 529 353 517 396 l 537 321 l 579 336 l 579 552 l 555 566 l 544 552 q 445 495 505 495 l 285 495 l 285 736 q 300 814 285 795 q 365 833 316 833 l 488 833 q 580 810 553 833 q 624 720 606 788 l 631 690 l 674 705 l 674 929 l 655 945 l 631 929 q 488 903 598 903 l 104 903 l 87 883 l 104 860 q 160 651 160 785 l 160 159 q 144 82 160 103 q 83 47 129 61 l 56 41 l 71 0 l 519 0 q 398 -110 435 -60 q 361 -218 361 -160 q 400 -315 361 -279 q 500 -351 439 -351 q 723 -222 620 -351 z "},"ę":{"ha":665,"x_min":56,"x_max":601,"o":"m 572 -218 l 532 -180 q 385 -260 464 -260 q 313 -186 313 -260 q 460 1 313 -98 q 595 95 538 28 q 601 107 601 106 q 589 130 601 119 q 567 141 578 141 q 556 137 560 141 q 372 65 483 65 q 233 128 281 65 q 186 304 186 191 q 231 508 186 437 q 358 579 277 579 q 446 543 414 579 q 477 457 477 507 q 435 357 477 399 q 317 315 393 315 q 263 323 288 315 q 236 331 239 331 q 218 302 218 331 q 267 258 218 273 q 357 244 315 244 q 532 308 467 244 q 597 456 597 372 q 541 587 597 533 q 382 640 486 640 q 145 548 235 640 q 56 304 56 456 q 133 72 56 160 q 340 -18 210 -16 q 241 -116 273 -71 q 210 -213 210 -161 q 250 -310 210 -274 q 351 -346 290 -346 q 572 -218 471 -346 z "},"Ě":{"ha":765,"x_min":56,"x_max":688,"o":"m 419 1004 q 490 1077 444 1019 q 574 1204 536 1135 l 534 1240 l 403 1133 l 271 1240 l 229 1204 q 314 1078 269 1135 q 385 1004 359 1020 l 419 1004 m 688 -18 l 688 198 l 646 212 l 637 183 q 593 94 620 117 q 500 72 567 72 l 365 72 q 300 90 316 72 q 285 167 285 107 l 285 423 l 391 423 q 488 410 460 423 q 529 353 517 396 l 537 321 l 579 336 l 579 552 l 555 566 l 544 552 q 445 495 505 495 l 285 495 l 285 736 q 300 814 285 795 q 365 833 316 833 l 488 833 q 580 810 553 833 q 624 720 606 788 l 631 690 l 674 705 l 674 929 l 655 945 l 631 929 q 488 903 598 903 l 104 903 l 87 883 l 104 860 q 160 651 160 785 l 160 159 q 144 82 160 103 q 83 47 129 61 l 56 41 l 71 0 l 601 0 q 654 -18 637 0 l 663 -31 l 688 -18 z "},"ě":{"ha":665,"x_min":56,"x_max":601,"o":"m 369 727 q 439 799 392 741 q 525 926 486 857 l 484 963 l 353 856 l 222 963 l 180 926 q 265 800 220 857 q 336 727 311 742 l 369 727 m 595 95 q 601 107 601 106 q 589 130 601 119 q 567 141 578 141 q 556 137 560 141 q 372 65 483 65 q 233 128 281 65 q 186 304 186 191 q 231 508 186 437 q 358 579 277 579 q 446 543 414 579 q 477 457 477 507 q 435 357 477 399 q 317 315 393 315 q 263 323 288 315 q 236 331 239 331 q 218 302 218 331 q 267 258 218 273 q 357 244 315 244 q 532 308 467 244 q 597 456 597 372 q 541 587 597 533 q 382 640 486 640 q 145 548 235 640 q 56 304 56 456 q 135 71 56 159 q 346 -18 214 -18 q 595 95 499 -18 z "},"Ĝ":{"ha":868,"x_min":45,"x_max":842,"o":"m 460 1099 l 591 994 l 632 1031 q 547 1156 594 1099 q 476 1227 499 1214 l 444 1227 q 372 1156 418 1213 q 288 1031 327 1099 l 330 994 l 460 1099 m 768 20 l 768 165 q 826 377 768 300 l 842 399 l 826 420 l 562 420 l 547 377 l 574 368 q 640 331 623 354 q 656 251 656 308 l 656 187 q 445 103 572 103 q 253 211 326 103 q 180 479 180 319 q 195 606 180 544 q 241 724 210 667 q 328 817 271 781 q 460 852 385 852 q 590 811 541 852 q 639 705 639 770 q 630 649 639 674 q 612 610 621 624 q 604 591 604 595 q 607 578 604 581 q 629 575 610 575 q 725 617 686 575 q 764 724 764 659 q 679 866 764 811 q 460 921 594 921 q 153 792 260 921 q 45 473 45 663 q 145 148 45 275 q 434 20 245 20 q 656 104 555 20 l 656 -15 q 615 -222 656 -159 q 491 -285 574 -285 q 397 -251 431 -285 q 362 -167 362 -217 q 378 -96 362 -126 q 409 -51 393 -66 q 425 -31 425 -35 q 401 -18 425 -18 q 283 -62 326 -18 q 241 -171 241 -107 q 301 -298 241 -244 q 471 -351 361 -351 q 768 20 768 -351 z "},"ĝ":{"ha":757,"x_min":75,"x_max":667,"o":"m 406 819 l 538 718 l 579 750 q 493 878 540 819 q 423 949 446 936 l 389 949 q 318 877 363 935 q 233 750 273 819 l 275 718 l 406 819 m 206 312 q 258 503 206 435 q 401 571 309 571 q 522 534 468 571 l 522 231 q 353 115 458 115 q 248 163 289 115 q 206 312 206 212 m 635 -27 l 635 521 q 652 571 635 548 l 667 594 l 654 610 q 529 627 614 613 q 403 640 444 640 q 163 546 251 640 q 75 289 75 452 q 140 90 75 160 q 301 19 206 19 q 522 152 427 19 l 522 -47 q 486 -220 522 -156 q 372 -285 449 -285 q 292 -251 321 -285 q 263 -167 263 -217 q 278 -96 263 -126 q 309 -51 293 -66 q 324 -31 324 -35 q 301 -18 324 -18 q 182 -62 225 -18 q 140 -171 140 -107 q 196 -298 140 -244 q 357 -351 252 -351 q 561 -267 487 -351 q 635 -27 635 -182 z "},"Ğ":{"ha":868,"x_min":45,"x_max":842,"o":"m 613 1183 l 544 1183 q 519 1125 544 1146 q 458 1104 495 1104 q 394 1125 419 1104 q 369 1183 369 1146 l 300 1183 q 344 1053 300 1097 q 458 1008 388 1008 q 570 1053 526 1008 q 613 1183 613 1097 m 768 20 l 768 165 q 826 377 768 300 l 842 399 l 826 420 l 562 420 l 547 377 l 574 368 q 640 331 623 354 q 656 251 656 308 l 656 187 q 445 103 572 103 q 253 211 326 103 q 180 479 180 319 q 195 606 180 544 q 241 724 210 667 q 328 817 271 781 q 460 852 385 852 q 590 811 541 852 q 639 705 639 770 q 630 649 639 674 q 612 610 621 624 q 604 591 604 595 q 607 578 604 581 q 629 575 610 575 q 725 617 686 575 q 764 724 764 659 q 679 866 764 811 q 460 921 594 921 q 153 792 260 921 q 45 473 45 663 q 145 148 45 275 q 434 20 245 20 q 656 104 555 20 l 656 -15 q 615 -222 656 -159 q 491 -285 574 -285 q 397 -251 431 -285 q 362 -167 362 -217 q 378 -96 362 -126 q 409 -51 393 -66 q 425 -31 425 -35 q 401 -18 425 -18 q 283 -62 326 -18 q 241 -171 241 -107 q 301 -298 241 -244 q 471 -351 361 -351 q 768 20 768 -351 z "},"ğ":{"ha":757,"x_min":75,"x_max":667,"o":"m 552 906 l 483 906 q 458 848 483 869 q 397 826 434 826 q 334 848 359 826 q 309 906 309 869 l 240 906 q 283 775 240 821 q 397 730 327 730 q 509 775 467 730 q 552 906 552 821 m 206 312 q 258 503 206 435 q 401 571 309 571 q 522 534 468 571 l 522 231 q 353 115 458 115 q 248 163 289 115 q 206 312 206 212 m 635 -27 l 635 521 q 652 571 635 548 l 667 594 l 654 610 q 529 627 614 613 q 403 640 444 640 q 163 546 251 640 q 75 289 75 452 q 140 90 75 160 q 301 19 206 19 q 522 152 427 19 l 522 -47 q 486 -220 522 -156 q 372 -285 449 -285 q 292 -251 321 -285 q 263 -167 263 -217 q 278 -96 263 -126 q 309 -51 293 -66 q 324 -31 324 -35 q 301 -18 324 -18 q 182 -62 225 -18 q 140 -171 140 -107 q 196 -298 140 -244 q 357 -351 252 -351 q 561 -267 487 -351 q 635 -27 635 -182 z "},"Ġ":{"ha":868,"x_min":45,"x_max":842,"o":"m 548 1105 q 517 1168 548 1135 q 458 1202 486 1202 q 400 1168 431 1202 q 369 1105 369 1135 q 400 1044 369 1077 q 458 1012 431 1012 q 517 1044 486 1012 q 548 1105 548 1077 m 768 20 l 768 165 q 826 377 768 300 l 842 399 l 826 420 l 562 420 l 547 377 l 574 368 q 640 331 623 354 q 656 251 656 308 l 656 187 q 445 103 572 103 q 253 211 326 103 q 180 479 180 319 q 195 606 180 544 q 241 724 210 667 q 328 817 271 781 q 460 852 385 852 q 590 811 541 852 q 639 705 639 770 q 630 649 639 674 q 612 610 621 624 q 604 591 604 595 q 607 578 604 581 q 629 575 610 575 q 725 617 686 575 q 764 724 764 659 q 679 866 764 811 q 460 921 594 921 q 153 792 260 921 q 45 473 45 663 q 145 148 45 275 q 434 20 245 20 q 656 104 555 20 l 656 -15 q 615 -222 656 -159 q 491 -285 574 -285 q 397 -251 431 -285 q 362 -167 362 -217 q 378 -96 362 -126 q 409 -51 393 -66 q 425 -31 425 -35 q 401 -18 425 -18 q 283 -62 326 -18 q 241 -171 241 -107 q 301 -298 241 -244 q 471 -351 361 -351 q 768 20 768 -351 z "},"ġ":{"ha":757,"x_min":75,"x_max":667,"o":"m 488 827 q 457 890 488 857 q 397 924 426 924 q 340 890 370 924 q 309 827 309 857 q 341 766 309 800 q 397 732 373 732 q 457 766 426 732 q 488 827 488 799 m 206 312 q 258 503 206 435 q 401 571 309 571 q 522 534 468 571 l 522 231 q 353 115 458 115 q 248 163 289 115 q 206 312 206 212 m 635 -27 l 635 521 q 652 571 635 548 l 667 594 l 654 610 q 529 627 614 613 q 403 640 444 640 q 163 546 251 640 q 75 289 75 452 q 140 90 75 160 q 301 19 206 19 q 522 152 427 19 l 522 -47 q 486 -220 522 -156 q 372 -285 449 -285 q 292 -251 321 -285 q 263 -167 263 -217 q 278 -96 263 -126 q 309 -51 293 -66 q 324 -31 324 -35 q 301 -18 324 -18 q 182 -62 225 -18 q 140 -171 140 -107 q 196 -298 140 -244 q 357 -351 252 -351 q 561 -267 487 -351 q 635 -27 635 -182 z "},"Ģ":{"ha":868,"x_min":45,"x_max":842,"o":"m 522 1021 l 545 1031 l 540 1061 l 515 1076 q 488 1123 488 1097 q 502 1175 488 1143 l 560 1287 l 522 1312 l 473 1259 q 395 1164 420 1202 q 370 1090 370 1126 q 453 1008 370 1008 q 522 1021 486 1008 m 768 20 l 768 165 q 826 377 768 300 l 842 399 l 826 420 l 562 420 l 547 377 l 574 368 q 640 331 623 354 q 656 251 656 308 l 656 187 q 445 103 572 103 q 253 211 326 103 q 180 479 180 319 q 195 606 180 544 q 241 724 210 667 q 328 817 271 781 q 460 852 385 852 q 590 811 541 852 q 639 705 639 770 q 630 649 639 674 q 612 610 621 624 q 604 591 604 595 q 607 578 604 581 q 629 575 610 575 q 725 617 686 575 q 764 724 764 659 q 679 866 764 811 q 460 921 594 921 q 153 792 260 921 q 45 473 45 663 q 145 148 45 275 q 434 20 245 20 q 656 104 555 20 l 656 -15 q 615 -222 656 -159 q 491 -285 574 -285 q 397 -251 431 -285 q 362 -167 362 -217 q 378 -96 362 -126 q 409 -51 393 -66 q 425 -31 425 -35 q 401 -18 425 -18 q 283 -62 326 -18 q 241 -171 241 -107 q 301 -298 241 -244 q 471 -351 361 -351 q 768 20 768 -351 z "},"ģ":{"ha":757,"x_min":75,"x_max":667,"o":"m 461 727 l 484 736 l 479 766 l 454 781 q 427 829 427 803 q 442 880 427 846 l 499 993 l 461 1017 l 412 964 q 336 870 361 909 q 311 796 311 831 q 392 713 311 713 q 461 727 425 713 m 206 312 q 258 503 206 435 q 401 571 309 571 q 522 534 468 571 l 522 231 q 353 115 458 115 q 248 163 289 115 q 206 312 206 212 m 635 -27 l 635 521 q 652 571 635 548 l 667 594 l 654 610 q 529 627 614 613 q 403 640 444 640 q 163 546 251 640 q 75 289 75 452 q 140 90 75 160 q 301 19 206 19 q 522 152 427 19 l 522 -47 q 486 -220 522 -156 q 372 -285 449 -285 q 292 -251 321 -285 q 263 -167 263 -217 q 278 -96 263 -126 q 309 -51 293 -66 q 324 -31 324 -35 q 301 -18 324 -18 q 182 -62 225 -18 q 140 -171 140 -107 q 196 -298 140 -244 q 357 -351 252 -351 q 561 -267 487 -351 q 635 -27 635 -182 z "},"Ĥ":{"ha":979,"x_min":50,"x_max":924,"o":"m 491 1099 l 623 994 l 662 1031 q 576 1156 624 1099 q 506 1227 529 1214 l 473 1227 q 402 1156 448 1213 q 317 1031 357 1099 l 359 994 l 491 1099 m 374 0 l 387 41 l 361 47 q 300 82 315 61 q 285 159 285 103 l 285 420 l 696 420 l 696 167 q 680 87 696 109 q 614 50 663 65 l 587 43 l 602 0 l 910 0 l 924 41 l 898 47 q 835 83 850 61 q 819 159 819 104 l 819 651 q 876 860 819 784 l 895 883 l 876 903 l 602 903 l 587 860 l 614 853 q 680 817 663 840 q 696 736 696 793 l 696 496 l 285 496 l 285 651 q 342 860 285 787 l 358 883 l 342 903 l 65 903 l 50 860 l 80 853 q 144 817 127 840 q 160 736 160 793 l 160 167 q 144 87 160 109 q 80 50 129 65 l 50 43 l 65 0 l 374 0 z "},"ĥ":{"ha":803,"x_min":4,"x_max":780,"o":"m 178 1099 l 309 994 l 349 1031 q 264 1156 311 1099 q 194 1227 217 1214 l 160 1227 q 89 1156 134 1213 q 4 1031 43 1099 l 46 994 l 178 1099 m 780 60 l 754 91 q 692 65 723 65 q 655 109 655 65 l 655 412 q 617 587 655 533 q 487 640 579 640 q 349 588 415 640 q 250 453 282 536 l 250 944 q 239 974 250 963 q 209 985 228 985 q 128 963 175 985 q 45 909 81 941 l 54 876 l 111 876 q 136 849 136 876 l 136 140 q 125 71 136 91 q 83 46 115 52 l 56 39 l 71 0 l 292 0 l 307 19 l 292 39 q 250 201 250 96 q 300 449 250 354 q 433 544 351 544 q 516 511 491 544 q 541 412 541 479 l 541 114 q 564 11 541 42 q 637 -20 586 -20 q 780 60 707 -20 z "},"Ħ":{"ha":979,"x_min":38,"x_max":941,"o":"m 285 625 l 696 625 l 696 496 l 285 496 l 285 625 m 374 0 l 387 41 l 361 47 q 300 82 315 61 q 285 159 285 103 l 285 420 l 696 420 l 696 167 q 680 87 696 109 q 614 50 663 65 l 587 43 l 602 0 l 910 0 l 924 41 l 898 47 q 835 83 850 61 q 819 159 819 104 l 819 625 l 890 625 q 941 703 941 650 l 821 703 q 876 860 826 791 l 895 883 l 876 903 l 602 903 l 587 860 l 614 853 q 680 817 663 840 q 696 736 696 793 l 696 703 l 286 703 q 342 860 292 796 l 358 883 l 342 903 l 65 903 l 50 860 l 80 853 q 144 817 127 840 q 160 736 160 793 l 160 703 l 88 703 q 38 625 38 682 l 160 625 l 160 167 q 144 87 160 109 q 80 50 129 65 l 50 43 l 65 0 l 374 0 z "},"ħ":{"ha":803,"x_min":18,"x_max":780,"o":"m 780 60 l 754 91 q 692 65 723 65 q 655 109 655 65 l 655 412 q 617 587 655 533 q 487 640 579 640 q 349 588 415 640 q 250 453 282 536 l 250 736 l 456 736 q 481 807 481 757 l 250 807 l 250 944 q 239 974 250 963 q 209 985 228 985 q 128 963 175 985 q 45 909 81 941 l 54 876 l 111 876 q 136 849 136 876 l 136 807 l 43 807 q 18 736 18 788 l 136 736 l 136 140 q 125 71 136 91 q 83 46 115 52 l 56 39 l 71 0 l 292 0 l 307 19 l 292 39 q 250 201 250 96 q 300 449 250 354 q 433 544 351 544 q 516 511 491 544 q 541 412 541 479 l 541 114 q 564 11 541 42 q 637 -20 586 -20 q 780 60 707 -20 z "},"Ĩ":{"ha":444,"x_min":18,"x_max":426,"o":"m 148 1070 q 201 1048 165 1070 q 266 1027 236 1027 q 344 1059 301 1027 q 426 1149 387 1092 l 382 1188 q 298 1139 334 1139 q 244 1160 279 1139 q 180 1181 209 1181 q 18 1061 104 1181 l 62 1021 q 148 1070 115 1070 m 374 0 l 387 41 l 361 47 q 300 82 315 61 q 285 159 285 103 l 285 651 q 342 860 285 787 l 358 883 l 342 903 l 65 903 l 50 860 l 80 853 q 144 817 127 840 q 160 736 160 793 l 160 167 q 144 87 160 109 q 80 50 129 65 l 50 43 l 65 0 l 374 0 z "},"ĩ":{"ha":365,"x_min":-23,"x_max":385,"o":"m 106 792 q 159 770 123 792 q 225 749 194 749 q 303 782 260 749 q 385 871 346 815 l 343 910 q 256 860 292 860 q 203 882 239 860 q 138 905 167 905 q -23 784 66 905 l 22 743 q 106 792 66 792 m 374 62 l 351 95 q 288 68 319 68 q 250 111 250 68 l 250 602 q 239 630 250 620 q 209 640 228 640 q 127 619 174 640 q 45 566 81 598 l 54 534 l 111 534 q 136 505 136 534 l 136 115 q 159 14 136 45 q 233 -18 182 -18 q 374 62 301 -18 z "},"Ī":{"ha":444,"x_min":37,"x_max":408,"o":"m 376 1055 q 408 1156 408 1081 l 69 1156 q 37 1055 37 1124 l 376 1055 m 374 0 l 387 41 l 361 47 q 300 82 315 61 q 285 159 285 103 l 285 651 q 342 860 285 787 l 358 883 l 342 903 l 65 903 l 50 860 l 80 853 q 144 817 127 840 q 160 736 160 793 l 160 167 q 144 87 160 109 q 80 50 129 65 l 50 43 l 65 0 l 374 0 z "},"ī":{"ha":365,"x_min":18,"x_max":388,"o":"m 357 776 q 388 876 388 803 l 50 876 q 18 776 18 849 l 357 776 m 374 62 l 351 95 q 288 68 319 68 q 250 111 250 68 l 250 602 q 239 630 250 620 q 209 640 228 640 q 127 619 174 640 q 45 566 81 598 l 54 534 l 111 534 q 136 505 136 534 l 136 115 q 159 14 136 45 q 233 -18 182 -18 q 374 62 301 -18 z "},"Ĭ":{"ha":444,"x_min":50,"x_max":387,"o":"m 378 1183 l 309 1183 q 285 1125 309 1146 q 224 1104 260 1104 q 159 1125 184 1104 q 134 1183 134 1146 l 65 1183 q 109 1053 65 1097 q 224 1008 153 1008 q 335 1053 292 1008 q 378 1183 378 1097 m 374 0 l 387 41 l 361 47 q 300 82 315 61 q 285 159 285 103 l 285 651 q 342 860 285 787 l 358 883 l 342 903 l 65 903 l 50 860 l 80 853 q 144 817 127 840 q 160 736 160 793 l 160 167 q 144 87 160 109 q 80 50 129 65 l 50 43 l 65 0 l 374 0 z "},"ĭ":{"ha":392,"x_min":39,"x_max":374,"o":"m 353 906 l 283 906 q 258 848 283 869 q 197 826 233 826 q 134 848 159 826 q 109 906 109 869 l 39 906 q 83 775 39 821 q 197 730 126 730 q 309 775 266 730 q 353 906 353 821 m 374 62 l 351 95 q 288 68 319 68 q 250 111 250 68 l 250 602 q 239 630 250 620 q 209 640 228 640 q 127 619 174 640 q 45 566 81 598 l 54 534 l 111 534 q 136 505 136 534 l 136 115 q 159 14 136 45 q 233 -18 182 -18 q 374 62 301 -18 z "},"Į":{"ha":444,"x_min":50,"x_max":429,"o":"m 429 -222 l 387 -184 q 241 -264 319 -264 q 188 -245 208 -264 q 168 -190 168 -227 q 320 0 168 -102 l 374 0 l 387 41 l 361 47 q 300 82 315 61 q 285 159 285 103 l 285 651 q 342 860 285 787 l 358 883 l 342 903 l 65 903 l 50 860 l 80 853 q 144 817 127 840 q 160 736 160 793 l 160 167 q 144 87 160 109 q 80 50 129 65 l 50 43 l 65 0 l 225 0 q 104 -110 141 -60 q 66 -218 66 -160 q 106 -315 66 -279 q 206 -351 145 -351 q 429 -222 326 -351 z "},"į":{"ha":392,"x_min":42,"x_max":404,"o":"m 271 827 q 243 881 271 852 q 191 910 216 910 q 142 881 170 910 q 115 827 115 852 q 143 775 115 804 q 191 746 171 746 q 243 775 216 746 q 271 827 271 804 m 404 -222 l 362 -184 q 217 -264 294 -264 q 163 -245 183 -264 q 144 -190 144 -227 q 296 0 144 -102 q 374 62 339 23 l 351 95 q 288 68 319 68 q 250 111 250 68 l 250 602 q 239 630 250 620 q 209 640 228 640 q 127 619 174 640 q 45 566 81 598 l 54 534 l 111 534 q 136 505 136 534 l 136 115 q 187 -9 136 11 q 77 -114 111 -65 q 42 -218 42 -163 q 81 -315 42 -279 q 182 -351 121 -351 q 404 -222 301 -351 z "},"İ":{"ha":444,"x_min":50,"x_max":387,"o":"m 311 1105 q 279 1168 311 1135 q 221 1202 248 1202 q 163 1168 194 1202 q 132 1105 132 1135 q 163 1044 132 1077 q 221 1012 194 1012 q 279 1044 248 1012 q 311 1105 311 1077 m 374 0 l 387 41 l 361 47 q 300 82 315 61 q 285 159 285 103 l 285 651 q 342 860 285 787 l 358 883 l 342 903 l 65 903 l 50 860 l 80 853 q 144 817 127 840 q 160 736 160 793 l 160 167 q 144 87 160 109 q 80 50 129 65 l 50 43 l 65 0 l 374 0 z "},"ı":{"ha":392,"x_min":45,"x_max":374,"o":"m 374 62 l 351 95 q 288 68 319 68 q 250 111 250 68 l 250 602 q 239 630 250 620 q 209 640 228 640 q 127 619 174 640 q 45 566 81 598 l 54 534 l 111 534 q 136 505 136 534 l 136 115 q 159 14 136 45 q 233 -18 182 -18 q 374 62 301 -18 z "},"Ĳ":{"ha":1034,"x_min":50,"x_max":985,"o":"m 374 0 l 387 41 l 361 47 q 300 82 315 61 q 285 159 285 103 l 285 651 q 342 860 285 787 l 358 883 l 342 903 l 65 903 l 50 860 l 80 853 q 144 817 127 840 q 160 736 160 793 l 160 167 q 144 87 160 109 q 80 50 129 65 l 50 43 l 65 0 l 374 0 m 911 297 l 911 651 q 967 860 911 785 l 985 883 l 967 903 l 693 903 l 678 860 l 705 853 q 771 817 754 840 q 788 736 788 793 l 788 221 q 656 47 788 47 q 573 81 604 47 q 543 165 543 115 q 557 235 543 205 q 588 280 572 264 q 604 301 604 296 q 579 315 604 315 q 463 270 505 315 q 420 163 420 225 q 480 36 420 90 q 648 -18 540 -18 q 911 297 911 -18 z "},"ĳ":{"ha":757,"x_min":45,"x_max":658,"o":"m 658 827 q 630 881 658 852 q 579 910 602 910 q 530 881 557 910 q 502 827 502 852 q 530 775 502 804 q 579 746 557 746 q 630 775 602 746 q 658 827 658 804 m 271 827 q 243 881 271 852 q 191 910 216 910 q 142 881 170 910 q 115 827 115 852 q 143 775 115 804 q 191 746 171 746 q 243 775 216 746 q 271 827 271 804 m 374 62 l 351 95 q 288 68 319 68 q 250 111 250 68 l 250 602 q 239 630 250 620 q 209 640 228 640 q 127 619 174 640 q 45 566 81 598 l 54 534 l 111 534 q 136 505 136 534 l 136 115 q 159 14 136 45 q 233 -18 182 -18 q 374 62 301 -18 m 636 -66 l 636 602 q 625 630 636 620 q 595 640 614 640 q 513 619 560 640 q 431 566 467 598 l 442 534 l 498 534 q 522 505 522 534 l 522 -164 q 497 -262 522 -228 q 434 -296 472 -296 q 385 -273 404 -296 q 365 -212 365 -251 q 374 -165 365 -186 q 391 -135 382 -145 q 400 -122 400 -125 q 377 -109 400 -109 q 288 -141 323 -109 q 252 -222 252 -174 q 296 -316 252 -281 q 408 -351 340 -351 q 578 -275 521 -351 q 636 -66 636 -198 z "},"Ĵ":{"ha":590,"x_min":-24,"x_max":567,"o":"m 396 1099 l 526 994 l 567 1031 q 481 1156 529 1099 q 411 1227 434 1214 l 378 1227 q 307 1156 353 1213 q 222 1031 262 1099 l 264 994 l 396 1099 m 468 297 l 468 651 q 522 860 468 788 l 540 883 l 522 903 l 248 903 l 233 860 l 262 853 q 327 817 311 840 q 343 736 343 793 l 343 221 q 212 47 343 47 q 128 81 159 47 q 98 165 98 115 q 113 235 98 205 q 143 280 127 264 q 159 301 159 296 q 134 315 159 315 q 18 270 60 315 q -24 163 -24 225 q 35 36 -24 90 q 203 -18 95 -18 q 468 297 468 -18 z "},"ĵ":{"ha":366,"x_min":-140,"x_max":359,"o":"m 186 819 l 319 718 l 359 750 q 273 878 320 819 q 203 949 227 936 l 171 949 q 100 877 145 935 q 15 750 54 819 l 56 718 l 186 819 m 244 -66 l 244 602 q 233 630 244 620 q 203 640 222 640 q 121 619 168 640 q 39 566 75 598 l 49 534 l 106 534 q 130 505 130 534 l 130 -164 q 105 -262 130 -228 q 42 -296 80 -296 q -7 -273 12 -296 q -27 -212 -27 -251 q -19 -165 -27 -186 q -2 -135 -11 -145 q 7 -122 7 -125 q -16 -109 7 -109 q -105 -141 -71 -109 q -140 -222 -140 -174 q -96 -316 -140 -281 q 16 -351 -52 -351 q 186 -275 129 -351 q 244 -66 244 -198 z "},"Ķ":{"ha":841,"x_min":50,"x_max":818,"o":"m 374 0 l 387 41 l 361 47 q 300 82 315 61 q 285 159 285 103 l 285 651 q 342 860 285 787 l 358 883 l 342 903 l 65 903 l 50 860 l 80 853 q 144 817 127 840 q 160 736 160 793 l 160 167 q 144 87 160 109 q 80 50 129 65 l 50 43 l 65 0 l 374 0 m 438 -315 q 516 -220 491 -256 q 541 -148 541 -183 q 458 -64 541 -64 q 389 -77 426 -64 l 366 -87 l 372 -117 l 397 -132 q 425 -179 425 -153 q 410 -231 425 -197 l 353 -343 l 389 -368 l 438 -315 m 818 33 l 798 69 q 749 52 774 52 q 700 90 726 52 l 540 377 q 453 457 509 431 l 680 785 q 777 853 718 840 l 807 860 l 792 903 l 563 903 l 540 883 l 551 860 q 567 804 567 819 q 541 732 567 774 l 369 479 l 340 479 q 315 449 315 479 q 320 435 315 437 q 385 378 365 414 l 536 106 q 608 13 570 43 q 703 -18 646 -18 q 818 33 769 -18 z "},"ķ":{"ha":734,"x_min":45,"x_max":709,"o":"m 359 -315 q 436 -220 411 -258 q 461 -148 461 -183 q 380 -64 461 -64 q 311 -77 347 -64 l 288 -87 l 293 -117 l 317 -132 q 345 -179 345 -153 q 331 -231 345 -199 l 273 -343 l 311 -368 l 359 -315 m 709 62 l 682 95 q 616 62 654 62 q 563 98 582 62 l 467 285 q 603 351 553 294 q 652 477 652 407 q 607 593 652 547 q 479 640 562 640 q 346 588 410 640 q 250 453 282 536 l 250 944 q 239 974 250 963 q 209 985 228 985 q 128 963 175 985 q 45 909 81 941 l 54 876 l 111 876 q 136 849 136 876 l 136 140 q 125 71 136 91 q 83 46 115 52 l 56 39 l 71 0 l 292 0 l 307 19 l 292 39 q 250 201 250 92 q 304 458 250 361 q 453 556 359 556 q 516 530 494 556 q 538 467 538 505 q 500 376 538 416 q 393 335 461 335 q 340 341 363 335 q 313 347 316 347 q 294 323 294 347 q 317 297 294 302 l 330 293 l 423 115 q 456 57 445 75 q 485 18 467 39 q 524 -10 503 -3 q 574 -18 544 -18 q 709 62 651 -18 z "},"ĸ":{"ha":709,"x_min":39,"x_max":697,"o":"m 334 0 l 346 38 l 321 45 q 264 77 278 58 q 251 145 251 95 l 251 392 q 302 587 251 515 l 317 608 l 302 625 l 52 625 l 39 587 l 64 579 q 123 546 109 567 q 138 472 138 525 l 138 153 q 123 80 138 100 q 64 47 109 60 l 39 39 l 52 0 l 334 0 m 697 28 l 677 64 q 631 47 655 47 q 589 81 610 47 l 491 240 q 414 317 468 290 l 557 515 q 650 579 594 567 l 674 586 l 661 625 l 456 625 l 435 606 l 445 586 q 454 543 454 566 q 429 471 454 510 l 330 334 l 307 334 q 285 308 285 334 q 290 293 285 296 q 349 241 326 277 l 435 96 q 504 10 469 38 q 590 -18 538 -18 q 697 28 651 -18 z "},"Ĺ":{"ha":690,"x_min":50,"x_max":662,"o":"m 271 1063 q 342 1156 342 1099 q 289 1234 342 1207 l 92 1038 l 129 994 l 271 1063 m 662 -18 l 662 198 l 618 212 l 612 183 q 567 94 594 117 q 475 72 540 72 l 365 72 q 300 90 316 72 q 285 167 285 107 l 285 651 q 342 860 285 787 l 358 883 l 342 903 l 65 903 l 50 860 l 80 853 q 144 817 127 840 q 160 736 160 793 l 160 159 q 144 82 160 103 q 83 47 129 61 l 56 41 l 71 0 l 572 0 q 627 -18 614 0 l 636 -31 l 662 -18 z "},"ĺ":{"ha":378,"x_min":31,"x_max":361,"o":"m 216 1063 q 286 1156 286 1099 q 232 1234 286 1207 l 37 1038 l 72 994 l 216 1063 m 361 62 l 336 95 q 274 68 308 68 q 236 111 236 68 l 239 944 q 228 974 239 963 q 198 985 217 985 q 114 963 161 985 q 31 909 66 941 l 43 876 l 98 876 q 122 849 122 876 l 122 115 q 145 14 122 45 q 221 -18 168 -18 q 361 62 290 -18 z "},"Ļ":{"ha":690,"x_min":50,"x_max":662,"o":"m 362 -315 q 440 -220 415 -256 q 465 -148 465 -183 q 382 -64 465 -64 q 313 -77 350 -64 l 290 -87 l 296 -117 l 320 -132 q 347 -179 347 -153 q 334 -231 347 -199 l 275 -343 l 313 -368 l 362 -315 m 662 -18 l 662 198 l 618 212 l 612 183 q 567 94 594 117 q 475 72 540 72 l 365 72 q 300 90 316 72 q 285 167 285 107 l 285 651 q 342 860 285 787 l 358 883 l 342 903 l 65 903 l 50 860 l 80 853 q 144 817 127 840 q 160 736 160 793 l 160 159 q 144 82 160 103 q 83 47 129 61 l 56 41 l 71 0 l 572 0 q 627 -18 614 0 l 636 -31 l 662 -18 z "},"ļ":{"ha":378,"x_min":31,"x_max":361,"o":"m 182 -315 q 260 -220 235 -256 q 285 -148 285 -183 q 202 -64 285 -64 q 133 -77 170 -64 l 110 -87 l 115 -117 l 140 -132 q 167 -179 167 -153 q 153 -231 167 -199 l 95 -343 l 133 -368 l 182 -315 m 361 62 l 336 95 q 274 68 308 68 q 236 111 236 68 l 239 944 q 228 974 239 963 q 198 985 217 985 q 114 963 161 985 q 31 909 66 941 l 43 876 l 98 876 q 122 849 122 876 l 122 115 q 145 14 122 45 q 221 -18 168 -18 q 361 62 290 -18 z "},"Ľ":{"ha":690,"x_min":50,"x_max":662,"o":"m 499 804 q 577 899 552 863 q 602 971 602 936 q 519 1055 602 1055 q 450 1040 490 1055 l 427 1032 l 433 1002 l 457 986 q 484 941 484 967 q 471 888 484 917 l 412 774 l 450 750 l 499 804 m 662 -18 l 662 198 l 618 212 l 612 183 q 567 94 594 117 q 475 72 540 72 l 365 72 q 300 90 316 72 q 285 167 285 107 l 285 651 q 342 860 285 787 l 358 883 l 342 903 l 65 903 l 50 860 l 80 853 q 144 817 127 840 q 160 736 160 793 l 160 159 q 144 82 160 103 q 83 47 129 61 l 56 41 l 71 0 l 572 0 q 627 -18 614 0 l 636 -31 l 662 -18 z "},"ľ":{"ha":444,"x_min":31,"x_max":476,"o":"m 374 804 q 451 899 426 861 q 476 971 476 936 q 393 1055 476 1055 q 324 1040 363 1055 l 301 1032 l 308 1002 l 332 986 q 359 941 359 967 q 345 888 359 921 l 288 774 l 324 750 l 374 804 m 361 62 l 336 95 q 274 68 308 68 q 236 111 236 68 l 239 944 q 228 974 239 963 q 198 985 217 985 q 114 963 161 985 q 31 909 66 941 l 43 876 l 98 876 q 122 849 122 876 l 122 115 q 145 14 122 45 q 221 -18 168 -18 q 361 62 290 -18 z "},"Ŀ":{"ha":690,"x_min":50,"x_max":662,"o":"m 585 532 q 556 586 585 557 q 505 614 528 614 q 455 586 481 614 q 429 532 429 557 q 456 479 429 509 q 505 450 483 450 q 556 479 528 450 q 585 532 585 509 m 662 -18 l 662 198 l 618 212 l 612 183 q 567 94 594 117 q 475 72 540 72 l 365 72 q 300 90 316 72 q 285 167 285 107 l 285 651 q 342 860 285 787 l 358 883 l 342 903 l 65 903 l 50 860 l 80 853 q 144 817 127 840 q 160 736 160 793 l 160 159 q 144 82 160 103 q 83 47 129 61 l 56 41 l 71 0 l 572 0 q 627 -18 614 0 l 636 -31 l 662 -18 z "},"ŀ":{"ha":458,"x_min":31,"x_max":458,"o":"m 458 532 q 431 586 458 557 q 380 614 403 614 q 330 586 357 614 q 302 532 302 557 q 330 479 302 509 q 380 450 358 450 q 431 479 403 450 q 458 532 458 509 m 361 62 l 336 95 q 274 68 308 68 q 236 111 236 68 l 239 944 q 228 974 239 963 q 198 985 217 985 q 114 963 161 985 q 31 909 66 941 l 43 876 l 98 876 q 122 849 122 876 l 122 115 q 145 14 122 45 q 221 -18 168 -18 q 361 62 290 -18 z "},"Ł":{"ha":690,"x_min":31,"x_max":662,"o":"m 662 -18 l 662 198 l 618 212 l 612 183 q 567 94 594 117 q 475 72 540 72 l 365 72 q 300 90 316 72 q 285 167 285 107 l 285 433 l 384 483 q 409 517 403 492 q 415 597 415 541 l 285 532 l 285 651 q 342 860 285 787 l 358 883 l 342 903 l 65 903 l 50 860 l 80 853 q 144 817 127 840 q 160 736 160 793 l 160 469 l 62 420 q 38 387 45 411 q 31 308 31 362 l 160 370 l 160 159 q 144 82 160 103 q 83 47 129 61 l 56 41 l 71 0 l 572 0 q 627 -18 614 0 l 636 -31 l 662 -18 z "},"ł":{"ha":378,"x_min":-7,"x_max":377,"o":"m 361 62 l 336 95 q 274 68 308 68 q 236 111 236 68 l 236 429 l 345 483 q 370 517 363 492 q 377 597 377 541 l 236 526 l 239 944 q 228 974 239 963 q 198 985 217 985 q 114 963 161 985 q 31 909 66 941 l 43 876 l 98 876 q 122 849 122 876 l 122 469 l 23 420 q -1 387 5 411 q -7 308 -7 362 l 122 372 l 122 115 q 145 14 122 45 q 221 -18 168 -18 q 361 62 290 -18 z "},"Ń":{"ha":979,"x_min":43,"x_max":903,"o":"m 578 1063 q 648 1156 648 1099 q 594 1234 648 1207 l 399 1038 l 434 994 l 578 1063 m 297 0 l 313 20 l 297 43 q 254 130 266 84 q 241 252 241 175 l 241 712 l 720 0 l 848 0 l 863 20 l 848 43 q 829 111 829 71 l 829 651 q 884 860 829 785 l 903 883 l 884 903 l 648 903 l 631 860 l 661 853 q 726 817 709 840 q 742 736 742 793 l 742 190 l 260 903 l 58 903 l 43 860 l 72 853 q 136 817 119 840 q 152 736 152 793 l 152 167 q 136 87 152 109 q 72 50 121 65 l 43 43 l 58 0 l 297 0 z "},"ń":{"ha":808,"x_min":50,"x_max":785,"o":"m 503 787 q 572 876 572 821 q 519 956 572 930 l 324 760 l 361 718 l 503 787 m 785 62 l 761 95 q 699 68 730 68 q 661 111 661 68 l 661 415 q 620 586 661 532 q 492 640 579 640 q 355 588 420 640 q 256 453 289 536 l 256 590 q 245 618 256 608 q 217 629 235 629 q 134 608 182 629 q 50 555 87 587 l 62 521 l 117 521 q 141 494 141 521 l 141 140 q 131 71 141 91 q 88 46 121 52 l 64 39 l 76 0 l 297 0 l 312 19 l 297 39 q 256 201 256 96 q 307 449 256 354 q 438 544 357 544 q 547 415 547 544 l 547 115 q 569 13 547 43 q 643 -18 591 -18 q 785 62 715 -18 z "},"Ņ":{"ha":979,"x_min":43,"x_max":903,"o":"m 480 -315 q 558 -220 533 -256 q 583 -148 583 -183 q 500 -64 583 -64 q 431 -77 468 -64 l 408 -87 l 414 -117 l 438 -132 q 467 -179 467 -153 q 452 -231 467 -197 l 393 -343 l 431 -368 l 480 -315 m 297 0 l 313 20 l 297 43 q 254 130 266 84 q 241 252 241 175 l 241 712 l 720 0 l 848 0 l 863 20 l 848 43 q 829 111 829 71 l 829 651 q 884 860 829 785 l 903 883 l 884 903 l 648 903 l 631 860 l 661 853 q 726 817 709 840 q 742 736 742 793 l 742 190 l 260 903 l 58 903 l 43 860 l 72 853 q 136 817 119 840 q 152 736 152 793 l 152 167 q 136 87 152 109 q 72 50 121 65 l 43 43 l 58 0 l 297 0 z "},"ņ":{"ha":808,"x_min":50,"x_max":785,"o":"m 397 -315 q 474 -220 449 -258 q 499 -148 499 -183 q 416 -64 499 -64 q 347 -77 384 -64 l 324 -87 l 331 -117 l 355 -132 q 382 -179 382 -153 q 368 -231 382 -197 l 311 -343 l 347 -368 l 397 -315 m 785 62 l 761 95 q 699 68 730 68 q 661 111 661 68 l 661 415 q 620 586 661 532 q 492 640 579 640 q 355 588 420 640 q 256 453 289 536 l 256 590 q 245 618 256 608 q 217 629 235 629 q 134 608 182 629 q 50 555 87 587 l 62 521 l 117 521 q 141 494 141 521 l 141 140 q 131 71 141 91 q 88 46 121 52 l 64 39 l 76 0 l 297 0 l 312 19 l 297 39 q 256 201 256 96 q 307 449 256 354 q 438 544 357 544 q 547 415 547 544 l 547 115 q 569 13 547 43 q 643 -18 591 -18 q 785 62 715 -18 z "},"Ň":{"ha":979,"x_min":43,"x_max":903,"o":"m 506 1004 q 577 1077 530 1019 q 662 1204 624 1135 l 623 1240 l 491 1133 l 359 1240 l 317 1204 q 402 1078 357 1135 q 473 1004 448 1020 l 506 1004 m 297 0 l 313 20 l 297 43 q 254 130 266 84 q 241 252 241 175 l 241 712 l 720 0 l 848 0 l 863 20 l 848 43 q 829 111 829 71 l 829 651 q 884 860 829 785 l 903 883 l 884 903 l 648 903 l 631 860 l 661 853 q 726 817 709 840 q 742 736 742 793 l 742 190 l 260 903 l 58 903 l 43 860 l 72 853 q 136 817 119 840 q 152 736 152 793 l 152 167 q 136 87 152 109 q 72 50 121 65 l 43 43 l 58 0 l 297 0 z "},"ň":{"ha":808,"x_min":50,"x_max":785,"o":"m 423 727 q 493 799 446 741 q 579 926 540 857 l 538 963 l 406 856 l 275 963 l 233 926 q 318 800 273 857 q 389 727 363 742 l 423 727 m 785 62 l 761 95 q 699 68 730 68 q 661 111 661 68 l 661 415 q 620 586 661 532 q 492 640 579 640 q 355 588 420 640 q 256 453 289 536 l 256 590 q 245 618 256 608 q 217 629 235 629 q 134 608 182 629 q 50 555 87 587 l 62 521 l 117 521 q 141 494 141 521 l 141 140 q 131 71 141 91 q 88 46 121 52 l 64 39 l 76 0 l 297 0 l 312 19 l 297 39 q 256 201 256 96 q 307 449 256 354 q 438 544 357 544 q 547 415 547 544 l 547 115 q 569 13 547 43 q 643 -18 591 -18 q 785 62 715 -18 z "},"ŉ":{"ha":808,"x_min":-45,"x_max":772,"o":"m 42 635 q 119 729 94 690 q 144 803 144 768 q 62 886 144 886 q -7 872 30 886 l -30 863 l -24 833 l 0 818 q 27 770 27 796 q 14 719 27 750 l -45 606 l -7 582 l 42 635 m 772 62 l 747 95 q 685 68 716 68 q 648 111 648 68 l 648 415 q 608 586 648 532 q 479 640 567 640 q 342 588 407 640 q 244 453 277 536 l 244 590 q 233 618 244 608 q 203 629 221 629 q 121 608 168 629 q 38 555 75 587 l 49 521 l 104 521 q 129 494 129 521 l 129 140 q 118 71 129 91 q 75 46 107 52 l 50 39 l 64 0 l 285 0 l 298 19 l 285 39 q 244 201 244 96 q 294 449 244 354 q 426 544 345 544 q 534 415 534 544 l 534 115 q 557 13 534 43 q 631 -18 579 -18 q 772 62 701 -18 z "},"Ŋ":{"ha":979,"x_min":43,"x_max":903,"o":"m 829 -66 l 829 651 q 884 860 829 785 l 903 883 l 884 903 l 648 903 l 631 860 l 661 853 q 726 817 709 840 q 742 736 742 793 l 742 190 l 260 903 l 58 903 l 43 860 l 72 853 q 136 817 119 840 q 152 736 152 793 l 152 167 q 136 87 152 109 q 72 50 121 65 l 43 43 l 58 0 l 297 0 l 313 20 l 297 43 q 254 130 266 84 q 241 252 241 175 l 241 712 l 716 7 l 716 -164 q 690 -262 716 -229 q 627 -296 665 -296 q 577 -273 597 -296 q 557 -212 557 -250 q 566 -165 557 -186 q 584 -135 575 -145 q 593 -122 593 -125 q 568 -109 593 -109 q 479 -141 514 -109 q 445 -222 445 -174 q 489 -316 445 -281 q 602 -351 533 -351 q 772 -275 715 -351 q 829 -66 829 -198 z "},"ŋ":{"ha":783,"x_min":50,"x_max":661,"o":"m 661 -66 l 661 415 q 620 586 661 532 q 492 640 579 640 q 355 588 420 640 q 256 453 289 536 l 256 590 q 245 618 256 608 q 217 629 235 629 q 134 608 182 629 q 50 555 87 587 l 62 521 l 117 521 q 141 494 141 521 l 141 140 q 131 71 141 91 q 88 46 121 52 l 64 39 l 76 0 l 297 0 l 312 19 l 297 39 q 256 201 256 96 q 307 449 256 354 q 438 544 357 544 q 547 415 547 544 l 547 -164 q 522 -262 547 -228 q 458 -296 496 -296 q 409 -273 429 -296 q 389 -212 389 -251 q 398 -165 389 -186 q 416 -135 407 -145 q 426 -122 426 -125 q 403 -109 426 -109 q 313 -141 349 -109 q 278 -222 278 -174 q 322 -316 278 -281 q 434 -351 366 -351 q 604 -275 547 -351 q 661 -66 661 -198 z "},"Ō":{"ha":921,"x_min":45,"x_max":878,"o":"m 614 1055 q 648 1156 648 1082 l 309 1156 q 275 1055 275 1123 l 614 1055 m 180 439 q 258 732 180 614 q 468 850 335 850 q 600 810 544 850 q 686 707 656 770 q 728 577 715 643 q 742 446 742 511 q 665 168 742 279 q 454 56 587 56 q 252 164 323 56 q 180 439 180 273 m 770 113 q 824 179 770 113 q 878 450 878 244 q 770 789 878 656 q 460 921 662 921 q 151 789 258 921 q 45 450 45 656 q 151 113 45 244 q 460 -18 258 -18 q 770 113 662 -18 z "},"ō":{"ha":727,"x_min":56,"x_max":671,"o":"m 518 776 q 549 876 549 803 l 212 876 q 179 776 179 849 l 518 776 m 234 121 q 211 156 234 121 q 187 311 187 191 q 237 503 187 430 q 368 575 286 575 q 470 528 429 575 q 525 425 511 481 q 538 309 538 369 q 489 121 538 193 q 361 50 439 50 q 234 121 281 50 m 588 72 q 630 117 588 72 q 671 312 671 161 q 588 551 671 463 q 363 640 505 640 q 139 552 222 640 q 56 312 56 464 q 139 72 56 161 q 363 -18 222 -18 q 588 72 505 -18 z "},"Ŏ":{"ha":921,"x_min":45,"x_max":878,"o":"m 617 1183 l 548 1183 q 524 1125 548 1146 q 464 1104 500 1104 q 399 1125 425 1104 q 374 1183 374 1146 l 304 1183 q 348 1053 304 1097 q 464 1008 392 1008 q 574 1053 532 1008 q 617 1183 617 1097 m 180 439 q 258 732 180 614 q 468 850 335 850 q 600 810 544 850 q 686 707 656 770 q 728 577 715 643 q 742 446 742 511 q 665 168 742 279 q 454 56 587 56 q 252 164 323 56 q 180 439 180 273 m 770 113 q 824 179 770 113 q 878 450 878 244 q 770 789 878 656 q 460 921 662 921 q 151 789 258 921 q 45 450 45 656 q 151 113 45 244 q 460 -18 258 -18 q 770 113 662 -18 z "},"ŏ":{"ha":727,"x_min":56,"x_max":671,"o":"m 519 906 l 450 906 q 425 848 450 869 q 363 826 400 826 q 300 848 326 826 q 275 906 275 869 l 206 906 q 250 775 206 821 q 363 730 293 730 q 476 775 433 730 q 519 906 519 821 m 234 121 q 211 156 234 121 q 187 311 187 191 q 237 503 187 430 q 368 575 286 575 q 470 528 429 575 q 525 425 511 481 q 538 309 538 369 q 489 121 538 193 q 361 50 439 50 q 234 121 281 50 m 588 72 q 630 117 588 72 q 671 312 671 161 q 588 551 671 463 q 363 640 505 640 q 139 552 222 640 q 56 312 56 464 q 139 72 56 161 q 363 -18 222 -18 q 588 72 505 -18 z "},"Ő":{"ha":921,"x_min":45,"x_max":878,"o":"m 671 1063 q 742 1156 742 1099 q 688 1234 742 1208 l 492 1038 l 529 994 l 671 1063 m 411 1063 q 480 1156 480 1100 q 427 1234 480 1208 l 232 1038 l 267 994 l 411 1063 m 180 439 q 258 732 180 614 q 468 850 335 850 q 600 810 544 850 q 686 707 656 770 q 728 577 715 643 q 742 446 742 511 q 665 168 742 279 q 454 56 587 56 q 252 164 323 56 q 180 439 180 273 m 770 113 q 824 179 770 113 q 878 450 878 244 q 770 789 878 656 q 460 921 662 921 q 151 789 258 921 q 45 450 45 656 q 151 113 45 244 q 460 -18 258 -18 q 770 113 662 -18 z "},"ő":{"ha":727,"x_min":56,"x_max":671,"o":"m 586 787 q 658 876 658 821 q 605 956 658 928 l 408 760 l 445 718 l 586 787 m 326 787 q 396 876 396 821 q 342 956 396 929 l 148 760 l 183 718 l 326 787 m 234 121 q 211 156 234 121 q 187 311 187 191 q 237 503 187 430 q 368 575 286 575 q 470 528 429 575 q 525 425 511 481 q 538 309 538 369 q 489 121 538 193 q 361 50 439 50 q 234 121 281 50 m 588 72 q 630 117 588 72 q 671 312 671 161 q 588 551 671 463 q 363 640 505 640 q 139 552 222 640 q 56 312 56 464 q 139 72 56 161 q 363 -18 222 -18 q 588 72 505 -18 z "},"Œ":{"ha":1203,"x_min":45,"x_max":1123,"o":"m 180 450 q 203 639 180 553 q 289 787 227 724 q 446 849 351 849 q 595 796 521 849 l 595 88 q 472 56 537 56 q 260 169 339 56 q 180 450 180 282 m 1123 -18 l 1123 198 l 1081 212 l 1072 183 q 1028 94 1054 115 q 936 72 1002 72 l 800 72 q 735 90 750 72 q 720 167 720 107 l 720 423 l 826 423 q 924 410 897 423 q 964 353 952 396 l 971 321 l 1013 336 l 1013 552 l 989 566 l 978 552 q 879 495 939 495 l 720 495 l 720 736 q 736 814 720 795 q 800 833 751 833 l 922 833 q 1015 810 989 833 q 1059 720 1042 788 l 1066 690 l 1109 705 l 1109 929 l 1089 945 l 1066 929 q 924 903 1034 903 l 460 903 q 152 775 259 903 q 45 450 45 647 q 151 126 45 252 q 460 0 258 0 l 1036 0 q 1089 -18 1077 0 l 1099 -31 l 1123 -18 z "},"œ":{"ha":1149,"x_min":56,"x_max":1085,"o":"m 234 121 q 211 156 234 121 q 187 311 187 191 q 237 503 187 430 q 368 575 286 575 q 470 528 429 575 q 525 425 511 481 q 538 309 538 369 q 489 121 538 193 q 361 50 439 50 q 234 121 281 50 m 604 91 q 831 -18 682 -18 q 1081 95 985 -18 q 1085 107 1085 103 q 1074 130 1085 119 q 1053 141 1063 141 q 1040 137 1044 141 q 857 65 967 65 q 719 128 766 65 q 671 304 671 191 q 716 508 671 437 q 842 579 761 579 q 930 543 898 579 q 963 457 963 507 q 921 357 963 399 q 803 315 879 315 q 749 323 773 315 q 722 331 724 331 q 709 322 715 331 q 703 302 703 313 q 751 258 703 273 q 841 244 799 244 q 1017 308 952 244 q 1082 456 1082 372 q 1026 587 1082 533 q 867 640 970 640 q 609 525 703 640 q 363 640 526 640 q 139 552 222 640 q 56 312 56 464 q 139 72 56 161 q 363 -18 222 -18 q 604 91 521 -18 z "},"Ŕ":{"ha":804,"x_min":19,"x_max":783,"o":"m 460 1063 q 532 1156 532 1099 q 477 1234 532 1207 l 281 1038 l 317 994 l 460 1063 m 783 33 l 760 69 q 712 52 736 52 q 663 90 681 52 l 547 328 q 495 389 529 363 q 645 479 591 412 q 699 646 699 547 q 602 848 699 776 q 332 921 506 921 q 170 905 259 921 q 19 865 80 888 l 35 818 l 107 818 q 134 789 134 818 l 134 167 q 118 86 134 110 q 54 50 102 62 l 24 43 l 41 0 l 316 0 l 332 20 l 316 43 q 271 133 283 88 q 258 252 258 178 l 258 792 q 355 852 258 852 q 511 794 453 852 q 568 640 568 736 q 514 497 568 549 q 368 445 460 445 q 327 449 345 445 q 308 453 309 453 q 288 425 288 453 q 311 393 288 406 q 370 367 354 378 q 396 332 385 355 l 492 130 q 568 15 530 47 q 665 -18 606 -18 q 783 33 726 -18 z "},"ŕ":{"ha":549,"x_min":50,"x_max":549,"o":"m 393 787 q 464 876 464 821 q 410 956 464 929 l 216 760 l 251 718 l 393 787 m 297 0 l 312 19 l 297 39 q 256 197 256 95 q 271 362 256 290 q 307 473 285 434 q 352 530 330 511 q 396 549 374 549 q 426 536 415 549 q 437 500 437 522 q 420 444 437 472 q 403 414 403 415 q 427 401 403 401 q 515 433 480 401 q 549 513 549 465 q 515 606 549 572 q 429 640 481 640 q 331 589 376 640 q 264 453 286 537 l 256 453 l 256 590 q 245 618 256 608 q 217 629 235 629 q 134 608 182 629 q 50 555 87 587 l 62 521 l 117 521 q 141 494 141 521 l 141 140 q 131 71 141 91 q 88 46 121 52 l 64 39 l 76 0 l 297 0 z "},"Ŗ":{"ha":804,"x_min":19,"x_max":783,"o":"m 396 -315 q 473 -220 448 -258 q 498 -148 498 -183 q 415 -64 498 -64 q 346 -77 382 -64 l 323 -87 l 330 -117 l 354 -132 q 381 -179 381 -153 q 366 -231 381 -197 l 309 -343 l 346 -368 l 396 -315 m 783 33 l 760 69 q 712 52 736 52 q 663 90 681 52 l 547 328 q 495 389 529 363 q 645 479 591 412 q 699 646 699 547 q 602 848 699 776 q 332 921 506 921 q 170 905 259 921 q 19 865 80 888 l 35 818 l 107 818 q 134 789 134 818 l 134 167 q 118 86 134 110 q 54 50 102 62 l 24 43 l 41 0 l 316 0 l 332 20 l 316 43 q 271 133 283 88 q 258 252 258 178 l 258 792 q 355 852 258 852 q 511 794 453 852 q 568 640 568 736 q 514 497 568 549 q 368 445 460 445 q 327 449 345 445 q 308 453 309 453 q 288 425 288 453 q 311 393 288 406 q 370 367 354 378 q 396 332 385 355 l 492 130 q 568 15 530 47 q 665 -18 606 -18 q 783 33 726 -18 z "},"ŗ":{"ha":549,"x_min":50,"x_max":549,"o":"m 171 -315 q 248 -220 222 -258 q 273 -148 273 -183 q 190 -64 273 -64 q 121 -77 157 -64 l 98 -87 l 104 -117 l 129 -132 q 156 -179 156 -153 q 141 -231 156 -197 l 84 -343 l 121 -368 l 171 -315 m 297 0 l 312 19 l 297 39 q 256 197 256 95 q 271 362 256 290 q 307 473 285 434 q 352 530 330 511 q 396 549 374 549 q 426 536 415 549 q 437 500 437 522 q 420 444 437 472 q 403 414 403 415 q 427 401 403 401 q 515 433 480 401 q 549 513 549 465 q 515 606 549 572 q 429 640 481 640 q 331 589 376 640 q 264 453 286 537 l 256 453 l 256 590 q 245 618 256 608 q 217 629 235 629 q 134 608 182 629 q 50 555 87 587 l 62 521 l 117 521 q 141 494 141 521 l 141 140 q 131 71 141 91 q 88 46 121 52 l 64 39 l 76 0 l 297 0 z "},"Ř":{"ha":804,"x_min":19,"x_max":783,"o":"m 366 1004 q 437 1077 391 1019 q 522 1204 484 1135 l 481 1240 l 351 1133 l 220 1240 l 178 1204 q 262 1078 217 1135 q 334 1004 308 1020 l 366 1004 m 783 33 l 760 69 q 712 52 736 52 q 663 90 681 52 l 547 328 q 495 389 529 363 q 645 479 591 412 q 699 646 699 547 q 602 848 699 776 q 332 921 506 921 q 170 905 259 921 q 19 865 80 888 l 35 818 l 107 818 q 134 789 134 818 l 134 167 q 118 86 134 110 q 54 50 102 62 l 24 43 l 41 0 l 316 0 l 332 20 l 316 43 q 271 133 283 88 q 258 252 258 178 l 258 792 q 355 852 258 852 q 511 794 453 852 q 568 640 568 736 q 514 497 568 549 q 368 445 460 445 q 327 449 345 445 q 308 453 309 453 q 288 425 288 453 q 311 393 288 406 q 370 367 354 378 q 396 332 385 355 l 492 130 q 568 15 530 47 q 665 -18 606 -18 q 783 33 726 -18 z "},"ř":{"ha":549,"x_min":50,"x_max":549,"o":"m 320 727 q 390 799 343 741 q 476 926 437 857 l 435 963 l 302 856 l 174 963 l 132 926 q 216 800 171 857 q 288 727 262 742 l 320 727 m 297 0 l 312 19 l 297 39 q 256 197 256 95 q 271 362 256 290 q 307 473 285 434 q 352 530 330 511 q 396 549 374 549 q 426 536 415 549 q 437 500 437 522 q 420 444 437 472 q 403 414 403 415 q 427 401 403 401 q 515 433 480 401 q 549 513 549 465 q 515 606 549 572 q 429 640 481 640 q 331 589 376 640 q 264 453 286 537 l 256 453 l 256 590 q 245 618 256 608 q 217 629 235 629 q 134 608 182 629 q 50 555 87 587 l 62 521 l 117 521 q 141 494 141 521 l 141 140 q 131 71 141 91 q 88 46 121 52 l 64 39 l 76 0 l 297 0 z "},"Ś":{"ha":719,"x_min":56,"x_max":656,"o":"m 445 1063 q 515 1156 515 1099 q 461 1234 515 1207 l 266 1038 l 301 994 l 445 1063 m 656 228 q 609 375 656 315 q 494 469 562 435 q 359 531 427 502 q 244 603 292 560 q 197 705 197 646 q 237 809 197 766 q 353 852 278 852 q 467 814 423 852 q 511 719 511 777 q 502 663 511 689 q 483 623 492 637 q 473 605 473 609 q 499 590 473 590 q 595 631 556 590 q 633 736 633 673 q 555 869 633 818 q 353 921 476 921 q 149 849 221 921 q 76 677 76 777 q 101 566 76 614 q 166 489 126 518 q 254 436 206 460 q 351 391 302 412 q 439 345 399 369 q 504 283 479 320 q 529 195 529 245 q 484 91 529 129 q 368 53 439 53 q 236 94 286 53 q 186 202 186 136 q 196 259 186 233 q 216 299 206 285 q 227 317 227 313 q 199 332 227 332 q 97 291 138 332 q 56 184 56 250 q 143 39 56 95 q 368 -18 231 -18 q 581 49 506 -18 q 656 228 656 115 z "},"ś":{"ha":605,"x_min":68,"x_max":537,"o":"m 376 787 q 445 876 445 821 q 391 956 445 929 l 197 760 l 232 718 l 376 787 m 537 172 q 524 227 537 201 q 496 269 511 252 q 448 304 480 285 q 397 332 416 323 q 340 357 378 340 q 230 413 269 384 q 191 490 191 442 q 221 555 191 530 q 302 581 251 581 q 375 558 343 581 q 407 490 407 536 q 397 446 407 467 q 387 420 387 425 q 414 403 387 403 q 490 434 460 403 q 519 513 519 465 q 461 606 519 572 q 312 640 403 640 q 148 593 213 640 q 83 472 83 547 q 100 396 83 430 q 151 337 117 362 q 213 298 186 312 q 285 266 240 285 q 353 234 328 247 q 400 197 378 221 q 422 145 422 174 q 389 73 422 100 q 302 45 355 45 q 220 72 256 45 q 183 152 183 99 q 191 199 183 176 q 199 224 199 221 q 174 239 199 239 q 98 210 127 239 q 68 140 68 182 q 130 26 68 69 q 288 -18 193 -18 q 469 34 400 -18 q 537 172 537 85 z "},"Ŝ":{"ha":719,"x_min":56,"x_max":656,"o":"m 359 1099 l 491 994 l 532 1031 q 446 1156 494 1099 q 376 1227 399 1214 l 342 1227 q 271 1156 316 1213 q 186 1031 225 1099 l 228 994 l 359 1099 m 656 228 q 609 375 656 315 q 494 469 562 435 q 359 531 427 502 q 244 603 292 560 q 197 705 197 646 q 237 809 197 766 q 353 852 278 852 q 467 814 423 852 q 511 719 511 777 q 502 663 511 689 q 483 623 492 637 q 473 605 473 609 q 499 590 473 590 q 595 631 556 590 q 633 736 633 673 q 555 869 633 818 q 353 921 476 921 q 149 849 221 921 q 76 677 76 777 q 101 566 76 614 q 166 489 126 518 q 254 436 206 460 q 351 391 302 412 q 439 345 399 369 q 504 283 479 320 q 529 195 529 245 q 484 91 529 129 q 368 53 439 53 q 236 94 286 53 q 186 202 186 136 q 196 259 186 233 q 216 299 206 285 q 227 317 227 313 q 199 332 227 332 q 97 291 138 332 q 56 184 56 250 q 143 39 56 95 q 368 -18 231 -18 q 581 49 506 -18 q 656 228 656 115 z "},"ŝ":{"ha":605,"x_min":68,"x_max":537,"o":"m 309 819 l 442 718 l 481 750 q 395 878 442 819 q 326 949 349 936 l 293 949 q 222 877 267 935 q 137 750 176 819 l 179 718 l 309 819 m 537 172 q 524 227 537 201 q 496 269 511 252 q 448 304 480 285 q 397 332 416 323 q 340 357 378 340 q 230 413 269 384 q 191 490 191 442 q 221 555 191 530 q 302 581 251 581 q 375 558 343 581 q 407 490 407 536 q 397 446 407 467 q 387 420 387 425 q 414 403 387 403 q 490 434 460 403 q 519 513 519 465 q 461 606 519 572 q 312 640 403 640 q 148 593 213 640 q 83 472 83 547 q 100 396 83 430 q 151 337 117 362 q 213 298 186 312 q 285 266 240 285 q 353 234 328 247 q 400 197 378 221 q 422 145 422 174 q 389 73 422 100 q 302 45 355 45 q 220 72 256 45 q 183 152 183 99 q 191 199 183 176 q 199 224 199 221 q 174 239 199 239 q 98 210 127 239 q 68 140 68 182 q 130 26 68 69 q 288 -18 193 -18 q 469 34 400 -18 q 537 172 537 85 z "},"Ş":{"ha":719,"x_min":56,"x_max":656,"o":"m 517 -225 q 476 -120 517 -157 q 376 -83 435 -83 q 328 -88 350 -83 l 382 -18 q 585 52 514 -14 q 656 228 656 118 q 609 375 656 315 q 494 469 562 435 q 359 531 427 502 q 244 603 292 560 q 197 705 197 646 q 237 809 197 766 q 353 852 278 852 q 467 814 423 852 q 511 719 511 777 q 502 663 511 689 q 483 623 492 637 q 473 605 473 609 q 499 590 473 590 q 595 631 556 590 q 633 736 633 673 q 555 869 633 818 q 353 921 476 921 q 149 849 221 921 q 76 677 76 777 q 101 566 76 614 q 166 489 126 518 q 254 436 206 460 q 351 391 302 412 q 439 345 399 369 q 504 283 479 320 q 529 195 529 245 q 484 91 529 129 q 368 53 439 53 q 236 94 286 53 q 186 202 186 136 q 196 259 186 233 q 216 299 206 285 q 227 317 227 313 q 199 332 227 332 q 97 291 138 332 q 56 184 56 250 q 132 45 56 100 q 332 -16 209 -9 l 247 -129 l 271 -151 q 339 -130 307 -130 q 402 -157 380 -130 q 425 -224 425 -184 q 403 -289 425 -260 q 345 -317 381 -317 q 309 -304 324 -317 q 293 -269 293 -290 q 302 -231 293 -247 q 312 -213 312 -216 q 289 -201 312 -201 q 233 -221 256 -201 q 209 -274 209 -241 q 250 -345 209 -319 q 346 -370 290 -370 q 468 -328 419 -370 q 517 -225 517 -286 z "},"ş":{"ha":605,"x_min":68,"x_max":537,"o":"m 465 -225 q 424 -120 465 -157 q 323 -83 382 -83 q 275 -88 297 -83 l 332 -15 q 481 45 426 -4 q 537 172 537 95 q 524 227 537 201 q 496 269 511 252 q 448 304 480 285 q 397 332 416 323 q 340 357 378 340 q 230 413 269 384 q 191 490 191 442 q 221 555 191 530 q 302 581 251 581 q 375 558 343 581 q 407 490 407 536 q 397 446 407 467 q 387 420 387 425 q 414 403 387 403 q 490 434 460 403 q 519 513 519 465 q 461 606 519 572 q 312 640 403 640 q 148 593 213 640 q 83 472 83 547 q 100 396 83 430 q 151 337 117 362 q 213 298 186 312 q 285 266 240 285 q 353 234 328 247 q 400 197 378 221 q 422 145 422 174 q 389 73 422 100 q 302 45 355 45 q 220 72 256 45 q 183 152 183 99 q 191 199 183 176 q 199 224 199 221 q 174 239 199 239 q 98 210 127 239 q 68 140 68 182 q 127 28 68 71 q 279 -18 187 -15 l 195 -129 l 220 -151 q 288 -130 255 -130 q 350 -157 328 -130 q 372 -224 372 -184 q 351 -290 372 -262 q 293 -317 330 -317 q 257 -304 273 -317 q 241 -269 241 -290 q 251 -231 241 -247 q 260 -213 260 -216 q 236 -201 260 -201 q 180 -221 203 -201 q 157 -274 157 -241 q 198 -345 157 -319 q 294 -370 239 -370 q 416 -328 368 -370 q 465 -225 465 -286 z "},"Š":{"ha":719,"x_min":56,"x_max":656,"o":"m 384 1006 q 454 1078 407 1020 q 540 1204 500 1135 l 499 1241 l 366 1134 l 236 1241 l 195 1204 q 280 1078 235 1135 q 351 1006 326 1021 l 384 1006 m 656 228 q 609 375 656 315 q 494 469 562 435 q 359 531 427 502 q 244 603 292 560 q 197 705 197 646 q 237 809 197 766 q 353 852 278 852 q 467 814 423 852 q 511 719 511 777 q 502 663 511 689 q 483 623 492 637 q 473 605 473 609 q 499 590 473 590 q 595 631 556 590 q 633 736 633 673 q 555 869 633 818 q 353 921 476 921 q 149 849 221 921 q 76 677 76 777 q 101 566 76 614 q 166 489 126 518 q 254 436 206 460 q 351 391 302 412 q 439 345 399 369 q 504 283 479 320 q 529 195 529 245 q 484 91 529 129 q 368 53 439 53 q 236 94 286 53 q 186 202 186 136 q 196 259 186 233 q 216 299 206 285 q 227 317 227 313 q 199 332 227 332 q 97 291 138 332 q 56 184 56 250 q 143 39 56 95 q 368 -18 231 -18 q 581 49 506 -18 q 656 228 656 115 z "},"š":{"ha":581,"x_min":68,"x_max":537,"o":"m 308 727 q 378 799 331 741 q 464 926 425 857 l 423 963 l 290 856 l 160 963 l 118 926 q 203 800 157 857 q 274 727 248 742 l 308 727 m 537 172 q 524 227 537 201 q 496 269 511 252 q 448 304 480 285 q 397 332 416 323 q 340 357 378 340 q 230 413 269 384 q 191 490 191 442 q 221 555 191 530 q 302 581 251 581 q 375 558 343 581 q 407 490 407 536 q 397 446 407 467 q 387 420 387 425 q 414 403 387 403 q 490 434 460 403 q 519 513 519 465 q 461 606 519 572 q 312 640 403 640 q 148 593 213 640 q 83 472 83 547 q 100 396 83 430 q 151 337 117 362 q 213 298 186 312 q 285 266 240 285 q 353 234 328 247 q 400 197 378 221 q 422 145 422 174 q 389 73 422 100 q 302 45 355 45 q 220 72 256 45 q 183 152 183 99 q 191 199 183 176 q 199 224 199 221 q 174 239 199 239 q 98 210 127 239 q 68 140 68 182 q 130 26 68 69 q 288 -18 193 -18 q 469 34 400 -18 q 537 172 537 85 z "},"Ţ":{"ha":749,"x_min":24,"x_max":724,"o":"m 519 -225 q 479 -120 519 -157 q 378 -83 438 -83 q 331 -88 353 -83 l 399 0 l 532 0 l 547 43 l 517 50 q 452 87 468 65 q 435 167 435 109 l 435 736 q 444 814 435 795 q 479 833 453 833 l 537 833 q 629 810 602 833 q 674 720 655 788 l 681 690 l 724 705 l 724 929 l 703 945 l 681 929 q 538 903 648 903 l 210 903 q 68 929 103 903 l 46 945 l 24 929 l 24 705 l 68 690 l 75 720 q 119 810 94 788 q 212 833 145 833 l 269 833 q 304 814 296 833 q 312 736 312 795 l 312 252 q 299 130 312 175 q 255 43 286 84 l 240 20 l 255 0 l 347 0 l 250 -129 l 274 -151 q 342 -130 309 -130 q 405 -157 382 -130 q 427 -224 427 -184 q 406 -289 427 -260 q 347 -317 384 -317 q 311 -304 327 -317 q 296 -269 296 -290 q 305 -231 296 -247 q 315 -213 315 -216 q 292 -201 315 -201 q 235 -221 259 -201 q 212 -274 212 -241 q 252 -345 212 -319 q 349 -370 293 -370 q 471 -328 422 -370 q 519 -225 519 -286 z "},"ţ":{"ha":427,"x_min":14,"x_max":403,"o":"m 372 -225 q 331 -120 372 -157 q 231 -83 290 -83 q 183 -88 205 -83 l 239 -18 q 321 10 278 -15 q 396 76 365 35 l 372 110 q 288 69 327 69 q 251 85 262 69 q 240 140 240 100 l 240 547 l 374 547 q 403 625 403 568 l 240 625 l 240 795 q 193 790 203 795 q 180 765 183 785 q 138 662 167 701 q 45 606 110 623 q 19 591 24 601 q 14 547 14 581 l 123 547 l 123 104 q 191 -12 123 11 l 103 -129 l 127 -151 q 195 -130 163 -130 q 258 -157 236 -130 q 279 -224 279 -184 q 258 -290 279 -262 q 201 -317 237 -317 q 165 -304 180 -317 q 149 -269 149 -290 q 158 -231 149 -247 q 167 -213 167 -216 q 144 -201 167 -201 q 88 -221 111 -201 q 65 -274 65 -241 q 106 -345 65 -319 q 202 -370 146 -370 q 323 -328 274 -370 q 372 -225 372 -286 z "},"Ť":{"ha":749,"x_min":24,"x_max":724,"o":"m 389 1004 q 460 1077 414 1019 q 545 1204 507 1135 l 505 1240 l 374 1133 l 243 1240 l 201 1204 q 286 1078 240 1135 q 357 1004 331 1020 l 389 1004 m 532 0 l 547 43 l 517 50 q 452 87 468 65 q 435 167 435 109 l 435 736 q 444 814 435 795 q 479 833 453 833 l 537 833 q 629 810 602 833 q 674 720 655 788 l 681 690 l 724 705 l 724 929 l 703 945 l 681 929 q 538 903 648 903 l 210 903 q 68 929 103 903 l 46 945 l 24 929 l 24 705 l 68 690 l 75 720 q 119 810 94 788 q 212 833 145 833 l 269 833 q 304 814 296 833 q 312 736 312 795 l 312 252 q 299 130 312 175 q 255 43 286 84 l 240 20 l 255 0 l 532 0 z "},"ť":{"ha":465,"x_min":14,"x_max":491,"o":"m 388 804 q 466 899 441 863 q 491 971 491 936 q 408 1055 491 1055 q 339 1040 378 1055 l 316 1032 l 321 1002 l 346 986 q 374 941 374 966 q 359 888 374 921 l 301 774 l 339 750 l 388 804 m 396 76 l 372 110 q 288 69 327 69 q 251 85 262 69 q 240 140 240 100 l 240 547 l 374 547 q 403 625 403 568 l 240 625 l 240 795 q 193 790 203 795 q 180 765 183 785 q 138 662 167 701 q 45 606 110 623 q 19 591 24 601 q 14 547 14 581 l 123 547 l 123 104 q 153 15 123 47 q 233 -18 182 -18 q 318 8 273 -18 q 396 76 363 34 z "},"Ŧ":{"ha":749,"x_min":24,"x_max":724,"o":"m 532 0 l 547 43 l 517 50 q 452 87 468 65 q 435 167 435 109 l 435 415 l 648 415 q 682 494 682 438 l 435 494 l 435 736 q 444 814 435 795 q 479 833 453 833 l 537 833 q 629 810 602 833 q 674 720 655 788 l 681 690 l 724 705 l 724 929 l 703 945 l 681 929 q 538 903 648 903 l 210 903 q 68 929 103 903 l 46 945 l 24 929 l 24 705 l 68 690 l 75 720 q 119 810 94 788 q 212 833 145 833 l 269 833 q 304 814 296 833 q 312 736 312 795 l 312 494 l 98 494 q 64 415 64 473 l 312 415 l 312 252 q 299 130 312 175 q 255 43 286 84 l 240 20 l 255 0 l 532 0 z "},"ŧ":{"ha":427,"x_min":8,"x_max":407,"o":"m 396 76 l 372 110 q 288 69 327 69 q 251 85 262 69 q 240 140 240 100 l 240 302 l 384 302 q 407 381 407 326 l 240 381 l 240 547 l 374 547 q 403 625 403 568 l 240 625 l 240 795 q 193 790 203 795 q 180 765 183 785 q 138 662 167 701 q 45 606 110 623 q 19 591 24 601 q 14 547 14 581 l 123 547 l 123 381 l 30 381 q 8 302 8 361 l 123 302 l 123 104 q 153 15 123 47 q 233 -18 182 -18 q 318 8 273 -18 q 396 76 363 34 z "},"Ũ":{"ha":929,"x_min":28,"x_max":868,"o":"m 415 1070 q 469 1048 433 1070 q 534 1027 505 1027 q 612 1059 570 1027 q 694 1149 655 1092 l 651 1188 q 567 1139 602 1139 q 513 1160 548 1139 q 449 1181 477 1181 q 286 1061 373 1181 l 331 1021 q 415 1070 384 1070 m 795 275 l 795 651 q 852 860 795 787 l 868 883 l 852 903 l 613 903 l 597 860 l 627 853 q 691 817 675 840 q 707 736 707 793 l 707 275 q 644 119 707 176 q 487 62 582 62 q 328 119 391 62 q 264 275 264 176 l 264 651 q 320 860 264 785 l 336 883 l 320 903 l 46 903 l 28 860 l 60 853 q 124 817 109 840 q 140 736 140 793 l 140 275 q 231 55 140 127 q 471 -18 323 -18 q 705 56 616 -18 q 795 275 795 129 z "},"ũ":{"ha":795,"x_min":39,"x_max":770,"o":"m 321 792 q 375 770 339 792 q 442 749 411 749 q 520 782 477 749 q 602 871 563 815 l 560 910 q 473 860 509 860 q 420 882 456 860 q 355 905 384 905 q 194 784 283 905 l 239 743 q 321 792 283 792 m 536 104 q 558 12 536 41 q 631 -18 581 -18 q 770 62 705 -18 l 746 95 q 684 72 718 72 q 650 111 650 72 l 650 640 l 495 625 l 479 606 l 495 587 q 534 486 524 537 q 544 342 544 434 q 496 140 544 213 q 365 66 449 66 q 244 221 244 66 l 244 602 q 233 630 244 620 q 203 640 222 640 q 117 619 164 640 q 39 566 71 598 l 49 534 l 106 534 q 130 505 130 534 l 130 190 q 180 37 130 91 q 321 -18 231 -18 q 448 16 391 -18 q 536 104 506 49 z "},"Ū":{"ha":929,"x_min":28,"x_max":868,"o":"m 643 1055 q 677 1156 677 1082 l 338 1156 q 304 1055 304 1123 l 643 1055 m 795 275 l 795 651 q 852 860 795 787 l 868 883 l 852 903 l 613 903 l 597 860 l 627 853 q 691 817 675 840 q 707 736 707 793 l 707 275 q 644 119 707 176 q 487 62 582 62 q 328 119 391 62 q 264 275 264 176 l 264 651 q 320 860 264 785 l 336 883 l 320 903 l 46 903 l 28 860 l 60 853 q 124 817 109 840 q 140 736 140 793 l 140 275 q 231 55 140 127 q 471 -18 323 -18 q 705 56 616 -18 q 795 275 795 129 z "},"ū":{"ha":795,"x_min":39,"x_max":770,"o":"m 551 776 q 583 876 583 804 l 245 876 q 212 776 212 848 l 551 776 m 536 104 q 558 12 536 41 q 631 -18 581 -18 q 770 62 705 -18 l 746 95 q 684 72 718 72 q 650 111 650 72 l 650 640 l 495 625 l 479 606 l 495 587 q 534 486 524 537 q 544 342 544 434 q 496 140 544 213 q 365 66 449 66 q 244 221 244 66 l 244 602 q 233 630 244 620 q 203 640 222 640 q 117 619 164 640 q 39 566 71 598 l 49 534 l 106 534 q 130 505 130 534 l 130 190 q 180 37 130 91 q 321 -18 231 -18 q 448 16 391 -18 q 536 104 506 49 z "},"Ŭ":{"ha":929,"x_min":28,"x_max":868,"o":"m 633 1183 l 564 1183 q 540 1125 564 1146 q 479 1104 515 1104 q 414 1125 439 1104 q 389 1183 389 1146 l 320 1183 q 364 1053 320 1097 q 479 1008 408 1008 q 590 1053 547 1008 q 633 1183 633 1097 m 795 275 l 795 651 q 852 860 795 787 l 868 883 l 852 903 l 613 903 l 597 860 l 627 853 q 691 817 675 840 q 707 736 707 793 l 707 275 q 644 119 707 176 q 487 62 582 62 q 328 119 391 62 q 264 275 264 176 l 264 651 q 320 860 264 785 l 336 883 l 320 903 l 46 903 l 28 860 l 60 853 q 124 817 109 840 q 140 736 140 793 l 140 275 q 231 55 140 127 q 471 -18 323 -18 q 705 56 616 -18 q 795 275 795 129 z "},"ŭ":{"ha":795,"x_min":39,"x_max":770,"o":"m 543 906 l 473 906 q 448 848 473 869 q 387 826 423 826 q 323 848 349 826 q 298 906 298 869 l 229 906 q 273 775 229 821 q 387 730 316 730 q 499 775 456 730 q 543 906 543 821 m 536 104 q 558 12 536 41 q 631 -18 581 -18 q 770 62 705 -18 l 746 95 q 684 72 718 72 q 650 111 650 72 l 650 640 l 495 625 l 479 606 l 495 587 q 534 486 524 537 q 544 342 544 434 q 496 140 544 213 q 365 66 449 66 q 244 221 244 66 l 244 602 q 233 630 244 620 q 203 640 222 640 q 117 619 164 640 q 39 566 71 598 l 49 534 l 106 534 q 130 505 130 534 l 130 190 q 180 37 130 91 q 321 -18 231 -18 q 448 16 391 -18 q 536 104 506 49 z "},"Ů":{"ha":929,"x_min":28,"x_max":868,"o":"m 411 1105 q 425 1158 411 1138 q 465 1179 439 1179 q 505 1158 491 1179 q 519 1105 519 1138 q 505 1054 519 1074 q 465 1034 491 1034 q 425 1054 439 1034 q 411 1105 411 1074 m 609 1105 q 572 1203 609 1165 q 465 1241 534 1241 q 359 1203 397 1241 q 321 1105 321 1165 q 359 1010 321 1047 q 465 972 397 972 q 572 1010 534 972 q 609 1105 609 1047 m 795 275 l 795 651 q 852 860 795 787 l 868 883 l 852 903 l 613 903 l 597 860 l 627 853 q 691 817 675 840 q 707 736 707 793 l 707 275 q 644 119 707 176 q 487 62 582 62 q 328 119 391 62 q 264 275 264 176 l 264 651 q 320 860 264 785 l 336 883 l 320 903 l 46 903 l 28 860 l 60 853 q 124 817 109 840 q 140 736 140 793 l 140 275 q 231 55 140 127 q 471 -18 323 -18 q 705 56 616 -18 q 795 275 795 129 z "},"ů":{"ha":795,"x_min":39,"x_max":770,"o":"m 343 827 q 358 881 343 860 q 397 902 373 902 q 437 881 423 902 q 452 827 452 860 q 437 775 452 796 q 397 754 423 754 q 358 776 373 754 q 343 827 343 798 m 543 827 q 505 925 543 887 q 397 963 467 963 q 293 925 331 963 q 255 827 255 887 q 293 732 255 769 q 397 694 331 694 q 505 732 467 694 q 543 827 543 769 m 536 104 q 558 12 536 41 q 631 -18 581 -18 q 770 62 705 -18 l 746 95 q 684 72 718 72 q 650 111 650 72 l 650 640 l 495 625 l 479 606 l 495 587 q 534 486 524 537 q 544 342 544 434 q 496 140 544 213 q 365 66 449 66 q 244 221 244 66 l 244 602 q 233 630 244 620 q 203 640 222 640 q 117 619 164 640 q 39 566 71 598 l 49 534 l 106 534 q 130 505 130 534 l 130 190 q 180 37 130 91 q 321 -18 231 -18 q 448 16 391 -18 q 536 104 506 49 z "},"Ű":{"ha":929,"x_min":28,"x_max":868,"o":"m 686 1063 q 758 1156 758 1099 q 704 1234 758 1208 l 507 1038 l 545 994 l 686 1063 m 427 1063 q 496 1156 496 1100 q 444 1234 496 1208 l 248 1038 l 283 994 l 427 1063 m 795 275 l 795 651 q 852 860 795 787 l 868 883 l 852 903 l 613 903 l 597 860 l 627 853 q 691 817 675 840 q 707 736 707 793 l 707 275 q 644 119 707 176 q 487 62 582 62 q 328 119 391 62 q 264 275 264 176 l 264 651 q 320 860 264 785 l 336 883 l 320 903 l 46 903 l 28 860 l 60 853 q 124 817 109 840 q 140 736 140 793 l 140 275 q 231 55 140 127 q 471 -18 323 -18 q 705 56 616 -18 q 795 275 795 129 z "},"ű":{"ha":795,"x_min":39,"x_max":770,"o":"m 594 787 q 667 876 667 822 q 613 956 667 926 l 416 760 l 453 718 l 594 787 m 335 787 q 404 876 404 821 q 351 956 404 930 l 156 760 l 191 718 l 335 787 m 536 104 q 558 12 536 41 q 631 -18 581 -18 q 770 62 705 -18 l 746 95 q 684 72 718 72 q 650 111 650 72 l 650 640 l 495 625 l 479 606 l 495 587 q 534 486 524 537 q 544 342 544 434 q 496 140 544 213 q 365 66 449 66 q 244 221 244 66 l 244 602 q 233 630 244 620 q 203 640 222 640 q 117 619 164 640 q 39 566 71 598 l 49 534 l 106 534 q 130 505 130 534 l 130 190 q 180 37 130 91 q 321 -18 231 -18 q 448 16 391 -18 q 536 104 506 49 z "},"Ų":{"ha":929,"x_min":28,"x_max":868,"o":"m 684 -222 l 642 -184 q 496 -264 574 -264 q 425 -190 425 -264 q 563 -8 425 -107 q 732 82 670 11 q 795 275 795 153 l 795 651 q 852 860 795 787 l 868 883 l 852 903 l 613 903 l 597 860 l 627 853 q 691 817 675 840 q 707 736 707 793 l 707 275 q 644 119 707 176 q 487 62 582 62 q 328 119 391 62 q 264 275 264 176 l 264 651 q 320 860 264 785 l 336 883 l 320 903 l 46 903 l 28 860 l 60 853 q 124 817 109 840 q 140 736 140 793 l 140 275 q 227 58 140 130 q 457 -18 315 -15 q 354 -118 387 -71 q 321 -218 321 -165 q 361 -315 321 -279 q 461 -351 400 -351 q 684 -222 581 -351 z "},"ų":{"ha":795,"x_min":39,"x_max":803,"o":"m 803 -222 l 761 -184 q 614 -264 693 -264 q 543 -190 543 -264 q 690 -3 543 -103 q 770 62 735 19 l 746 95 q 684 72 718 72 q 650 111 650 72 l 650 640 l 495 625 l 479 606 l 495 587 q 534 486 524 537 q 544 342 544 434 q 496 140 544 213 q 365 66 449 66 q 244 221 244 66 l 244 602 q 233 630 244 620 q 203 640 222 640 q 117 619 164 640 q 39 566 71 598 l 49 534 l 106 534 q 130 505 130 534 l 130 190 q 180 37 130 91 q 321 -18 231 -18 q 448 16 391 -18 q 536 104 506 49 q 586 -8 536 14 q 475 -114 510 -65 q 439 -218 439 -163 q 479 -315 439 -279 q 581 -351 519 -351 q 803 -222 700 -351 z "},"Ŵ":{"ha":1367,"x_min":5,"x_max":1350,"o":"m 684 1099 l 815 994 l 856 1031 q 770 1156 818 1099 q 700 1227 723 1214 l 667 1227 q 596 1156 642 1213 q 511 1031 551 1099 l 552 994 l 684 1099 m 507 0 l 690 548 l 875 0 l 1019 0 l 1260 735 q 1331 860 1283 803 l 1350 883 l 1333 903 l 1093 903 l 1080 860 l 1107 853 q 1165 768 1162 841 q 1139 652 1165 726 l 964 106 l 758 736 q 745 798 745 780 q 800 853 745 842 l 830 860 l 815 903 l 533 903 l 515 883 q 586 818 562 849 q 629 730 610 787 l 640 690 l 453 106 l 250 736 q 235 798 235 784 q 293 853 235 841 l 320 860 l 307 903 l 22 903 l 5 883 q 75 819 50 849 q 119 730 99 788 l 365 0 l 507 0 z "},"ŵ":{"ha":1023,"x_min":0,"x_max":947,"o":"m 510 819 l 642 718 l 682 750 q 596 878 643 819 q 526 949 549 936 l 494 949 q 422 877 468 935 q 338 750 377 819 l 380 718 l 510 819 m 522 140 q 587 18 545 54 q 700 -18 628 -18 q 875 121 803 -18 q 947 507 947 260 q 941 640 947 551 l 793 625 l 780 609 l 792 590 q 848 370 848 498 q 809 156 848 248 q 709 64 770 64 q 643 97 666 64 q 609 208 620 130 l 582 385 q 590 507 590 444 q 582 640 590 572 l 435 625 l 420 609 l 433 590 q 488 370 488 500 q 451 156 488 248 q 353 64 414 64 q 289 98 312 64 q 255 208 266 132 l 199 602 q 159 640 193 640 q 79 619 123 640 q 0 566 34 598 l 12 534 l 66 534 q 83 528 79 534 q 91 505 88 522 l 132 240 q 196 39 152 95 q 336 -18 240 -18 q 522 140 454 -18 z "},"Ŷ":{"ha":787,"x_min":5,"x_max":755,"o":"m 411 1099 l 543 994 l 583 1031 q 498 1156 545 1099 q 427 1227 450 1214 l 393 1227 q 323 1156 369 1213 q 239 1031 278 1100 l 279 994 l 411 1099 m 549 0 l 564 43 l 537 50 q 471 86 488 62 q 453 167 453 110 l 453 381 l 650 727 q 738 860 689 800 l 755 883 l 741 903 l 500 903 l 487 860 l 514 853 q 567 787 567 840 q 552 735 567 765 l 411 480 l 274 719 q 235 798 235 780 q 293 853 235 841 l 320 860 l 307 903 l 22 903 l 5 883 q 132 724 68 837 l 334 370 l 334 252 q 320 132 334 178 q 274 43 307 87 l 258 20 l 274 0 l 549 0 z "},"ŷ":{"ha":765,"x_min":39,"x_max":646,"o":"m 378 819 l 511 718 l 551 750 q 465 878 511 821 q 396 949 419 936 l 362 949 q 291 877 336 935 q 206 750 245 819 l 248 718 l 378 819 m 646 -27 l 646 642 l 492 627 l 477 608 l 492 589 q 533 496 525 547 q 541 343 541 446 q 494 167 541 229 q 362 104 446 104 q 244 256 244 104 l 244 604 q 233 631 244 621 q 203 642 222 642 q 117 621 164 642 q 39 567 71 600 l 49 536 l 106 536 q 130 506 130 536 l 130 228 q 180 74 130 129 q 319 19 229 19 q 447 51 389 19 q 534 138 505 83 l 534 -47 q 497 -220 534 -156 q 382 -285 460 -285 q 302 -251 332 -285 q 273 -167 273 -217 q 288 -96 273 -126 q 318 -51 302 -66 q 334 -31 334 -35 q 311 -18 334 -18 q 193 -62 236 -18 q 151 -171 151 -107 q 208 -297 151 -243 q 366 -351 264 -351 q 571 -267 496 -351 q 646 -27 646 -182 z "},"Ÿ":{"ha":787,"x_min":5,"x_max":755,"o":"m 627 1105 q 597 1160 627 1130 q 545 1190 568 1190 q 496 1160 524 1190 q 469 1105 469 1130 q 496 1053 469 1082 q 545 1024 524 1024 q 597 1053 568 1024 q 627 1105 627 1082 m 388 1105 q 359 1160 388 1130 q 308 1190 331 1190 q 258 1160 285 1190 q 231 1105 231 1130 q 258 1053 231 1082 q 308 1024 286 1024 q 359 1053 331 1024 q 388 1105 388 1082 m 549 0 l 564 43 l 537 50 q 471 86 488 62 q 453 167 453 110 l 453 381 l 650 727 q 738 860 689 800 l 755 883 l 741 903 l 500 903 l 487 860 l 514 853 q 567 787 567 840 q 552 735 567 765 l 411 480 l 274 719 q 235 798 235 780 q 293 853 235 841 l 320 860 l 307 903 l 22 903 l 5 883 q 132 724 68 837 l 334 370 l 334 252 q 320 132 334 178 q 274 43 307 87 l 258 20 l 274 0 l 549 0 z "},"Ź":{"ha":741,"x_min":24,"x_max":718,"o":"m 476 1063 q 547 1156 547 1099 q 494 1234 547 1207 l 297 1038 l 334 994 l 476 1063 m 692 -18 l 692 198 l 650 212 l 640 183 q 596 94 623 115 q 503 72 570 72 l 221 72 l 718 903 l 258 903 q 114 929 149 903 l 91 945 l 72 929 l 72 705 l 114 690 l 122 720 q 166 810 140 788 q 258 833 193 833 l 525 833 l 24 0 l 605 0 q 656 -18 646 0 l 667 -31 l 692 -18 z "},"ź":{"ha":602,"x_min":42,"x_max":562,"o":"m 414 787 q 483 876 483 821 q 430 956 483 930 l 235 760 l 271 718 l 414 787 m 543 -15 l 543 179 l 503 191 l 488 126 q 462 83 483 95 q 393 72 441 72 l 197 72 l 528 551 l 562 571 q 537 625 562 605 l 224 625 q 72 656 118 625 l 58 639 l 58 446 l 98 433 l 113 499 q 138 542 119 532 q 206 552 157 552 l 393 552 l 42 39 l 54 0 l 377 0 q 528 -28 480 0 l 543 -15 z "},"Ż":{"ha":741,"x_min":24,"x_max":718,"o":"m 492 1105 q 461 1168 492 1135 q 403 1202 430 1202 q 345 1168 376 1202 q 313 1105 313 1135 q 345 1044 313 1077 q 403 1012 376 1012 q 461 1044 430 1012 q 492 1105 492 1077 m 692 -18 l 692 198 l 650 212 l 640 183 q 596 94 623 115 q 503 72 570 72 l 221 72 l 718 903 l 258 903 q 114 929 149 903 l 91 945 l 72 929 l 72 705 l 114 690 l 122 720 q 166 810 140 788 q 258 833 193 833 l 525 833 l 24 0 l 605 0 q 656 -18 646 0 l 667 -31 l 692 -18 z "},"ż":{"ha":602,"x_min":42,"x_max":562,"o":"m 403 827 q 372 890 403 857 q 312 924 340 924 q 254 890 285 924 q 224 827 224 857 q 256 766 224 800 q 312 732 288 732 q 372 766 340 732 q 403 827 403 799 m 543 -15 l 543 179 l 503 191 l 488 126 q 462 83 483 95 q 393 72 441 72 l 197 72 l 528 551 l 562 571 q 537 625 562 605 l 224 625 q 72 656 118 625 l 58 639 l 58 446 l 98 433 l 113 499 q 138 542 119 532 q 206 552 157 552 l 393 552 l 42 39 l 54 0 l 377 0 q 528 -28 480 0 l 543 -15 z "},"Ž":{"ha":741,"x_min":24,"x_max":718,"o":"m 411 1006 q 481 1078 434 1020 q 567 1204 528 1135 l 526 1241 l 393 1134 l 264 1241 l 222 1204 q 307 1078 262 1135 q 378 1006 353 1021 l 411 1006 m 692 -18 l 692 198 l 650 212 l 640 183 q 596 94 623 115 q 503 72 570 72 l 221 72 l 718 903 l 258 903 q 114 929 149 903 l 91 945 l 72 929 l 72 705 l 114 690 l 122 720 q 166 810 140 788 q 258 833 193 833 l 525 833 l 24 0 l 605 0 q 656 -18 646 0 l 667 -31 l 692 -18 z "},"ž":{"ha":602,"x_min":42,"x_max":562,"o":"m 324 727 q 394 799 347 741 q 480 926 441 857 l 439 963 l 308 856 l 178 963 l 136 926 q 220 800 175 857 q 292 727 266 742 l 324 727 m 543 -15 l 543 179 l 503 191 l 488 126 q 462 83 483 95 q 393 72 441 72 l 197 72 l 528 551 l 562 571 q 537 625 562 605 l 224 625 q 72 656 118 625 l 58 639 l 58 446 l 98 433 l 113 499 q 138 542 119 532 q 206 552 157 552 l 393 552 l 42 39 l 54 0 l 377 0 q 528 -28 480 0 l 543 -15 z "},"ƒ":{"ha":582,"x_min":-99,"x_max":648,"o":"m 285 -16 l 285 380 l 491 380 q 519 458 519 403 l 285 458 l 285 564 q 435 859 285 859 q 508 836 481 859 q 534 776 534 812 q 526 721 534 745 q 508 686 517 697 q 499 673 499 675 q 522 658 499 658 q 612 692 576 658 q 648 783 648 727 q 595 882 648 844 q 458 921 541 921 q 243 802 316 921 q 171 481 171 684 l 171 458 l 31 458 q 3 380 3 438 l 171 380 l 171 -114 q 145 -212 171 -179 q 81 -245 119 -245 q 33 -223 52 -245 q 14 -163 14 -201 q 22 -117 14 -137 q 39 -85 30 -96 q 47 -72 47 -75 q 23 -58 47 -58 q -64 -91 -30 -58 q -99 -172 -99 -123 q -56 -265 -99 -231 q 56 -300 -12 -300 q 227 -223 168 -300 q 285 -16 285 -146 z "},"Ǻ":{"ha":887,"x_min":-20,"x_max":875,"o":"m 557 1105 q 536 1181 557 1143 l 597 1213 q 661 1293 661 1242 q 614 1364 661 1341 l 476 1227 q 411 1241 438 1241 q 307 1203 345 1241 q 270 1105 270 1165 q 307 1010 270 1047 q 411 972 345 972 q 519 1010 480 972 q 557 1105 557 1047 m 358 1105 q 372 1158 358 1138 q 411 1179 387 1179 q 452 1158 438 1179 q 467 1105 467 1138 q 452 1054 467 1074 q 411 1034 438 1034 q 372 1054 387 1034 q 358 1105 358 1074 m 425 774 l 545 422 l 308 422 l 425 774 m 227 0 l 250 20 l 240 43 q 222 119 222 73 q 250 251 222 165 l 281 343 l 571 343 l 631 167 q 646 107 646 117 q 590 50 646 64 l 560 43 l 574 0 l 859 0 l 875 20 q 805 85 829 56 q 761 175 781 115 l 507 903 l 266 903 l 250 860 l 279 853 q 335 798 335 841 q 321 736 335 780 l 123 167 q 82 87 104 109 q 8 50 60 65 l -20 43 l -4 0 l 227 0 z "},"ǻ":{"ha":758,"x_min":56,"x_max":742,"o":"m 511 827 q 490 903 511 872 l 551 933 q 613 1015 613 964 q 566 1088 613 1063 l 431 951 q 365 963 397 963 q 261 925 298 963 q 224 827 224 887 q 261 732 224 769 q 365 694 298 694 q 473 732 434 694 q 511 827 511 769 m 312 827 q 326 881 312 860 q 365 902 340 902 q 406 881 392 902 q 420 827 420 860 q 406 775 420 796 q 365 754 391 754 q 327 775 342 754 q 312 827 312 796 m 189 312 q 239 503 189 435 q 381 571 289 571 q 503 534 449 571 l 503 194 q 332 80 438 80 q 230 136 271 80 q 189 312 189 191 m 503 115 q 527 14 503 45 q 602 -18 551 -18 q 742 62 669 -18 l 718 95 q 655 72 686 72 q 616 111 616 72 l 616 521 q 632 571 616 543 l 650 594 l 633 610 q 510 627 595 613 q 382 640 425 640 q 144 546 232 640 q 56 289 56 452 q 122 62 56 142 q 283 -18 189 -18 q 503 115 411 -18 z "},"Ǽ":{"ha":1213,"x_min":-18,"x_max":1133,"o":"m 883 1063 q 954 1156 954 1099 q 901 1234 954 1207 l 704 1038 l 741 994 l 883 1063 m 606 837 l 606 456 l 396 456 l 606 837 m 1133 -18 l 1133 198 l 1090 212 l 1084 183 q 1038 94 1065 115 q 945 72 1012 72 l 810 72 q 745 90 761 72 q 730 167 730 107 l 730 385 l 837 385 q 935 371 906 385 q 974 313 963 357 l 981 285 l 1024 300 l 1024 514 l 998 529 l 989 514 q 888 456 948 456 l 730 456 l 730 736 q 745 814 730 795 q 810 833 761 833 l 932 833 q 1025 810 998 833 q 1069 720 1051 788 l 1077 690 l 1120 705 l 1120 929 l 1100 945 l 1077 929 q 933 903 1044 903 l 547 903 l 110 118 q 12 50 80 68 l -18 43 l -3 0 l 229 0 l 252 20 l 241 43 q 225 99 225 84 q 251 194 225 145 l 357 385 l 606 385 l 606 159 q 591 82 606 103 q 529 47 575 61 l 502 41 l 515 0 l 1046 0 q 1099 -18 1088 0 l 1108 -31 l 1133 -18 z "},"ǽ":{"ha":1089,"x_min":56,"x_max":1023,"o":"m 610 787 q 680 876 680 821 q 627 956 680 930 l 431 760 l 468 718 l 610 787 m 515 133 q 617 22 552 62 q 768 -18 682 -18 q 1019 95 922 -18 q 1023 107 1023 99 q 1012 130 1023 119 q 990 141 1001 141 q 978 137 982 141 q 795 65 905 65 q 657 128 705 65 q 609 304 609 191 q 654 507 609 435 q 781 579 700 579 q 869 543 838 579 q 901 457 901 507 q 859 357 901 399 q 741 315 817 315 q 686 323 711 315 q 659 331 662 331 q 646 322 652 331 q 639 302 639 313 q 688 258 639 273 q 780 244 738 244 q 956 308 891 244 q 1020 456 1020 372 q 964 586 1020 532 q 806 640 907 640 q 549 528 637 640 q 319 640 469 640 q 193 619 252 640 q 103 575 133 598 q 73 538 73 552 q 85 514 73 526 q 107 502 96 502 q 130 516 111 502 q 191 545 149 530 q 293 559 232 559 q 431 496 384 559 q 479 319 479 433 q 431 120 479 190 q 296 50 382 50 q 208 84 239 50 q 176 165 176 118 q 218 271 176 227 q 335 315 260 315 q 399 307 370 315 q 429 298 427 298 q 441 307 435 298 q 448 326 448 315 q 393 370 448 354 q 297 385 339 385 q 121 319 186 385 q 56 167 56 252 q 112 37 56 91 q 270 -18 168 -18 q 420 22 357 -18 q 515 133 483 62 z "},"Ǿ":{"ha":921,"x_min":45,"x_max":878,"o":"m 515 1063 q 586 1156 586 1099 q 533 1234 586 1207 l 336 1038 l 372 994 l 515 1063 m 369 71 l 627 788 q 714 635 686 730 q 742 446 742 541 q 665 168 742 279 q 454 56 587 56 q 369 71 410 56 m 180 439 q 258 732 180 614 q 468 850 335 850 q 551 836 506 850 l 296 113 q 180 439 180 214 m 316 -80 l 343 -3 q 460 -18 408 -18 q 770 113 662 -18 q 878 450 878 244 q 822 709 878 597 q 658 876 766 822 l 696 983 l 605 983 l 578 906 q 460 921 510 921 q 151 789 258 921 q 45 450 45 656 q 100 190 45 302 q 264 24 156 77 l 228 -80 l 316 -80 z "},"ǿ":{"ha":727,"x_min":56,"x_max":671,"o":"m 445 787 q 514 876 514 821 q 460 956 514 929 l 266 760 l 301 718 l 445 787 m 311 60 l 475 524 q 538 309 538 445 q 489 121 538 193 q 361 50 439 50 q 311 60 339 50 m 187 311 q 237 503 187 430 q 368 575 286 575 q 423 564 397 575 l 255 94 q 187 311 187 164 m 258 -85 l 286 -8 q 363 -18 328 -18 q 588 72 505 -18 q 671 312 671 161 q 628 496 671 419 q 506 610 585 574 l 543 712 l 475 712 l 446 631 q 363 640 401 640 q 139 552 222 640 q 56 312 56 464 q 100 124 56 203 q 225 9 145 45 l 191 -85 l 258 -85 z "},"Ș":{"ha":719,"x_min":56,"x_max":656,"o":"m 353 -315 q 429 -220 404 -258 q 454 -148 454 -183 q 372 -64 454 -64 q 302 -77 339 -64 l 279 -87 l 286 -117 l 311 -132 q 338 -179 338 -153 q 323 -231 338 -197 l 266 -343 l 302 -368 l 353 -315 m 656 228 q 609 375 656 315 q 494 469 562 435 q 359 531 427 502 q 244 603 292 560 q 197 705 197 646 q 237 809 197 766 q 353 852 278 852 q 467 814 423 852 q 511 719 511 777 q 502 663 511 689 q 483 623 492 637 q 473 605 473 609 q 499 590 473 590 q 595 631 556 590 q 633 736 633 673 q 555 869 633 818 q 353 921 476 921 q 149 849 221 921 q 76 677 76 777 q 101 566 76 614 q 166 489 126 518 q 254 436 206 460 q 351 391 302 412 q 439 345 399 369 q 504 283 479 320 q 529 195 529 245 q 484 91 529 129 q 368 53 439 53 q 236 94 286 53 q 186 202 186 136 q 196 259 186 233 q 216 299 206 285 q 227 317 227 313 q 199 332 227 332 q 97 291 138 332 q 56 184 56 250 q 143 39 56 95 q 368 -18 231 -18 q 581 49 506 -18 q 656 228 656 115 z "},"ș":{"ha":605,"x_min":68,"x_max":537,"o":"m 288 -315 q 364 -220 339 -258 q 389 -148 389 -183 q 308 -64 389 -64 q 239 -77 275 -64 l 216 -87 l 221 -117 l 245 -132 q 273 -179 273 -153 q 258 -231 273 -197 l 201 -343 l 239 -368 l 288 -315 m 537 172 q 524 227 537 201 q 496 269 511 252 q 448 304 480 285 q 397 332 416 323 q 340 357 378 340 q 230 413 269 384 q 191 490 191 442 q 221 555 191 530 q 302 581 251 581 q 375 558 343 581 q 407 490 407 536 q 397 446 407 467 q 387 420 387 425 q 414 403 387 403 q 490 434 460 403 q 519 513 519 465 q 461 606 519 572 q 312 640 403 640 q 148 593 213 640 q 83 472 83 547 q 100 396 83 430 q 151 337 117 362 q 213 298 186 312 q 285 266 240 285 q 353 234 328 247 q 400 197 378 221 q 422 145 422 174 q 389 73 422 100 q 302 45 355 45 q 220 72 256 45 q 183 152 183 99 q 191 199 183 176 q 199 224 199 221 q 174 239 199 239 q 98 210 127 239 q 68 140 68 182 q 130 26 68 69 q 288 -18 193 -18 q 469 34 400 -18 q 537 172 537 85 z "},"Ț":{"ha":749,"x_min":24,"x_max":724,"o":"m 365 -315 q 443 -220 418 -256 q 468 -148 468 -183 q 385 -64 468 -64 q 316 -77 353 -64 l 293 -87 l 298 -117 l 323 -132 q 351 -179 351 -153 q 336 -231 351 -197 l 278 -343 l 316 -368 l 365 -315 m 532 0 l 547 43 l 517 50 q 452 87 468 65 q 435 167 435 109 l 435 736 q 444 814 435 795 q 479 833 453 833 l 537 833 q 629 810 602 833 q 674 720 655 788 l 681 690 l 724 705 l 724 929 l 703 945 l 681 929 q 538 903 648 903 l 210 903 q 68 929 103 903 l 46 945 l 24 929 l 24 705 l 68 690 l 75 720 q 119 810 94 788 q 212 833 145 833 l 269 833 q 304 814 296 833 q 312 736 312 795 l 312 252 q 299 130 312 175 q 255 43 286 84 l 240 20 l 255 0 l 532 0 z "},"ț":{"ha":427,"x_min":14,"x_max":403,"o":"m 194 -315 q 271 -220 245 -258 q 296 -148 296 -183 q 213 -64 296 -64 q 144 -77 180 -64 l 121 -87 l 127 -117 l 152 -132 q 179 -179 179 -153 q 164 -231 179 -197 l 107 -343 l 144 -368 l 194 -315 m 396 76 l 372 110 q 288 69 327 69 q 251 85 262 69 q 240 140 240 100 l 240 547 l 374 547 q 403 625 403 568 l 240 625 l 240 795 q 193 790 203 795 q 180 765 183 785 q 138 662 167 701 q 45 606 110 623 q 19 591 24 601 q 14 547 14 581 l 123 547 l 123 104 q 153 15 123 47 q 233 -18 182 -18 q 318 8 273 -18 q 396 76 363 34 z "},"ȷ":{"ha":366,"x_min":-140,"x_max":244,"o":"m 244 -66 l 244 602 q 233 630 244 620 q 203 640 222 640 q 121 619 168 640 q 39 566 75 598 l 49 534 l 106 534 q 130 505 130 534 l 130 -164 q 105 -262 130 -228 q 42 -296 80 -296 q -7 -273 12 -296 q -27 -212 -27 -251 q -19 -165 -27 -186 q -2 -135 -11 -145 q 7 -122 7 -125 q -16 -109 7 -109 q -105 -141 -71 -109 q -140 -222 -140 -174 q -96 -316 -140 -281 q 16 -351 -52 -351 q 186 -275 129 -351 q 244 -66 244 -198 z "},"ʼ":{"ha":426,"x_min":106,"x_max":296,"o":"m 193 914 q 271 1009 245 971 q 296 1082 296 1047 q 213 1165 296 1165 q 144 1152 180 1165 l 121 1142 l 126 1114 l 151 1096 q 178 1051 178 1077 q 164 1000 178 1028 l 106 886 l 144 861 l 193 914 z "},"ˆ":{"ha":469,"x_min":64,"x_max":408,"o":"m 235 819 l 368 718 l 408 750 q 322 878 369 819 q 252 949 275 936 l 220 949 q 149 877 194 935 q 64 750 103 819 l 106 718 l 235 819 z "},"ˇ":{"ha":469,"x_min":64,"x_max":408,"o":"m 252 727 q 322 799 275 741 q 408 926 369 857 l 368 963 l 235 856 l 106 963 l 64 926 q 149 800 103 857 q 220 727 194 742 l 252 727 z "},"˘":{"ha":431,"x_min":60,"x_max":372,"o":"m 372 906 l 302 906 q 278 848 302 869 q 217 826 254 826 q 154 848 179 826 q 129 906 129 869 l 60 906 q 103 775 60 821 q 217 730 146 730 q 329 775 286 730 q 372 906 372 821 z "},"˙":{"ha":408,"x_min":114,"x_max":293,"o":"m 293 827 q 262 890 293 857 q 202 924 231 924 q 144 890 175 924 q 114 827 114 857 q 146 766 114 800 q 202 732 178 732 q 262 766 231 732 q 293 827 293 799 z "},"˚":{"ha":397,"x_min":56,"x_max":343,"o":"m 144 827 q 159 881 144 860 q 198 902 174 902 q 238 881 224 902 q 252 827 252 860 q 238 775 252 796 q 198 754 224 754 q 159 776 174 754 q 144 827 144 798 m 343 827 q 305 925 343 887 q 198 963 267 963 q 94 925 132 963 q 56 827 56 887 q 94 732 56 769 q 198 694 132 694 q 305 732 267 694 q 343 827 343 769 z "},"˛":{"ha":487,"x_min":64,"x_max":426,"o":"m 426 -222 l 384 -184 q 239 -264 316 -264 q 185 -245 205 -264 q 165 -190 165 -227 q 317 0 165 -102 l 288 45 q 116 -94 168 -35 q 64 -218 64 -152 q 103 -315 64 -279 q 203 -351 142 -351 q 426 -222 323 -351 z "},"˜":{"ha":511,"x_min":52,"x_max":460,"o":"m 180 792 q 233 770 198 792 q 300 749 269 749 q 378 782 335 749 q 460 871 420 815 l 419 910 q 332 860 368 860 q 278 882 315 860 q 213 905 241 905 q 52 784 141 905 l 96 743 q 180 792 141 792 z "},"˝":{"ha":667,"x_min":80,"x_max":590,"o":"m 258 787 q 328 876 328 821 q 274 956 328 929 l 80 760 l 115 718 l 258 787 m 518 787 q 590 876 590 821 q 537 956 590 928 l 340 760 l 377 718 l 518 787 z "},"́":{"ha":362,"x_min":80,"x_max":328,"o":"m 258 787 q 328 876 328 821 q 274 956 328 929 l 80 760 l 115 718 l 258 787 z "},"Δ":{"ha":876,"x_min":64,"x_max":815,"o":"m 419 773 l 656 77 l 186 77 l 419 773 m 815 0 l 502 903 l 374 903 l 64 0 l 815 0 z "},"Ω":{"ha":959,"x_min":75,"x_max":883,"o":"m 368 0 l 403 190 q 256 324 304 239 q 209 513 209 410 q 279 756 209 661 q 479 852 349 852 q 680 756 610 852 q 749 513 749 661 q 702 324 749 410 q 556 190 655 239 l 591 0 l 836 0 l 836 39 l 758 56 q 690 82 708 68 q 665 134 671 96 l 658 176 q 826 318 769 231 q 883 513 883 406 q 779 805 883 690 q 479 920 675 920 q 178 805 282 920 q 75 513 75 690 q 132 317 75 404 q 301 176 189 229 l 293 134 q 269 82 288 96 q 201 56 251 68 l 122 39 l 122 0 l 368 0 z "},"μ":{"ha":773,"x_min":27,"x_max":642,"o":"m 233 24 q 343 -18 277 -18 q 450 17 399 -18 q 529 104 502 52 q 628 -18 529 -18 l 642 0 l 642 627 l 513 610 l 496 594 l 513 571 q 529 514 529 547 l 529 275 q 481 125 529 184 q 361 66 434 66 q 233 221 233 66 l 233 568 q 203 627 233 627 q 106 610 164 627 q 27 575 49 593 l 27 536 l 94 521 q 121 479 121 514 l 121 -142 q 104 -206 121 -183 l 88 -231 l 104 -247 l 233 -263 l 233 24 z "},"π":{"ha":800,"x_min":22,"x_max":788,"o":"m 715 42 l 700 85 q 612 58 646 58 q 578 98 578 58 q 648 503 578 127 q 709 549 655 543 l 777 560 l 788 625 l 233 625 q 121 593 159 625 q 22 435 83 562 q 72 411 27 411 l 164 533 l 220 533 l 149 148 q 133 89 142 106 q 95 60 123 72 l 53 42 l 46 0 l 258 0 l 275 19 l 267 39 q 255 104 255 69 q 264 186 255 122 l 326 533 l 538 533 l 469 138 q 460 69 460 94 q 479 4 460 26 q 545 -18 499 -18 q 715 42 614 -18 z "},"Ё":{"ha":765,"x_min":56,"x_max":688,"o":"m 600 1105 q 570 1160 600 1130 q 518 1190 541 1190 q 469 1160 496 1190 q 442 1105 442 1130 q 469 1053 442 1082 q 518 1024 496 1024 q 570 1053 541 1024 q 600 1105 600 1082 m 361 1105 q 332 1160 361 1130 q 279 1190 302 1190 q 231 1160 258 1190 q 203 1105 203 1130 q 231 1053 203 1082 q 279 1024 258 1024 q 332 1053 302 1024 q 361 1105 361 1082 m 688 -18 l 688 198 l 646 212 l 637 183 q 593 94 620 117 q 500 72 567 72 l 365 72 q 300 90 316 72 q 285 167 285 107 l 285 423 l 391 423 q 488 410 460 423 q 529 353 517 396 l 537 321 l 579 336 l 579 552 l 555 566 l 544 552 q 445 495 505 495 l 285 495 l 285 736 q 300 814 285 795 q 365 833 316 833 l 488 833 q 580 810 553 833 q 624 720 606 788 l 631 690 l 674 705 l 674 929 l 655 945 l 631 929 q 488 903 598 903 l 104 903 l 87 883 l 104 860 q 160 651 160 785 l 160 159 q 144 82 160 103 q 83 47 129 61 l 56 41 l 71 0 l 601 0 q 654 -18 637 0 l 663 -31 l 688 -18 z "},"Ђ":{"ha":991,"x_min":24,"x_max":891,"o":"m 891 199 l 891 377 q 682 574 891 574 q 551 552 606 574 q 435 487 496 530 l 435 736 q 444 814 435 795 q 479 833 453 833 l 537 833 q 629 810 602 833 q 674 720 655 788 l 681 690 l 724 705 l 724 929 l 703 945 l 681 929 q 538 903 648 903 l 210 903 q 68 929 103 903 l 46 945 l 24 929 l 24 705 l 68 690 l 75 720 q 119 810 94 788 q 212 833 145 833 l 269 833 q 304 814 296 833 q 312 736 312 795 l 312 252 q 299 130 312 175 q 255 43 286 84 l 240 20 l 255 0 l 532 0 l 547 43 l 517 50 q 452 87 468 65 q 435 167 435 109 l 435 396 q 485 439 464 423 q 545 469 506 454 q 631 483 583 483 q 743 450 707 483 q 780 343 780 416 l 780 175 q 709 64 780 64 q 665 73 684 64 q 642 83 646 83 q 627 56 627 83 q 655 4 627 26 q 738 -18 684 -18 q 891 199 891 -18 z "},"Ѓ":{"ha":616,"x_min":56,"x_max":591,"o":"m 414 1065 q 483 1154 483 1099 q 430 1236 483 1210 l 235 1038 l 271 996 l 414 1065 m 349 0 l 363 43 l 334 50 q 269 87 285 65 q 254 167 254 109 l 254 736 q 269 814 254 795 q 334 833 285 833 l 404 833 q 496 810 471 833 q 541 720 522 788 l 548 690 l 591 705 l 591 929 l 571 945 l 548 929 q 406 903 513 903 l 72 903 l 56 883 l 72 860 q 130 651 130 785 l 130 252 q 117 131 130 176 q 72 43 104 85 l 56 20 l 72 0 l 349 0 z "},"Є":{"ha":776,"x_min":45,"x_max":743,"o":"m 741 141 q 743 152 743 149 q 730 176 743 164 q 703 187 716 187 q 694 182 699 187 q 457 69 618 69 q 271 164 343 69 q 187 406 198 259 l 551 406 q 581 484 581 430 l 186 484 q 216 661 190 582 q 302 795 241 739 q 450 852 362 852 q 566 814 522 852 q 610 719 610 777 q 601 663 610 689 q 581 623 591 637 q 571 605 571 609 q 600 590 571 590 q 694 631 656 590 q 732 736 732 671 q 654 870 732 819 q 450 921 575 921 q 149 789 252 921 q 45 450 45 656 q 87 214 45 317 q 222 47 130 111 q 446 -18 315 -18 q 741 141 629 -18 z "},"Ѕ":{"ha":719,"x_min":56,"x_max":656,"o":"m 656 228 q 609 375 656 315 q 494 469 562 435 q 359 531 427 502 q 244 603 292 560 q 197 705 197 646 q 237 809 197 766 q 353 852 278 852 q 467 814 423 852 q 511 719 511 777 q 502 663 511 689 q 483 623 492 637 q 473 605 473 609 q 499 590 473 590 q 595 631 556 590 q 633 736 633 673 q 555 869 633 818 q 353 921 476 921 q 149 849 221 921 q 76 677 76 777 q 101 566 76 614 q 166 489 126 518 q 254 436 206 460 q 351 391 302 412 q 439 345 399 369 q 504 283 479 320 q 529 195 529 245 q 484 91 529 129 q 368 53 439 53 q 236 94 286 53 q 186 202 186 136 q 196 259 186 233 q 216 299 206 285 q 227 317 227 313 q 199 332 227 332 q 97 291 138 332 q 56 184 56 250 q 143 39 56 95 q 368 -18 231 -18 q 581 49 506 -18 q 656 228 656 115 z "},"І":{"ha":444,"x_min":50,"x_max":387,"o":"m 374 0 l 387 41 l 361 47 q 300 82 315 61 q 285 159 285 103 l 285 651 q 342 860 285 787 l 358 883 l 342 903 l 65 903 l 50 860 l 80 853 q 144 817 127 840 q 160 736 160 793 l 160 167 q 144 87 160 109 q 80 50 129 65 l 50 43 l 65 0 l 374 0 z "},"Ї":{"ha":444,"x_min":24,"x_max":420,"o":"m 420 1105 q 391 1160 420 1130 q 339 1190 362 1190 q 290 1160 317 1190 q 263 1105 263 1130 q 290 1053 263 1082 q 339 1024 317 1024 q 391 1053 362 1024 q 420 1105 420 1082 m 182 1105 q 153 1160 182 1130 q 100 1190 123 1190 q 52 1160 79 1190 q 24 1105 24 1130 q 52 1053 24 1082 q 100 1024 79 1024 q 153 1053 123 1024 q 182 1105 182 1082 m 374 0 l 387 41 l 361 47 q 300 82 315 61 q 285 159 285 103 l 285 651 q 342 860 285 787 l 358 883 l 342 903 l 65 903 l 50 860 l 80 853 q 144 817 127 840 q 160 736 160 793 l 160 167 q 144 87 160 109 q 80 50 129 65 l 50 43 l 65 0 l 374 0 z "},"Ј":{"ha":590,"x_min":-24,"x_max":540,"o":"m 468 297 l 468 651 q 522 860 468 788 l 540 883 l 522 903 l 248 903 l 233 860 l 262 853 q 327 817 311 840 q 343 736 343 793 l 343 221 q 212 47 343 47 q 128 81 159 47 q 98 165 98 115 q 113 235 98 205 q 143 280 127 264 q 159 301 159 296 q 134 315 159 315 q 18 270 60 315 q -24 163 -24 225 q 35 36 -24 90 q 203 -18 95 -18 q 468 297 468 -18 z "},"Љ":{"ha":1232,"x_min":-26,"x_max":1176,"o":"m 330 783 q 349 823 330 812 q 408 833 369 833 l 513 833 q 577 814 562 833 q 593 736 593 795 l 593 167 q 576 86 593 110 q 513 50 560 62 l 483 43 l 498 0 l 850 0 q 1176 264 1176 0 q 1091 451 1176 374 q 867 528 1006 528 q 780 516 815 528 q 745 483 745 505 q 762 454 745 454 q 790 460 765 454 q 845 465 815 465 q 990 409 935 465 q 1046 270 1046 353 q 996 121 1046 178 q 857 65 945 65 q 823 67 838 65 q 787 78 808 69 q 752 103 766 87 q 728 153 738 119 q 718 231 718 186 l 718 651 q 774 860 718 787 l 791 883 l 774 903 l 165 903 l 149 860 l 179 853 q 225 827 216 844 q 235 749 235 811 q 123 95 235 95 q 69 161 83 95 q 46 218 60 213 q 39 220 43 220 q -7 186 11 220 q -26 109 -26 152 q 12 16 -26 49 q 104 -18 49 -18 q 163 -9 138 -18 q 222 45 189 0 q 277 171 256 91 q 314 408 298 251 q 330 783 330 564 z "},"Њ":{"ha":1336,"x_min":50,"x_max":1280,"o":"m 374 0 l 387 41 l 361 47 q 300 82 315 61 q 285 159 285 103 l 285 420 l 696 420 l 696 167 q 680 86 696 110 q 614 50 663 62 l 587 43 l 602 0 l 952 0 q 1202 71 1123 0 q 1280 264 1280 142 q 1196 451 1280 374 q 971 528 1111 528 q 884 516 920 528 q 849 483 849 505 q 865 454 849 454 q 893 460 868 454 q 948 465 918 465 q 1093 409 1038 465 q 1149 270 1149 353 q 1099 121 1149 178 q 962 65 1050 65 q 917 69 936 65 q 873 87 898 73 q 833 138 848 102 q 819 231 819 175 l 819 651 q 876 860 819 780 l 895 883 l 876 903 l 602 903 l 587 860 l 614 853 q 679 817 662 841 q 696 736 696 792 l 696 496 l 285 496 l 285 651 q 342 860 285 787 l 358 883 l 342 903 l 65 903 l 50 860 l 80 853 q 144 817 127 840 q 160 736 160 793 l 160 167 q 144 87 160 109 q 80 50 129 65 l 50 43 l 65 0 l 374 0 z "},"Ћ":{"ha":991,"x_min":24,"x_max":945,"o":"m 929 -1 l 945 20 l 929 42 q 899 107 907 71 q 891 220 891 144 l 891 377 q 682 574 891 574 q 551 552 606 574 q 435 487 496 530 l 435 736 q 444 814 435 795 q 479 833 453 833 l 537 833 q 629 810 602 833 q 674 720 655 788 l 681 690 l 724 705 l 724 929 l 703 945 l 681 929 q 538 903 648 903 l 210 903 q 68 929 103 903 l 46 945 l 24 929 l 24 705 l 68 690 l 75 720 q 119 810 94 788 q 212 833 145 833 l 269 833 q 304 814 296 833 q 312 736 312 795 l 312 252 q 299 130 312 175 q 255 43 286 84 l 240 20 l 255 0 l 532 0 l 547 43 l 517 50 q 452 87 468 65 q 435 167 435 109 l 435 396 q 485 439 464 423 q 545 469 506 454 q 631 483 583 483 q 743 450 707 483 q 780 343 780 416 l 780 -19 l 929 -1 z "},"Ќ":{"ha":841,"x_min":346,"x_max":594,"o":"m 525 1065 q 594 1154 594 1099 q 541 1236 594 1210 l 346 1038 l 382 996 l 525 1065 z "},"Ў":{"ha":785,"x_min":0,"x_max":799,"o":"m 646 1126 q 616 1191 646 1166 q 548 1215 587 1215 q 521 1198 521 1215 q 531 1176 521 1196 q 541 1128 541 1156 q 427 1062 541 1062 q 315 1131 315 1062 q 325 1176 315 1157 q 335 1198 335 1195 q 309 1215 335 1215 q 238 1190 269 1215 q 208 1126 208 1165 q 267 1040 208 1070 q 427 1009 326 1009 q 587 1040 529 1009 q 646 1126 646 1070 m 475 212 l 712 735 q 781 860 751 823 l 799 883 l 784 903 l 544 903 l 529 860 l 557 853 q 620 773 620 840 q 590 652 620 719 l 453 351 l 267 719 q 236 803 236 784 q 286 853 236 841 l 315 860 l 300 903 l 16 903 l 0 883 q 126 724 73 827 l 385 202 q 235 62 331 62 q 196 77 210 62 q 182 119 182 92 q 195 177 182 148 q 208 208 208 206 q 182 224 208 224 q 99 191 132 224 q 66 106 66 157 q 104 14 66 45 q 210 -18 142 -18 q 351 30 288 -18 q 475 212 414 77 z "},"Џ":{"ha":941,"x_min":50,"x_max":884,"o":"m 538 -206 l 538 0 l 872 0 l 884 41 l 860 47 q 799 82 814 61 q 784 159 784 103 l 784 651 q 796 773 784 727 q 840 860 808 819 l 856 883 l 840 903 l 563 903 l 548 860 l 578 853 q 642 817 625 840 q 658 736 658 793 l 658 167 q 642 90 658 107 q 578 72 627 72 l 365 72 q 300 90 316 72 q 285 167 285 107 l 285 651 q 342 860 285 787 l 358 883 l 342 903 l 65 903 l 50 860 l 80 853 q 144 817 127 840 q 160 736 160 793 l 160 167 q 144 87 160 109 q 80 50 129 65 l 50 43 l 65 0 l 231 0 q 408 -33 361 0 q 488 -191 456 -66 l 495 -222 l 538 -206 z "},"А":{"ha":887,"x_min":-20,"x_max":875,"o":"m 425 774 l 545 422 l 308 422 l 425 774 m 227 0 l 250 20 l 240 43 q 222 119 222 73 q 250 251 222 165 l 281 343 l 571 343 l 631 167 q 646 107 646 117 q 590 50 646 64 l 560 43 l 574 0 l 859 0 l 875 20 q 805 85 829 56 q 761 175 781 115 l 507 903 l 266 903 l 250 860 l 279 853 q 335 798 335 841 q 321 736 335 780 l 123 167 q 82 87 104 109 q 8 50 60 65 l -20 43 l -4 0 l 227 0 z "},"Б":{"ha":818,"x_min":56,"x_max":749,"o":"m 423 0 q 749 264 749 0 q 664 451 749 374 q 439 528 579 528 q 353 516 388 528 q 317 483 317 505 q 335 454 317 454 q 365 460 339 454 q 420 465 391 465 q 564 409 509 465 q 618 270 618 353 q 568 121 618 178 q 430 65 518 65 q 387 69 406 65 q 343 87 368 73 q 305 138 319 102 q 292 231 292 175 l 292 736 q 307 814 292 795 q 370 833 321 833 l 494 833 q 585 810 559 833 q 631 720 612 788 l 637 690 l 681 705 l 681 929 l 661 945 l 637 929 q 495 903 605 903 l 110 903 l 94 883 l 110 860 q 165 651 165 785 l 165 167 q 150 87 165 109 q 85 50 134 65 l 56 43 l 72 0 l 423 0 z "},"В":{"ha":818,"x_min":50,"x_max":749,"o":"m 292 231 l 292 792 q 376 852 292 852 q 526 802 472 852 q 579 671 579 751 q 532 538 579 589 q 399 488 484 488 q 357 492 377 488 q 335 495 338 495 q 317 473 317 495 q 336 445 317 454 q 420 429 374 429 q 564 378 510 429 q 618 254 618 327 q 568 117 618 170 q 430 65 518 65 q 387 69 406 65 q 343 87 368 73 q 305 138 319 102 q 292 231 292 175 m 423 0 q 749 248 749 0 q 701 372 749 316 q 571 457 654 429 q 703 674 703 519 q 619 852 703 784 q 362 921 536 921 q 194 904 282 921 q 50 865 106 887 l 65 818 l 138 818 q 165 789 165 818 l 165 167 q 150 87 165 109 q 85 50 134 65 l 56 43 l 72 0 l 423 0 z "}}}
